<svg width="71" height="70" viewBox="0 0 71 70" fill="none" xmlns="http://www.w3.org/2000/svg">
<path d="M2.68737 35C2.68715 38.0287 3.58509 40.9894 5.26764 43.5078C6.95018 46.0261 9.34175 47.9889 12.1399 49.148C14.938 50.307 18.017 50.6103 20.9875 50.0193C23.958 49.4284 26.6865 47.9699 28.828 45.8281L28.91 45.7188L45.3163 27.2344C46.324 26.2244 47.5219 25.4241 48.8407 24.8797C50.1595 24.3352 51.5731 24.0575 52.9999 24.0625C55.9007 24.0625 58.6827 25.2149 60.7338 27.266C62.785 29.3172 63.9374 32.0992 63.9374 35C63.9374 37.9008 62.785 40.6828 60.7338 42.734C58.6827 44.7852 55.9007 45.9375 52.9999 45.9375C51.5731 45.9425 50.1595 45.6648 48.8407 45.1204C47.5219 44.5759 46.324 43.7756 45.3163 42.7656L42.9921 40.1406C42.6077 39.7055 42.0662 39.4409 41.4868 39.405C40.9073 39.3691 40.3373 39.5649 39.9022 39.9492C39.4671 40.3336 39.2025 40.8751 39.1666 41.4545C39.1307 42.034 39.3264 42.604 39.7108 43.0391L42.0897 45.7188L42.1717 45.8281C43.5937 47.2502 45.2818 48.3783 47.1397 49.1479C48.9976 49.9175 50.9889 50.3136 52.9999 50.3136C55.0109 50.3136 57.0022 49.9175 58.8601 49.1479C60.718 48.3783 62.4061 47.2502 63.828 45.8281C65.9697 43.6866 67.4283 40.9581 68.0192 37.9876C68.6101 35.0172 68.3069 31.9382 67.1478 29.14C65.9888 26.3419 64.0259 23.9503 61.5076 22.2678C58.9893 20.5852 56.0286 19.6873 52.9999 19.6875C50.9878 19.6799 48.9944 20.0724 47.1354 20.8422C45.2765 21.6121 43.5892 22.7439 42.1717 24.1719L42.0897 24.2813L25.6835 42.7656C24.6757 43.7756 23.4778 44.5759 22.159 45.1204C20.8402 45.6648 19.4266 45.9425 17.9999 45.9375C15.0991 45.9375 12.3171 44.7852 10.2659 42.734C8.21471 40.6828 7.06237 37.9008 7.06237 35C7.06237 32.0992 8.21471 29.3172 10.2659 27.266C12.3171 25.2149 15.0991 24.0625 17.9999 24.0625C19.4266 24.0575 20.8402 24.3352 22.159 24.8797C23.4778 25.4241 24.6757 26.2244 25.6835 27.2344L28.0077 29.8594C28.392 30.2945 28.9335 30.5591 29.513 30.595C30.0924 30.6309 30.6624 30.4352 31.0975 30.0508C31.5326 29.6664 31.7973 29.125 31.8332 28.5455C31.869 27.9661 31.6733 27.3961 31.2889 26.961L28.91 24.2813L28.828 24.1719C26.6865 22.0302 23.958 20.5716 20.9875 19.9807C18.017 19.3898 14.938 19.693 12.1399 20.8521C9.34175 22.0111 6.95018 23.9739 5.26764 26.4923C3.58509 29.0106 2.68715 31.9713 2.68737 35V35Z" fill="black"/>
</svg>
