<svg width="98" height="85" viewBox="0 0 98 85" fill="none" xmlns="http://www.w3.org/2000/svg">
<g clip-path="url(#clip0_340_2317)">
<path d="M2.44872 5.18916C3.80112 5.18916 4.89745 4.09103 4.89745 2.73643C4.89745 1.38182 3.80112 0.283691 2.44872 0.283691C1.09633 0.283691 0 1.38182 0 2.73643C0 4.09103 1.09633 5.18916 2.44872 5.18916Z" fill="#91A0AE" fill-opacity="0.37"/>
<path d="M21.0698 5.18916C22.4222 5.18916 23.5185 4.09103 23.5185 2.73643C23.5185 1.38182 22.4222 0.283691 21.0698 0.283691C19.7174 0.283691 18.6211 1.38182 18.6211 2.73643C18.6211 4.09103 19.7174 5.18916 21.0698 5.18916Z" fill="#91A0AE" fill-opacity="0.37"/>
<path d="M39.689 5.18916C41.0414 5.18916 42.1377 4.09103 42.1377 2.73643C42.1377 1.38182 41.0414 0.283691 39.689 0.283691C38.3366 0.283691 37.2402 1.38182 37.2402 2.73643C37.2402 4.09103 38.3366 5.18916 39.689 5.18916Z" fill="#91A0AE" fill-opacity="0.37"/>
<path d="M58.3101 5.18916C59.6624 5.18916 60.7588 4.09103 60.7588 2.73643C60.7588 1.38182 59.6624 0.283691 58.3101 0.283691C56.9577 0.283691 55.8613 1.38182 55.8613 2.73643C55.8613 4.09103 56.9577 5.18916 58.3101 5.18916Z" fill="#91A0AE" fill-opacity="0.37"/>
<path d="M76.9311 5.18916C78.2835 5.18916 79.3799 4.09103 79.3799 2.73643C79.3799 1.38182 78.2835 0.283691 76.9311 0.283691C75.5788 0.283691 74.4824 1.38182 74.4824 2.73643C74.4824 4.09103 75.5788 5.18916 76.9311 5.18916Z" fill="#91A0AE" fill-opacity="0.37"/>
<path d="M95.5522 5.18916C96.9046 5.18916 98.001 4.09103 98.001 2.73643C98.001 1.38182 96.9046 0.283691 95.5522 0.283691C94.1998 0.283691 93.1035 1.38182 93.1035 2.73643C93.1035 4.09103 94.1998 5.18916 95.5522 5.18916Z" fill="#91A0AE" fill-opacity="0.37"/>
<path d="M2.44872 21.0947C3.80112 21.0947 4.89745 19.9966 4.89745 18.6419C4.89745 17.2873 3.80112 16.1892 2.44872 16.1892C1.09633 16.1892 0 17.2873 0 18.6419C0 19.9966 1.09633 21.0947 2.44872 21.0947Z" fill="#91A0AE" fill-opacity="0.37"/>
<path d="M21.0698 21.0947C22.4222 21.0947 23.5185 19.9966 23.5185 18.6419C23.5185 17.2873 22.4222 16.1892 21.0698 16.1892C19.7174 16.1892 18.6211 17.2873 18.6211 18.6419C18.6211 19.9966 19.7174 21.0947 21.0698 21.0947Z" fill="#91A0AE" fill-opacity="0.37"/>
<path d="M39.689 21.0947C41.0414 21.0947 42.1377 19.9966 42.1377 18.6419C42.1377 17.2873 41.0414 16.1892 39.689 16.1892C38.3366 16.1892 37.2402 17.2873 37.2402 18.6419C37.2402 19.9966 38.3366 21.0947 39.689 21.0947Z" fill="#91A0AE" fill-opacity="0.37"/>
<path d="M58.3101 21.0947C59.6624 21.0947 60.7588 19.9966 60.7588 18.6419C60.7588 17.2873 59.6624 16.1892 58.3101 16.1892C56.9577 16.1892 55.8613 17.2873 55.8613 18.6419C55.8613 19.9966 56.9577 21.0947 58.3101 21.0947Z" fill="#91A0AE" fill-opacity="0.37"/>
<path d="M76.9311 21.0947C78.2835 21.0947 79.3799 19.9966 79.3799 18.6419C79.3799 17.2873 78.2835 16.1892 76.9311 16.1892C75.5788 16.1892 74.4824 17.2873 74.4824 18.6419C74.4824 19.9966 75.5788 21.0947 76.9311 21.0947Z" fill="#91A0AE" fill-opacity="0.37"/>
<path d="M95.5522 21.0947C96.9046 21.0947 98.001 19.9966 98.001 18.6419C98.001 17.2873 96.9046 16.1892 95.5522 16.1892C94.1998 16.1892 93.1035 17.2873 93.1035 18.6419C93.1035 19.9966 94.1998 21.0947 95.5522 21.0947Z" fill="#91A0AE" fill-opacity="0.37"/>
<path d="M2.44872 37.0002C3.80112 37.0002 4.89745 35.9021 4.89745 34.5475C4.89745 33.1929 3.80112 32.0947 2.44872 32.0947C1.09633 32.0947 0 33.1929 0 34.5475C0 35.9021 1.09633 37.0002 2.44872 37.0002Z" fill="#91A0AE" fill-opacity="0.37"/>
<path d="M21.0698 37.0002C22.4222 37.0002 23.5185 35.9021 23.5185 34.5475C23.5185 33.1929 22.4222 32.0947 21.0698 32.0947C19.7174 32.0947 18.6211 33.1929 18.6211 34.5475C18.6211 35.9021 19.7174 37.0002 21.0698 37.0002Z" fill="#91A0AE" fill-opacity="0.37"/>
<path d="M39.689 37.0002C41.0414 37.0002 42.1377 35.9021 42.1377 34.5475C42.1377 33.1929 41.0414 32.0947 39.689 32.0947C38.3366 32.0947 37.2402 33.1929 37.2402 34.5475C37.2402 35.9021 38.3366 37.0002 39.689 37.0002Z" fill="#91A0AE" fill-opacity="0.37"/>
<path d="M58.3101 37.0002C59.6624 37.0002 60.7588 35.9021 60.7588 34.5475C60.7588 33.1929 59.6624 32.0947 58.3101 32.0947C56.9577 32.0947 55.8613 33.1929 55.8613 34.5475C55.8613 35.9021 56.9577 37.0002 58.3101 37.0002Z" fill="#91A0AE" fill-opacity="0.37"/>
<path d="M76.9311 37.0002C78.2835 37.0002 79.3799 35.9021 79.3799 34.5475C79.3799 33.1929 78.2835 32.0947 76.9311 32.0947C75.5788 32.0947 74.4824 33.1929 74.4824 34.5475C74.4824 35.9021 75.5788 37.0002 76.9311 37.0002Z" fill="#91A0AE" fill-opacity="0.37"/>
<path d="M95.5522 37.0002C96.9046 37.0002 98.001 35.9021 98.001 34.5475C98.001 33.1929 96.9046 32.0947 95.5522 32.0947C94.1998 32.0947 93.1035 33.1929 93.1035 34.5475C93.1035 35.9021 94.1998 37.0002 95.5522 37.0002Z" fill="#91A0AE" fill-opacity="0.37"/>
<path d="M2.44872 52.9055C3.80112 52.9055 4.89745 51.8073 4.89745 50.4527C4.89745 49.0981 3.80112 48 2.44872 48C1.09633 48 0 49.0981 0 50.4527C0 51.8073 1.09633 52.9055 2.44872 52.9055Z" fill="#91A0AE" fill-opacity="0.37"/>
<path d="M21.0698 52.9055C22.4222 52.9055 23.5185 51.8073 23.5185 50.4527C23.5185 49.0981 22.4222 48 21.0698 48C19.7174 48 18.6211 49.0981 18.6211 50.4527C18.6211 51.8073 19.7174 52.9055 21.0698 52.9055Z" fill="#91A0AE" fill-opacity="0.37"/>
<path d="M39.689 52.9055C41.0414 52.9055 42.1377 51.8073 42.1377 50.4527C42.1377 49.0981 41.0414 48 39.689 48C38.3366 48 37.2402 49.0981 37.2402 50.4527C37.2402 51.8073 38.3366 52.9055 39.689 52.9055Z" fill="#91A0AE" fill-opacity="0.37"/>
<path d="M58.3101 52.9055C59.6624 52.9055 60.7588 51.8073 60.7588 50.4527C60.7588 49.0981 59.6624 48 58.3101 48C56.9577 48 55.8613 49.0981 55.8613 50.4527C55.8613 51.8073 56.9577 52.9055 58.3101 52.9055Z" fill="#91A0AE" fill-opacity="0.37"/>
<path d="M76.9311 52.9055C78.2835 52.9055 79.3799 51.8073 79.3799 50.4527C79.3799 49.0981 78.2835 48 76.9311 48C75.5788 48 74.4824 49.0981 74.4824 50.4527C74.4824 51.8073 75.5788 52.9055 76.9311 52.9055Z" fill="#91A0AE" fill-opacity="0.37"/>
<path d="M95.5522 52.9055C96.9046 52.9055 98.001 51.8073 98.001 50.4527C98.001 49.0981 96.9046 48 95.5522 48C94.1998 48 93.1035 49.0981 93.1035 50.4527C93.1035 51.8073 94.1998 52.9055 95.5522 52.9055Z" fill="#91A0AE" fill-opacity="0.37"/>
<path d="M2.44872 68.811C3.80112 68.811 4.89745 67.7129 4.89745 66.3583C4.89745 65.0036 3.80112 63.9055 2.44872 63.9055C1.09633 63.9055 0 65.0036 0 66.3583C0 67.7129 1.09633 68.811 2.44872 68.811Z" fill="#91A0AE" fill-opacity="0.37"/>
<path d="M21.0698 68.811C22.4222 68.811 23.5185 67.7129 23.5185 66.3583C23.5185 65.0036 22.4222 63.9055 21.0698 63.9055C19.7174 63.9055 18.6211 65.0036 18.6211 66.3583C18.6211 67.7129 19.7174 68.811 21.0698 68.811Z" fill="#91A0AE" fill-opacity="0.37"/>
<path d="M39.689 68.811C41.0414 68.811 42.1377 67.7129 42.1377 66.3583C42.1377 65.0036 41.0414 63.9055 39.689 63.9055C38.3366 63.9055 37.2402 65.0036 37.2402 66.3583C37.2402 67.7129 38.3366 68.811 39.689 68.811Z" fill="#91A0AE" fill-opacity="0.37"/>
<path d="M58.3101 68.811C59.6624 68.811 60.7588 67.7129 60.7588 66.3583C60.7588 65.0036 59.6624 63.9055 58.3101 63.9055C56.9577 63.9055 55.8613 65.0036 55.8613 66.3583C55.8613 67.7129 56.9577 68.811 58.3101 68.811Z" fill="#91A0AE" fill-opacity="0.37"/>
<path d="M76.9311 68.811C78.2835 68.811 79.3799 67.7129 79.3799 66.3583C79.3799 65.0036 78.2835 63.9055 76.9311 63.9055C75.5788 63.9055 74.4824 65.0036 74.4824 66.3583C74.4824 67.7129 75.5788 68.811 76.9311 68.811Z" fill="#91A0AE" fill-opacity="0.37"/>
<path d="M95.5522 68.811C96.9046 68.811 98.001 67.7129 98.001 66.3583C98.001 65.0036 96.9046 63.9055 95.5522 63.9055C94.1998 63.9055 93.1035 65.0036 93.1035 66.3583C93.1035 67.7129 94.1998 68.811 95.5522 68.811Z" fill="#91A0AE" fill-opacity="0.37"/>
<path d="M2.44872 84.7165C3.80112 84.7165 4.89745 83.6184 4.89745 82.2638C4.89745 80.9092 3.80112 79.811 2.44872 79.811C1.09633 79.811 0 80.9092 0 82.2638C0 83.6184 1.09633 84.7165 2.44872 84.7165Z" fill="#91A0AE" fill-opacity="0.37"/>
<path d="M21.0698 84.7165C22.4222 84.7165 23.5185 83.6184 23.5185 82.2638C23.5185 80.9092 22.4222 79.811 21.0698 79.811C19.7174 79.811 18.6211 80.9092 18.6211 82.2638C18.6211 83.6184 19.7174 84.7165 21.0698 84.7165Z" fill="#91A0AE" fill-opacity="0.37"/>
<path d="M39.689 84.7165C41.0414 84.7165 42.1377 83.6184 42.1377 82.2638C42.1377 80.9092 41.0414 79.811 39.689 79.811C38.3366 79.811 37.2402 80.9092 37.2402 82.2638C37.2402 83.6184 38.3366 84.7165 39.689 84.7165Z" fill="#91A0AE" fill-opacity="0.37"/>
<path d="M58.3101 84.7165C59.6624 84.7165 60.7588 83.6184 60.7588 82.2638C60.7588 80.9092 59.6624 79.811 58.3101 79.811C56.9577 79.811 55.8613 80.9092 55.8613 82.2638C55.8613 83.6184 56.9577 84.7165 58.3101 84.7165Z" fill="#91A0AE" fill-opacity="0.37"/>
<path d="M76.9311 84.7165C78.2835 84.7165 79.3799 83.6184 79.3799 82.2638C79.3799 80.9092 78.2835 79.811 76.9311 79.811C75.5788 79.811 74.4824 80.9092 74.4824 82.2638C74.4824 83.6184 75.5788 84.7165 76.9311 84.7165Z" fill="#91A0AE" fill-opacity="0.37"/>
<path d="M95.5522 84.7165C96.9046 84.7165 98.001 83.6184 98.001 82.2638C98.001 80.9092 96.9046 79.811 95.5522 79.811C94.1998 79.811 93.1035 80.9092 93.1035 82.2638C93.1035 83.6184 94.1998 84.7165 95.5522 84.7165Z" fill="#91A0AE" fill-opacity="0.37"/>
</g>
<defs>
<clipPath id="clip0_340_2317">
<rect width="98.001" height="84.4328" fill="white" transform="translate(0 0.283691)"/>
</clipPath>
</defs>
</svg>
