<svg width="135" height="41" viewBox="0 0 135 41" fill="none" xmlns="http://www.w3.org/2000/svg">
<g clip-path="url(#clip0_324_2522)">
<path fill-rule="evenodd" clip-rule="evenodd" d="M10.7566 0.925173H124.249C124.655 0.925173 125.067 0.925043 125.472 0.927043C125.753 0.928634 126.039 0.932831 126.322 0.936974C126.386 0.937906 126.449 0.938836 126.512 0.939733C127.269 0.94718 128.023 1.00628 128.769 1.11649C129.518 1.22941 130.243 1.44074 130.921 1.74349C132.278 2.3612 133.383 3.34037 134.079 4.54329C134.419 5.14268 134.655 5.78445 134.777 6.44661C134.903 7.10841 134.973 7.7776 134.987 8.44861C134.991 8.75525 134.991 9.06287 134.991 9.36951C135 9.73181 135 10.0951 135 10.4613V31.39C135 31.7592 135 32.1205 134.991 32.4838C134.991 32.7943 134.991 33.0951 134.987 33.4057C134.973 34.0767 134.903 34.7458 134.777 35.4076C134.655 36.0701 134.42 36.7123 134.079 37.3119C133.733 37.9086 133.283 38.4534 132.746 38.9262C132.213 39.403 131.597 39.801 130.921 40.1049C130.243 40.4084 129.518 40.621 128.769 40.7357C128.023 40.845 127.268 40.9041 126.512 40.9125C126.169 40.9193 125.816 40.9232 125.472 40.9232C125.067 40.9252 124.655 40.9252 124.249 40.9252H10.7566C10.343 40.9252 9.93419 40.9252 9.5216 40.9232C9.17621 40.9232 8.83358 40.9193 8.48488 40.9125C7.72738 40.9036 6.9717 40.8445 6.22416 40.7357C5.47772 40.6218 4.75481 40.4092 4.07967 40.1049C3.40371 39.8012 2.78717 39.4032 2.25357 38.9262C1.71505 38.4552 1.26616 37.9101 0.924356 37.3119C0.581124 36.7127 0.343339 36.0705 0.219258 35.4076C0.0936522 34.7459 0.0260614 34.0766 0.0170916 33.4057C0.00993901 33.1935 0.00715699 32.9858 0.00435296 32.7766C0.0030527 32.6795 0.00174771 32.5821 0 32.4838V9.36951C0.00176842 9.27122 0.00308357 9.17282 0.00439918 9.07439C0.0071877 8.86576 0.00997831 8.65697 0.0170916 8.44865C0.0260586 7.77769 0.0936495 7.10836 0.219258 6.44665C0.343683 5.78411 0.581453 5.14228 0.924356 4.54333C1.26632 3.94319 1.71514 3.39581 2.25357 2.92224C2.7892 2.44734 3.40534 2.04964 4.07967 1.74358C4.75482 1.44009 5.4778 1.22871 6.22416 1.11658C6.97157 1.00685 7.72733 0.947774 8.48488 0.939873C8.55727 0.938857 8.6294 0.937803 8.70135 0.93675C8.97596 0.932734 9.24792 0.928757 9.5216 0.927173C9.9342 0.925173 10.3429 0.925173 10.7566 0.925173ZM8.40804 40.0425C8.74966 40.0493 9.08566 40.0532 9.42998 40.0532L124.35 40.0552L125.576 40.0532C125.912 40.0532 126.259 40.0493 126.59 40.0425C127.297 40.0349 128.004 39.9803 128.702 39.8793C129.358 39.7809 129.993 39.5955 130.587 39.3294C131.173 39.0659 131.707 38.7206 132.169 38.3067C132.631 37.901 133.018 37.4333 133.316 36.9207C133.615 36.3949 133.821 35.8316 133.927 35.2504C134.042 34.6374 134.106 34.0178 134.12 33.3965C134.124 33.0898 134.124 32.7919 134.124 32.4666C134.133 32.1091 134.133 31.7545 134.133 31.3912V10.4581C134.133 10.0982 134.133 9.74118 134.124 9.3661C134.124 9.0633 134.124 8.75904 134.121 8.47578C134.107 7.84318 134.042 7.2123 133.924 6.58817C133.818 6.01457 133.614 5.45852 133.32 4.93891C132.718 3.89978 131.763 3.05343 130.59 2.51847C129.995 2.25389 129.359 2.06921 128.702 1.97051C128.008 1.86964 127.306 1.81528 126.602 1.80788L125.57 1.79518H9.43053L8.41082 1.80739C7.70067 1.81518 6.99218 1.87003 6.29129 1.97149C5.6412 2.06897 5.01136 2.25237 4.42286 2.51554C3.83742 2.78099 3.30266 3.12608 2.83807 3.53822C2.37296 3.94649 1.98554 4.41867 1.69085 4.93647C1.39165 5.45969 1.18454 6.02031 1.07668 6.59891C0.960772 7.21797 0.898236 7.84393 0.889618 8.47137C0.883007 8.67455 0.873016 9.3661 0.873016 9.3661V32.4715C0.873016 32.4715 0.882396 33.1738 0.889561 33.3848C0.898562 34.0132 0.961463 34.6402 1.07772 35.2602C1.18538 35.8372 1.39233 36.3962 1.69137 36.9177C1.98715 37.4359 2.37673 37.9077 2.84466 38.3145C3.30591 38.7262 3.83897 39.0695 4.42342 39.3313C5.01327 39.5953 5.6443 39.78 6.29571 39.8793C6.9943 39.9798 7.70034 40.0343 8.40804 40.0425Z" fill="#A6A6A6"/>
<path d="M9.43001 40.0532C9.08569 40.0532 8.74969 40.0493 8.40807 40.0425C7.70037 40.0343 6.99433 39.9798 6.29574 39.8793C5.64433 39.78 5.0133 39.5953 4.42345 39.3313C3.839 39.0695 3.30594 38.7262 2.84469 38.3145C2.37676 37.9077 1.98718 37.4359 1.6914 36.9177C1.39236 36.3962 1.18541 35.8372 1.07775 35.2602C0.961494 34.6402 0.898592 34.0132 0.889592 33.3848C0.882427 33.1738 0.873047 32.4715 0.873047 32.4715V9.36609C0.873047 9.36609 0.883037 8.67453 0.889648 8.47136C0.898266 7.84391 0.960802 7.21795 1.07671 6.5989C1.18457 6.0203 1.39168 5.45968 1.69088 4.93645C1.98557 4.41866 2.37299 3.94648 2.8381 3.53821C3.30269 3.12607 3.83745 2.78098 4.42289 2.51553C5.01139 2.25236 5.64123 2.06896 6.29132 1.97147C6.99221 1.87002 7.7007 1.81517 8.41085 1.80738L9.43056 1.79517H125.57L126.602 1.80787C127.306 1.81527 128.008 1.86963 128.702 1.97049C129.359 2.0692 129.995 2.25388 130.59 2.51846C131.763 3.05342 132.718 3.89977 133.32 4.93889C133.614 5.45851 133.818 6.01455 133.924 6.58816C134.042 7.21229 134.107 7.84317 134.121 8.47576C134.124 8.75902 134.124 9.06329 134.124 9.36609C134.133 9.74117 134.133 10.0982 134.133 10.4581V31.3912C134.133 31.7545 134.133 32.1091 134.124 32.4666C134.124 32.7918 134.124 33.0898 134.12 33.3965C134.107 34.0178 134.042 34.6374 133.927 35.2504C133.821 35.8315 133.615 36.3949 133.316 36.9207C133.018 37.4332 132.631 37.901 132.169 38.3067C131.707 38.7206 131.173 39.0659 130.587 39.3294C129.994 39.5955 129.358 39.7808 128.702 39.8793C128.004 39.9803 127.297 40.0348 126.59 40.0425C126.259 40.0493 125.912 40.0532 125.576 40.0532L124.35 40.0552L9.43001 40.0532Z" fill="black"/>
<path d="M32.7973 21.2259C32.8081 20.3912 33.0298 19.5728 33.4418 18.8469C33.8538 18.1209 34.4428 17.511 35.1539 17.0738C34.7021 16.4286 34.1062 15.8977 33.4134 15.5231C32.7205 15.1486 31.9499 14.9407 31.1627 14.9161C29.4835 14.7399 27.8555 15.9209 26.9998 15.9209C26.1275 15.9209 24.81 14.9336 23.3913 14.9628C22.4736 14.9924 21.5793 15.2593 20.7954 15.7374C20.0115 16.2154 19.3649 16.8884 18.9184 17.6907C16.9844 21.0391 18.427 25.9601 20.2796 28.6667C21.2065 29.9921 22.2898 31.4726 23.7072 31.4201C25.0943 31.3625 25.6123 30.5356 27.2866 30.5356C28.9454 30.5356 29.4314 31.4201 30.8776 31.3867C32.366 31.3625 33.3038 30.0554 34.1981 28.7175C34.8641 27.7732 35.3766 26.7294 35.7166 25.625C34.8518 25.2593 34.1139 24.6471 33.5948 23.8648C33.0757 23.0825 32.7983 22.1647 32.7973 21.2259Z" fill="white"/>
<path d="M30.0659 13.1361C30.8774 12.1619 31.2772 10.9097 31.1804 9.64545C29.9406 9.77567 28.7953 10.3682 27.9728 11.3051C27.5707 11.7627 27.2627 12.2952 27.0664 12.8719C26.8702 13.4487 26.7896 14.0585 26.8291 14.6664C27.4493 14.6728 28.0628 14.5384 28.6234 14.2733C29.1841 14.0082 29.6773 13.6194 30.0659 13.1361Z" fill="white"/>
<path d="M50.3311 28.0648H45.5977L44.4609 31.4213H42.4561L46.9395 19.0033H49.0225L53.5059 31.4213H51.4668L50.3311 28.0648ZM46.0879 26.516H49.8399L47.9903 21.0687H47.9385L46.0879 26.516Z" fill="white"/>
<path d="M63.1885 26.8949C63.1885 29.7084 61.6826 31.516 59.4102 31.516C58.8345 31.5461 58.262 31.4135 57.7582 31.1334C57.2544 30.8532 56.8397 30.4369 56.5615 29.932H56.5185V34.4164H54.6601V22.3676H56.459V23.8734H56.4932C56.7841 23.371 57.2058 22.9568 57.7135 22.6749C58.2211 22.3931 58.7957 22.2541 59.376 22.2728C61.6738 22.2728 63.1885 24.0892 63.1885 26.8949ZM61.2783 26.8949C61.2783 25.0619 60.331 23.8568 58.8857 23.8568C57.4658 23.8568 56.5107 25.0873 56.5107 26.8949C56.5107 28.7191 57.4658 29.9408 58.8857 29.9408C60.3311 29.9408 61.2783 28.7445 61.2783 26.8949Z" fill="white"/>
<path d="M73.1533 26.8949C73.1533 29.7084 71.6475 31.516 69.375 31.516C68.7993 31.5461 68.2268 31.4135 67.7231 31.1334C67.2193 30.8532 66.8045 30.4369 66.5264 29.932H66.4834V34.4164H64.625V22.3676H66.4238V23.8734H66.458C66.7489 23.371 67.1707 22.9568 67.6783 22.6749C68.1859 22.3931 68.7605 22.2541 69.3408 22.2728C71.6387 22.2728 73.1533 24.0892 73.1533 26.8949ZM71.2432 26.8949C71.2432 25.0619 70.2959 23.8568 68.8506 23.8568C67.4307 23.8568 66.4756 25.0873 66.4756 26.8949C66.4756 28.7191 67.4307 29.9408 68.8506 29.9408C70.2959 29.9408 71.2432 28.7445 71.2432 26.8949Z" fill="white"/>
<path d="M79.7393 27.9613C79.877 29.1928 81.0733 30.0013 82.708 30.0013C84.2744 30.0013 85.4014 29.1927 85.4014 28.0824C85.4014 27.1185 84.7217 26.5414 83.1123 26.1458L81.5029 25.7581C79.2227 25.2074 78.1641 24.1409 78.1641 22.4105C78.1641 20.2679 80.0313 18.7962 82.6826 18.7962C85.3066 18.7962 87.1055 20.2679 87.166 22.4105H85.29C85.1777 21.1712 84.1533 20.4232 82.6562 20.4232C81.1592 20.4232 80.1347 21.18 80.1347 22.2816C80.1347 23.1595 80.789 23.6761 82.3896 24.0716L83.7578 24.4075C86.3056 25.0101 87.3642 26.0335 87.3642 27.8499C87.3642 30.1731 85.5136 31.6282 82.5703 31.6282C79.8164 31.6282 77.957 30.2073 77.8369 27.9612L79.7393 27.9613Z" fill="white"/>
<path d="M91.375 20.225V22.3676H93.0967V23.8392H91.375V28.8304C91.375 29.6058 91.7197 29.9672 92.4766 29.9672C92.6809 29.9636 92.885 29.9493 93.0879 29.9242V31.3871C92.7476 31.4506 92.4018 31.4794 92.0557 31.473C90.2227 31.473 89.5078 30.7845 89.5078 29.0287V23.8392H88.1914V22.3676H89.5078V20.225H91.375Z" fill="white"/>
<path d="M94.0938 26.8949C94.0938 24.0463 95.7715 22.2562 98.3877 22.2562C101.013 22.2562 102.683 24.0462 102.683 26.8949C102.683 29.7514 101.022 31.5336 98.3877 31.5336C95.7549 31.5336 94.0938 29.7513 94.0938 26.8949ZM100.789 26.8949C100.789 24.9408 99.8936 23.7875 98.3877 23.7875C96.8819 23.7875 95.9873 24.9496 95.9873 26.8949C95.9873 28.8568 96.8819 30.0014 98.3877 30.0014C99.8936 30.0014 100.789 28.8568 100.789 26.8949Z" fill="white"/>
<path d="M104.215 22.3676H105.987V23.9086H106.03C106.15 23.4273 106.432 23.0019 106.829 22.7041C107.225 22.4062 107.712 22.2539 108.208 22.2728C108.422 22.2721 108.636 22.2953 108.845 22.3422V24.0804C108.574 23.9978 108.292 23.9599 108.01 23.9681C107.74 23.9572 107.471 24.0048 107.221 24.1077C106.971 24.2106 106.746 24.3663 106.562 24.5642C106.378 24.7621 106.239 24.9974 106.155 25.2541C106.071 25.5108 106.043 25.7827 106.073 26.0511V31.4213H104.215L104.215 22.3676Z" fill="white"/>
<path d="M117.413 28.7621C117.163 30.4056 115.562 31.5336 113.515 31.5336C110.881 31.5336 109.246 29.7689 109.246 26.9379C109.246 24.098 110.89 22.2562 113.437 22.2562C115.941 22.2562 117.517 23.9769 117.517 26.722V27.3588H111.122V27.4711C111.093 27.8043 111.134 28.1399 111.244 28.4558C111.355 28.7716 111.531 29.0604 111.761 29.3029C111.991 29.5455 112.271 29.7363 112.581 29.8626C112.89 29.9889 113.223 30.0478 113.558 30.0355C113.997 30.0767 114.438 29.975 114.814 29.7455C115.191 29.5161 115.484 29.1712 115.648 28.7621L117.413 28.7621ZM111.131 26.0599H115.657C115.674 25.7603 115.628 25.4605 115.524 25.1793C115.419 24.8981 115.257 24.6416 115.049 24.4258C114.84 24.21 114.59 24.0397 114.312 23.9255C114.035 23.8113 113.737 23.7556 113.437 23.7621C113.134 23.7603 112.834 23.8184 112.554 23.9332C112.274 24.0479 112.019 24.217 111.805 24.4306C111.591 24.6442 111.421 24.8982 111.305 25.1779C111.189 25.4575 111.13 25.7573 111.131 26.0599Z" fill="white"/>
<path d="M45.8545 9.65618C46.2441 9.62822 46.6351 9.68708 46.9992 9.82852C47.3633 9.96995 47.6915 10.1904 47.9601 10.4741C48.2286 10.7577 48.4309 11.0974 48.5523 11.4686C48.6737 11.8399 48.7112 12.2335 48.6621 12.621C48.6621 14.5273 47.6318 15.623 45.8545 15.623H43.6992V9.65618H45.8545ZM44.626 14.7792H45.751C46.0294 14.7958 46.308 14.7502 46.5665 14.6456C46.8251 14.5409 47.057 14.38 47.2455 14.1744C47.434 13.9689 47.5743 13.7239 47.6562 13.4572C47.738 13.1906 47.7594 12.9091 47.7187 12.6332C47.7564 12.3583 47.7329 12.0786 47.6498 11.8139C47.5667 11.5492 47.426 11.3062 47.238 11.1023C47.0499 10.8984 46.8191 10.7386 46.562 10.6343C46.3049 10.5301 46.028 10.484 45.751 10.4994H44.626V14.7792Z" fill="white"/>
<path d="M49.709 13.3695C49.6807 13.0736 49.7145 12.775 49.8084 12.493C49.9022 12.2109 50.054 11.9516 50.2539 11.7316C50.4538 11.5116 50.6976 11.3358 50.9694 11.2155C51.2413 11.0953 51.5352 11.0331 51.8325 11.0331C52.1298 11.0331 52.4238 11.0953 52.6956 11.2155C52.9675 11.3358 53.2112 11.5116 53.4111 11.7316C53.6111 11.9516 53.7628 12.2109 53.8567 12.493C53.9505 12.775 53.9844 13.0736 53.956 13.3695C53.9849 13.6657 53.9514 13.9647 53.8579 14.2473C53.7643 14.5298 53.6126 14.7896 53.4126 15.01C53.2126 15.2304 52.9687 15.4066 52.6966 15.5271C52.4245 15.6476 52.1301 15.7099 51.8325 15.7099C51.5349 15.7099 51.2406 15.6476 50.9684 15.5271C50.6963 15.4066 50.4524 15.2304 50.2524 15.01C50.0524 14.7896 49.9008 14.5298 49.8072 14.2473C49.7136 13.9647 49.6801 13.6657 49.709 13.3695ZM53.042 13.3695C53.042 12.3935 52.6035 11.8227 51.834 11.8227C51.0615 11.8227 50.627 12.3935 50.627 13.3695C50.627 14.3534 51.0615 14.9198 51.834 14.9198C52.6035 14.9198 53.042 14.3495 53.042 13.3695Z" fill="white"/>
<path d="M59.6016 15.6229H58.6797L57.749 12.3065H57.6787L56.752 15.6229H55.8389L54.5977 11.12H55.499L56.3057 14.556H56.3721L57.2979 11.12H58.1504L59.0762 14.556H59.1465L59.9492 11.12H60.8379L59.6016 15.6229Z" fill="white"/>
<path d="M61.8818 11.12H62.7373V11.8353H62.8037C62.9164 11.5784 63.1064 11.363 63.3472 11.2192C63.5881 11.0754 63.8678 11.0104 64.1475 11.0331C64.3666 11.0166 64.5866 11.0496 64.7912 11.1297C64.9958 11.2098 65.1797 11.3349 65.3294 11.4958C65.4791 11.6566 65.5906 11.8491 65.6558 12.0589C65.7211 12.2687 65.7382 12.4905 65.706 12.7079V15.6229H64.8174V12.931C64.8174 12.2074 64.5029 11.8475 63.8457 11.8475C63.6969 11.8406 63.5484 11.8659 63.4104 11.9218C63.2723 11.9776 63.148 12.0626 63.0459 12.171C62.9437 12.2794 62.8662 12.4086 62.8187 12.5497C62.7712 12.6908 62.7547 12.8406 62.7705 12.9887V15.6229H61.8818L61.8818 11.12Z" fill="white"/>
<path d="M67.1221 9.36218H68.0107V15.6229H67.1221V9.36218Z" fill="white"/>
<path d="M69.2461 13.3695C69.2178 13.0736 69.2517 12.775 69.3455 12.4929C69.4394 12.2108 69.5912 11.9515 69.7911 11.7315C69.9911 11.5115 70.2348 11.3357 70.5067 11.2155C70.7786 11.0952 71.0726 11.0331 71.3699 11.0331C71.6672 11.0331 71.9612 11.0952 72.233 11.2155C72.5049 11.3357 72.7486 11.5115 72.9486 11.7315C73.1486 11.9515 73.3003 12.2108 73.3942 12.4929C73.4881 12.775 73.5219 13.0736 73.4936 13.3695C73.5225 13.6658 73.489 13.9647 73.3954 14.2473C73.3017 14.5298 73.15 14.7896 72.95 15.01C72.75 15.2304 72.5061 15.4065 72.234 15.5271C71.9618 15.6476 71.6675 15.7099 71.3699 15.7099C71.0722 15.7099 70.7779 15.6476 70.5058 15.5271C70.2336 15.4065 69.9897 15.2304 69.7897 15.01C69.5897 14.7896 69.438 14.5298 69.3444 14.2473C69.2508 13.9647 69.2173 13.6658 69.2461 13.3695ZM72.5791 13.3695C72.5791 12.3935 72.1406 11.8227 71.3711 11.8227C70.5986 11.8227 70.1641 12.3935 70.1641 13.3695C70.1641 14.3534 70.5987 14.9198 71.3711 14.9198C72.1406 14.9198 72.5791 14.3495 72.5791 13.3695Z" fill="white"/>
<path d="M74.4292 14.3495C74.4292 13.539 75.0327 13.0717 76.104 13.0053L77.3237 12.935V12.5463C77.3237 12.0707 77.0093 11.8021 76.4019 11.8021C75.9058 11.8021 75.562 11.9843 75.4634 12.3026H74.603C74.6938 11.5292 75.4214 11.0331 76.4429 11.0331C77.5718 11.0331 78.2085 11.5951 78.2085 12.5463V15.6229H77.353V14.9901H77.2827C77.14 15.2171 76.9396 15.4022 76.702 15.5264C76.4643 15.6506 76.198 15.7095 75.9302 15.6971C75.7411 15.7168 75.5501 15.6966 75.3693 15.6379C75.1886 15.5792 75.0221 15.4833 74.8807 15.3563C74.7393 15.2294 74.626 15.0742 74.5483 14.9008C74.4705 14.7273 74.4299 14.5396 74.4292 14.3495ZM77.3237 13.9647V13.5883L76.2241 13.6586C75.604 13.7001 75.3227 13.911 75.3227 14.308C75.3227 14.7133 75.6743 14.9491 76.1577 14.9491C76.2994 14.9634 76.4425 14.9491 76.5785 14.907C76.7145 14.865 76.8406 14.7959 76.9494 14.7041C77.0582 14.6123 77.1474 14.4995 77.2117 14.3725C77.276 14.2454 77.3141 14.1068 77.3237 13.9647Z" fill="white"/>
<path d="M79.3765 13.3695C79.3765 11.9467 80.1079 11.0453 81.2456 11.0453C81.527 11.0323 81.8063 11.0997 82.0508 11.2396C82.2954 11.3795 82.495 11.5861 82.6265 11.8353H82.6929V9.36218H83.5815V15.6229H82.73V14.9115H82.6597C82.5181 15.159 82.3114 15.363 82.0622 15.5015C81.8129 15.64 81.5306 15.7076 81.2456 15.6971C80.1001 15.6972 79.3765 14.7958 79.3765 13.3695ZM80.2945 13.3695C80.2945 14.3246 80.7447 14.8993 81.4976 14.8993C82.2466 14.8993 82.7095 14.3163 82.7095 13.3734C82.7095 12.435 82.2417 11.8436 81.4976 11.8436C80.7495 11.8436 80.2945 12.4223 80.2945 13.3695Z" fill="white"/>
<path d="M87.2583 13.3695C87.23 13.0736 87.2638 12.775 87.3577 12.493C87.4515 12.2109 87.6033 11.9516 87.8032 11.7316C88.0032 11.5116 88.2469 11.3358 88.5187 11.2155C88.7906 11.0953 89.0846 11.0331 89.3818 11.0331C89.6791 11.0331 89.9731 11.0953 90.2449 11.2155C90.5168 11.3358 90.7605 11.5116 90.9604 11.7316C91.1604 11.9516 91.3121 12.2109 91.406 12.493C91.4998 12.775 91.5337 13.0736 91.5054 13.3695C91.5342 13.6657 91.5008 13.9647 91.4072 14.2473C91.3136 14.5298 91.1619 14.7896 90.9619 15.01C90.7619 15.2304 90.518 15.4066 90.2459 15.5271C89.9738 15.6476 89.6795 15.7099 89.3818 15.7099C89.0842 15.7099 88.7899 15.6476 88.5177 15.5271C88.2456 15.4066 88.0017 15.2304 87.8017 15.01C87.6017 14.7896 87.4501 14.5298 87.3565 14.2473C87.2629 13.9647 87.2295 13.6657 87.2583 13.3695ZM90.5913 13.3695C90.5913 12.3935 90.1528 11.8227 89.3833 11.8227C88.6108 11.8227 88.1763 12.3935 88.1763 13.3695C88.1763 14.3534 88.6109 14.9198 89.3833 14.9198C90.1528 14.9198 90.5913 14.3495 90.5913 13.3695Z" fill="white"/>
<path d="M92.6977 11.12H93.5532V11.8353H93.6196C93.7323 11.5784 93.9223 11.363 94.1632 11.2192C94.404 11.0754 94.6838 11.0104 94.9634 11.0331C95.1825 11.0166 95.4025 11.0496 95.6071 11.1297C95.8117 11.2098 95.9956 11.3349 96.1453 11.4958C96.295 11.6566 96.4066 11.8491 96.4718 12.0589C96.537 12.2687 96.5541 12.4905 96.522 12.7079V15.6229H95.6333V12.931C95.6333 12.2074 95.3189 11.8475 94.6616 11.8475C94.5129 11.8406 94.3644 11.8659 94.2263 11.9218C94.0882 11.9776 93.9639 12.0626 93.8618 12.171C93.7596 12.2794 93.6822 12.4086 93.6346 12.5497C93.5871 12.6908 93.5707 12.8406 93.5864 12.9887V15.6229H92.6977V11.12Z" fill="white"/>
<path d="M101.543 9.99891V11.1405H102.519V11.8891H101.543V14.2045C101.543 14.6762 101.738 14.8827 102.18 14.8827C102.293 14.8823 102.407 14.8755 102.519 14.8622V15.6024C102.359 15.631 102.198 15.6462 102.036 15.6478C101.047 15.6478 100.654 15.3002 100.654 14.432V11.889H99.939V11.1405H100.654V9.99891H101.543Z" fill="white"/>
<path d="M103.733 9.36218H104.614V11.8436H104.684C104.802 11.5843 104.997 11.3677 105.243 11.2234C105.489 11.079 105.773 11.0139 106.057 11.037C106.275 11.0251 106.493 11.0615 106.695 11.1436C106.897 11.2256 107.079 11.3513 107.227 11.5116C107.375 11.672 107.486 11.863 107.552 12.0711C107.618 12.2793 107.637 12.4994 107.608 12.7157V15.6229H106.718V12.9349C106.718 12.2157 106.383 11.8514 105.755 11.8514C105.603 11.8389 105.449 11.8599 105.305 11.913C105.161 11.966 105.031 12.0498 104.923 12.1586C104.815 12.2673 104.732 12.3983 104.68 12.5425C104.628 12.6866 104.608 12.8404 104.622 12.993V15.6229H103.733L103.733 9.36218Z" fill="white"/>
<path d="M112.79 14.4071C112.669 14.8187 112.407 15.1746 112.051 15.4128C111.694 15.6509 111.265 15.7561 110.838 15.7098C110.542 15.7177 110.247 15.6609 109.974 15.5433C109.702 15.4258 109.458 15.2504 109.26 15.0292C109.062 14.8081 108.915 14.5465 108.828 14.2627C108.742 13.9789 108.718 13.6796 108.758 13.3856C108.719 13.0907 108.743 12.7908 108.83 12.5061C108.916 12.2215 109.063 11.9587 109.26 11.7356C109.456 11.5126 109.699 11.3344 109.971 11.2132C110.242 11.092 110.537 11.0306 110.834 11.0331C112.087 11.0331 112.843 11.8891 112.843 13.3031V13.6132H109.664V13.663C109.65 13.8282 109.67 13.9946 109.725 14.1513C109.779 14.3081 109.865 14.4518 109.978 14.5732C110.091 14.6947 110.228 14.7912 110.38 14.8566C110.533 14.922 110.697 14.9548 110.863 14.953C111.075 14.9785 111.291 14.9402 111.481 14.843C111.672 14.7458 111.83 14.5941 111.934 14.4071L112.79 14.4071ZM109.664 12.9559H111.938C111.949 12.8048 111.929 12.653 111.878 12.5103C111.827 12.3676 111.746 12.2371 111.642 12.1272C111.538 12.0174 111.411 11.9306 111.272 11.8724C111.132 11.8142 110.981 11.786 110.83 11.7894C110.676 11.7875 110.523 11.8164 110.381 11.8743C110.239 11.9323 110.109 12.0181 110.001 12.1268C109.892 12.2355 109.806 12.3649 109.748 12.5073C109.69 12.6497 109.662 12.8022 109.664 12.9559Z" fill="white"/>
</g>
<defs>
<clipPath id="clip0_324_2522">
<rect width="135" height="40" fill="white" transform="translate(0 0.925171)"/>
</clipPath>
</defs>
</svg>
