<svg width="110" height="32" viewBox="0 0 110 32" fill="none" xmlns="http://www.w3.org/2000/svg">
<g clip-path="url(#clip0_406_1512)">
<path d="M15.1253 29.578C13.4706 29.881 11.7868 29.9719 10.0449 30.2138L4.73204 13.9874V30.9102C3.07731 31.0918 1.56771 31.334 0 31.5762V0.576172H4.41289L10.4513 18.1653V0.576172H15.1253V29.578ZM24.2703 11.9287C26.0703 11.9287 28.8283 11.8379 30.483 11.8379V16.6815C28.4217 16.6815 26.0122 16.6815 24.2703 16.7724V23.9776C26.9993 23.796 29.7283 23.5536 32.4861 23.4627V28.1246L19.6251 29.1844V0.576172H32.4861V5.41993H24.2703V11.9287V11.9287ZM49.7597 5.42004H44.9406V27.7013C43.3729 27.7013 41.8052 27.7013 40.2958 27.7616V5.42004H35.4766V0.576172H49.76L49.7597 5.42004V5.42004ZM57.3079 11.5958H63.6658V16.4394H57.3079V27.4288H52.7496V0.576172H65.727V5.41993H57.3079V11.5958V11.5958ZM73.2751 23.1904C75.9171 23.2508 78.5878 23.4631 81.1717 23.6142V28.3974C77.0203 28.1248 72.8688 27.8527 68.6302 27.7616V0.576172H73.2751V23.1904ZM85.0909 28.7305C86.5715 28.8214 88.1392 28.9123 89.6488 29.0936V0.576172H85.0909V28.7305V28.7305ZM110 0.576172L104.107 15.3194L110 31.5762C108.258 31.334 106.516 31.001 104.774 30.6982L101.436 21.7374L98.0393 29.9719C96.3552 29.6688 94.7294 29.578 93.0459 29.3358L99.0263 15.1376L93.6263 0.576172H98.6195L101.668 8.71975L104.919 0.576172H110V0.576172Z" fill="#5A7184"/>
</g>
<defs>
<clipPath id="clip0_406_1512">
<rect width="110" height="31" fill="white" transform="translate(0 0.576172)"/>
</clipPath>
</defs>
</svg>
