<svg width="60" height="61" viewBox="0 0 60 61" fill="none" xmlns="http://www.w3.org/2000/svg">
<path d="M0 15.5763C0 7.29202 6.71573 0.576294 15 0.576294H45C53.2843 0.576294 60 7.29202 60 15.5763V45.5763C60 53.8606 53.2843 60.5763 45 60.5763H15C6.71573 60.5763 0 53.8606 0 45.5763V15.5763Z" fill="#F1F6FC"/>
<path d="M13.375 26.05C13.375 25.7739 13.5989 25.55 13.875 25.55H23.0408H34.526C34.8022 25.55 35.026 25.7739 35.026 26.05V36.3758V46.7015C35.026 46.9776 34.8022 47.2015 34.526 47.2015H13.875C13.5989 47.2015 13.375 46.9776 13.375 46.7015V26.05Z" fill="#AFCBF2"/>
<rect x="24.2236" y="13.201" width="23.151" height="23.1514" rx="1.75" fill="#1A67D7" stroke="#F1F6FC" stroke-width="1.5"/>
</svg>
