<svg width="25" height="26" viewBox="0 0 25 26" fill="none" xmlns="http://www.w3.org/2000/svg">
<path d="M10.4554 17.3125C14.6065 17.3125 16.8773 13.8729 16.8773 10.8954C16.8773 10.7991 16.8773 10.7015 16.8732 10.6052C17.3153 10.2852 17.6969 9.88897 18 9.43511C17.587 9.6172 17.1494 9.7372 16.7013 9.79124C17.1733 9.50911 17.5268 9.06522 17.6961 8.54205C17.2527 8.80476 16.7673 8.98918 16.2613 9.08724C15.9211 8.72494 15.471 8.48493 14.9806 8.40438C14.4902 8.32384 13.9869 8.40725 13.5487 8.6417C13.1105 8.87614 12.7618 9.24855 12.5567 9.70122C12.3516 10.1539 12.3014 10.6616 12.4141 11.1456C11.5167 11.1006 10.6388 10.8675 9.83734 10.4614C9.03587 10.0553 8.32872 9.48519 7.76175 8.78818C7.47392 9.2853 7.38608 9.87333 7.51607 10.4329C7.64606 10.9924 7.98413 11.4815 8.46162 11.8008C8.10381 11.7886 7.75386 11.6926 7.44 11.5203V11.5512C7.44062 12.072 7.62102 12.5766 7.95073 12.9797C8.28043 13.3828 8.7392 13.6597 9.2495 13.7636C9.05581 13.817 8.85572 13.8436 8.65481 13.8427C8.51318 13.8431 8.37182 13.83 8.23269 13.8035C8.37692 14.2518 8.65775 14.6437 9.03586 14.9244C9.41396 15.2052 9.8704 15.3606 10.3413 15.3689C9.54138 15.9972 8.55334 16.3379 7.53625 16.3362C7.35703 16.337 7.17794 16.3267 7 16.3053C8.03229 16.9634 9.23114 17.3129 10.4554 17.3125V17.3125Z" fill="#5A7184"/>
<circle cx="12.5" cy="13.4252" r="12.5" fill="#C4C4C4" fill-opacity="0.39"/>
</svg>
