<svg width="60" height="61" viewBox="0 0 60 61" fill="none" xmlns="http://www.w3.org/2000/svg">
<path d="M0 15.5763C0 7.29202 6.71573 0.576294 15 0.576294H45C53.2843 0.576294 60 7.29202 60 15.5763V45.5763C60 53.8606 53.2843 60.5763 45 60.5763H15C6.71573 60.5763 0 53.8606 0 45.5763V15.5763Z" fill="#F1F6FC"/>
<path d="M43.0625 22.2638H19.3125C18.9976 22.2638 18.6955 22.1387 18.4728 21.916C18.2501 21.6933 18.125 21.3912 18.125 21.0763C18.125 20.7613 18.2501 20.4593 18.4728 20.2366C18.6955 20.0139 18.9976 19.8888 19.3125 19.8888H39.5C39.8149 19.8888 40.117 19.7637 40.3397 19.541C40.5624 19.3183 40.6875 19.0162 40.6875 18.7013C40.6875 18.3863 40.5624 18.0843 40.3397 17.8616C40.117 17.6389 39.8149 17.5138 39.5 17.5138H19.3125C18.3689 17.5177 17.465 17.8943 16.7977 18.5615C16.1305 19.2288 15.7539 20.1327 15.75 21.0763V40.0763C15.7539 41.0199 16.1305 41.9238 16.7977 42.591C17.465 43.2583 18.3689 43.6349 19.3125 43.6388H43.0625C43.6924 43.6388 44.2965 43.3886 44.7419 42.9432C45.1873 42.4978 45.4375 41.8937 45.4375 41.2638V24.6388C45.4375 24.0089 45.1873 23.4048 44.7419 22.9594C44.2965 22.514 43.6924 22.2638 43.0625 22.2638ZM37.7188 34.7325C37.3665 34.7325 37.0221 34.6281 36.7291 34.4323C36.4362 34.2366 36.2079 33.9584 36.0731 33.6329C35.9383 33.3075 35.903 32.9493 35.9717 32.6038C36.0405 32.2583 36.2101 31.9409 36.4592 31.6918C36.7083 31.4426 37.0257 31.273 37.3712 31.2043C37.7168 31.1355 38.0749 31.1708 38.4004 31.3056C38.7259 31.4405 39.0041 31.6688 39.1998 31.9617C39.3955 32.2546 39.5 32.599 39.5 32.9513C39.5 33.4237 39.3123 33.8768 38.9783 34.2108C38.6442 34.5449 38.1912 34.7325 37.7188 34.7325Z" fill="#3065F8"/>
</svg>
