<svg width="353" height="305" viewBox="0 0 353 305" fill="none" xmlns="http://www.w3.org/2000/svg">
<g clip-path="url(#clip0_643_1627)">
<path d="M180.29 759.925C282.377 738.305 335.522 698.613 339.727 640.851C346.034 554.208 108.129 623.665 203.369 442.851C298.61 262.038 384.687 257.561 339.727 144.851C294.767 32.141 174.04 -27.029 33.7899 17.725C-59.7111 47.561 -110.862 158.27 -119.663 349.851" stroke="#D0D5F6" stroke-width="2"/>
<path d="M138.3 759.925C218.383 740.937 260.074 706.079 263.372 655.35C268.32 579.257 81.693 640.256 156.406 481.46C231.118 322.663 298.64 318.733 263.372 219.745C228.103 120.759 133.398 68.795 23.377 108.099C-49.97 134.303 -90.096 231.53 -97 399.784" stroke="#D0D5F6" stroke-width="2"/>
<path d="M102.065 761.925C162.669 745.365 194.218 714.962 196.715 670.717C200.458 604.35 59.227 657.552 115.766 519.053C172.306 380.553 223.404 377.126 196.714 290.792C170.024 204.457 98.355 159.136 15.096 193.416C-40.41 216.27 -70.775 301.07 -76 447.817" stroke="#D0D5F6" stroke-width="2"/>
</g>
<defs>
<clipPath id="clip0_643_1627">
<rect width="353" height="304" fill="white" transform="translate(0 0.925049)"/>
</clipPath>
</defs>
</svg>
