<svg width="114" height="34" viewBox="0 0 114 34" fill="none" xmlns="http://www.w3.org/2000/svg">
<g clip-path="url(#clip0_406_1510)">
<path d="M60.0806 8.86746C60.0806 10.0567 59.0478 11.0146 57.7657 11.0146C56.4836 11.0146 55.4508 10.0567 55.4508 8.86746C55.4508 7.67827 56.448 6.72032 57.7657 6.72032C59.0834 6.75335 60.0806 7.71131 60.0806 8.86746ZM50.5361 13.1948C50.5361 13.393 50.5361 13.7233 50.5361 13.7233C50.5361 13.7233 49.4321 12.402 47.0816 12.402C43.1997 12.402 40.1725 15.1437 40.1725 18.9425C40.1725 22.7083 43.164 25.4831 47.0816 25.4831C49.4677 25.4831 50.5361 24.1287 50.5361 24.1287V24.6903C50.5361 24.9545 50.7498 25.1527 51.0347 25.1527H53.9194V12.7323C53.9194 12.7323 51.284 12.7323 51.0347 12.7323C50.7498 12.7323 50.5361 12.9636 50.5361 13.1948ZM50.5361 21.1558C50.0019 21.8825 48.9335 22.5101 47.6514 22.5101C45.3721 22.5101 43.627 21.1888 43.627 18.9425C43.627 16.6963 45.3721 15.375 47.6514 15.375C48.8979 15.375 50.0375 16.0356 50.5361 16.7293V21.1558ZM56.0563 12.7323H59.4752V25.1527H56.0563V12.7323ZM107.127 12.402C104.776 12.402 103.672 13.7233 103.672 13.7233V6.75335H100.253V25.1527C100.253 25.1527 102.889 25.1527 103.138 25.1527C103.423 25.1527 103.636 24.9215 103.636 24.6903V24.1287C103.636 24.1287 104.74 25.4831 107.091 25.4831C110.973 25.4831 114 22.7083 114 18.9425C114 15.1768 110.973 12.402 107.127 12.402ZM106.557 22.4771C105.239 22.4771 104.206 21.8494 103.672 21.1227V16.6963C104.206 16.0356 105.346 15.3419 106.557 15.3419C108.836 15.3419 110.581 16.6633 110.581 18.9095C110.581 21.1558 108.836 22.4771 106.557 22.4771ZM98.4724 17.7864V25.1858H95.0534V18.1497C95.0534 16.1017 94.3412 15.2759 92.418 15.2759C91.3852 15.2759 90.3168 15.7714 89.6401 16.4981V25.1527H86.2212V12.7323H88.9279C89.2128 12.7323 89.4265 12.9636 89.4265 13.1948V13.7233C90.4236 12.7654 91.7414 12.402 93.0591 12.402C94.5549 12.402 95.8013 12.7984 96.7985 13.5912C98.0094 14.5161 98.4724 15.7053 98.4724 17.7864ZM77.9232 12.402C75.5727 12.402 74.4686 13.7233 74.4686 13.7233V6.75335H71.0497V25.1527C71.0497 25.1527 73.6851 25.1527 73.9344 25.1527C74.2193 25.1527 74.433 24.9215 74.433 24.6903V24.1287C74.433 24.1287 75.537 25.4831 77.8876 25.4831C81.7695 25.4831 84.7967 22.7083 84.7967 18.9425C84.8323 15.1768 81.8051 12.402 77.9232 12.402ZM77.3534 22.4771C76.0356 22.4771 75.0028 21.8494 74.4686 21.1227V16.6963C75.0028 16.0356 76.1425 15.3419 77.3534 15.3419C79.6326 15.3419 81.3777 16.6633 81.3777 18.9095C81.3777 21.1558 79.6326 22.4771 77.3534 22.4771ZM68.0938 12.402C69.1266 12.402 69.6608 12.5672 69.6608 12.5672V15.5071C69.6608 15.5071 66.8117 14.6152 65.031 16.4981V25.1858H61.612V12.7323C61.612 12.7323 64.2475 12.7323 64.4968 12.7323C64.7817 12.7323 64.9953 12.9636 64.9953 13.1948V13.7233C65.6364 13.0296 67.0253 12.402 68.0938 12.402ZM32.5867 24.0296C32.4087 23.6332 32.2306 23.2038 32.0525 22.8404C31.7676 22.2458 31.4827 21.6843 31.2334 21.1558L31.1978 21.1227C28.7404 16.1678 26.105 11.1467 23.3271 6.19179L23.2203 5.99359C22.9354 5.49809 22.6505 4.96956 22.3655 4.44104C22.0094 3.84644 21.6533 3.21881 21.0834 2.62422C19.9438 1.3029 18.3056 0.576172 16.5605 0.576172C14.7798 0.576172 13.1772 1.3029 12.0019 2.55815C11.4677 3.15275 11.076 3.78038 10.7198 4.37497C10.4349 4.9035 10.15 5.43203 9.86508 5.92752L9.75824 6.12572C7.01597 11.0807 4.34493 16.1017 1.88757 21.0567L1.85196 21.1227C1.60266 21.6512 1.31775 22.2128 1.03284 22.8074C0.854771 23.1708 0.676702 23.5672 0.498632 23.9966C0.035652 25.2188 -0.106803 26.375 0.0712659 27.5642C0.463018 30.0416 2.24371 32.1227 4.70107 33.0476C5.62703 33.411 6.5886 33.5762 7.58579 33.5762C7.8707 33.5762 8.22684 33.5431 8.51175 33.5101C9.68701 33.378 10.8979 33.0146 12.0731 32.387C13.5333 31.6272 14.9222 30.5371 16.4893 28.9515C18.0563 30.5371 19.4808 31.6272 20.9054 32.387C22.0806 33.0146 23.2915 33.378 24.4668 33.5101C24.7517 33.5431 25.1078 33.5762 25.3927 33.5762C26.3899 33.5762 27.3871 33.411 28.2774 33.0476C30.7704 32.1227 32.5155 30.0086 32.9073 27.5642C33.1922 26.408 33.0497 25.2518 32.5867 24.0296ZM16.5249 25.7473C14.6017 23.5011 13.3552 21.387 12.9279 19.6032C12.7498 18.8434 12.7142 18.1828 12.821 17.5882C12.8923 17.0597 13.1059 16.5972 13.3909 16.2008C14.0675 15.3089 15.2072 14.7473 16.5249 14.7473C17.8426 14.7473 19.0178 15.2759 19.6589 16.2008C19.9438 16.5972 20.1575 17.0597 20.2287 17.5882C20.3356 18.1828 20.2999 18.8765 20.1219 19.6032C19.6945 21.3539 18.448 23.4681 16.5249 25.7473ZM30.7348 27.2999C30.4855 29.0176 29.239 30.5041 27.4939 31.1648C26.6392 31.4951 25.7132 31.5942 24.7873 31.4951C23.8969 31.396 23.0066 31.1317 22.0806 30.6362C20.7985 29.9756 19.5164 28.9515 18.0207 27.432C20.3712 24.7564 21.7957 22.3119 22.3299 20.1317C22.5792 19.1077 22.6148 18.1828 22.508 17.3239C22.3655 16.4981 22.045 15.7383 21.5464 15.0777C20.4424 13.5912 18.5905 12.7323 16.5249 12.7323C14.4593 12.7323 12.6073 13.6242 11.5033 15.0777C11.0047 15.7383 10.6842 16.4981 10.5417 17.3239C10.3993 18.1828 10.4349 19.1407 10.7198 20.1317C11.254 22.3119 12.7142 24.7894 15.0291 27.4651C13.5689 28.9846 12.2512 30.0086 10.9691 30.6693C10.0431 31.1648 9.1528 31.429 8.26246 31.5281C7.30088 31.6272 6.37492 31.4951 5.5558 31.1978C3.81072 30.5371 2.56424 29.0506 2.31494 27.3329C2.2081 26.5071 2.27933 25.6813 2.63546 24.7563C2.74231 24.426 2.92038 24.0957 3.09844 23.6993C3.34774 23.1708 3.63265 22.6092 3.91756 22.0476L3.95318 21.9816C6.41053 17.0597 9.04596 12.0386 11.7882 7.14974L11.8951 6.95155C12.18 6.45605 12.4649 5.92752 12.7498 5.43203C13.0347 4.9035 13.3552 4.408 13.747 3.97857C14.4949 3.18578 15.4921 2.75635 16.5961 2.75635C17.7001 2.75635 18.6973 3.18578 19.4452 3.97857C19.837 4.408 20.1575 4.9035 20.4424 5.43203C20.7273 5.92752 21.0122 6.45605 21.2971 6.95155L21.404 7.14974C24.1106 12.0717 26.7461 17.0927 29.2034 22.0146V22.0476C29.4883 22.5762 29.7376 23.1708 30.0225 23.6993C30.2006 24.0957 30.3787 24.426 30.4855 24.7563C30.7704 25.6152 30.8773 26.441 30.7348 27.2999Z" fill="#5A7184"/>
</g>
<defs>
<clipPath id="clip0_406_1510">
<rect width="114" height="33" fill="white" transform="translate(0 0.576172)"/>
</clipPath>
</defs>
</svg>
