<svg width="135" height="41" viewBox="0 0 135 41" fill="none" xmlns="http://www.w3.org/2000/svg">
<g clip-path="url(#clip0_324_2523)">
<path d="M130 0.924988H5C2.23858 0.924988 0 3.16356 0 5.92499V35.925C0 38.6864 2.23858 40.925 5 40.925H130C132.761 40.925 135 38.6864 135 35.925V5.92499C135 3.16356 132.761 0.924988 130 0.924988Z" fill="black"/>
<path d="M130 1.725C131.114 1.72629 132.181 2.16923 132.968 2.95665C133.756 3.74407 134.199 4.81166 134.2 5.9252V35.9252C134.199 37.0387 133.756 38.1063 132.968 38.8937C132.181 39.6811 131.114 40.1241 130 40.1254H5C3.88645 40.1241 2.81888 39.6812 2.0315 38.8938C1.24412 38.1063 0.801231 37.0387 0.8 35.9252V5.9252C0.801212 4.81165 1.24409 3.74404 2.03148 2.95662C2.81886 2.1692 3.88644 1.72627 5 1.725H130ZM130 0.925201H5C3.67511 0.92908 2.40559 1.45711 1.46875 2.39395C0.531908 3.33079 0.0038781 4.60031 0 5.9252L0 35.9252C0.0038781 37.2501 0.531908 38.5196 1.46875 39.4565C2.40559 40.3933 3.67511 40.9213 5 40.9252H130C131.325 40.9213 132.594 40.3933 133.531 39.4565C134.468 38.5196 134.996 37.2501 135 35.9252V5.9252C134.996 4.60031 134.468 3.33079 133.531 2.39395C132.594 1.45711 131.325 0.92908 130 0.925201Z" fill="#A6A6A6"/>
<path d="M47.4183 11.1683C47.4365 11.5352 47.3798 11.902 47.2516 12.2464C47.1235 12.5907 46.9267 12.9054 46.6731 13.1712C46.3889 13.466 46.0456 13.6974 45.6658 13.8504C45.286 14.0033 44.8782 14.0744 44.469 14.0589C44.0572 14.0626 43.6488 13.9839 43.2679 13.8275C42.8869 13.6711 42.5411 13.4402 42.2507 13.1482C41.9603 12.8562 41.7312 12.5092 41.5768 12.1274C41.4225 11.7456 41.346 11.3369 41.3519 10.9251C41.346 10.5133 41.4225 10.1045 41.5769 9.72277C41.7313 9.34099 41.9604 8.9939 42.2508 8.70191C42.5412 8.40992 42.887 8.17891 43.2679 8.02244C43.6488 7.86598 44.0572 7.78722 44.469 7.7908C44.8924 7.78952 45.3115 7.87512 45.7005 8.0423C46.0617 8.18874 46.3833 8.41844 46.639 8.7127L46.1116 9.2405C45.9106 9.00395 45.658 8.81673 45.3732 8.6933C45.0884 8.56987 44.779 8.51352 44.469 8.5286C44.1569 8.52698 43.8477 8.58837 43.5599 8.70908C43.2721 8.82979 43.0116 9.00734 42.7941 9.2311C42.5765 9.45486 42.4064 9.72023 42.2938 10.0113C42.1812 10.3024 42.1286 10.6132 42.139 10.9251C42.1315 11.3923 42.263 11.8512 42.5167 12.2436C42.7704 12.6359 43.1349 12.9441 43.564 13.1291C43.9931 13.314 44.4674 13.3674 44.9269 13.2824C45.3864 13.1974 45.8102 12.9779 46.1448 12.6517C46.4527 12.3199 46.6311 11.8886 46.6477 11.4363H44.469V10.7156H47.3763C47.4038 10.8649 47.4178 11.0164 47.4183 11.1683Z" fill="white"/>
<path d="M52.0276 8.6624H49.2952V10.5647H51.7591V11.2855H49.2952V13.1878H52.0276V13.9251H48.5247V7.9251H52.0276V8.6624Z" fill="white"/>
<path d="M55.2786 13.9251H54.5071V8.6624H52.8313V7.9251H56.9544V8.6624H55.2786V13.9251Z" fill="white"/>
<path d="M59.9378 13.9251V7.9251H60.7083V13.9251H59.9378Z" fill="white"/>
<path d="M64.1282 13.9251H63.3567V8.6624H61.681V7.9251H65.804V8.6624H64.1282V13.9251Z" fill="white"/>
<path d="M73.6092 13.1497C73.0252 13.7319 72.2341 14.0589 71.4095 14.0589C70.5848 14.0589 69.7938 13.7319 69.2098 13.1497C68.9209 12.8571 68.6937 12.5093 68.5419 12.1272C68.3901 11.745 68.3167 11.3362 68.326 10.9251C68.3167 10.514 68.3901 10.1052 68.5419 9.72302C68.6937 9.34086 68.9209 8.99312 69.2098 8.7005C69.4984 8.41176 69.8412 8.18279 70.2185 8.0267C70.5957 7.8706 71.0001 7.79044 71.4083 7.7908C71.8166 7.79116 72.2208 7.87204 72.5978 8.02881C72.9748 8.18557 73.3171 8.41515 73.6053 8.7044C73.8944 8.99625 74.122 9.34321 74.2744 9.72468C74.4269 10.1061 74.5013 10.5144 74.493 10.9251C74.5021 11.3362 74.4285 11.7449 74.2767 12.127C74.1249 12.5092 73.8979 12.8569 73.6092 13.1497ZM69.7791 12.6473C70.2116 13.0791 70.7978 13.3216 71.409 13.3216C72.0202 13.3216 72.6063 13.0791 73.0389 12.6473C73.2607 12.4202 73.4341 12.1505 73.5488 11.8545C73.6634 11.5585 73.7169 11.2423 73.7059 10.9251C73.7169 10.6079 73.6634 10.2917 73.5488 9.99567C73.4341 9.69967 73.2607 9.42998 73.0389 9.2029C72.6063 8.7711 72.0202 8.52859 71.409 8.52859C70.7978 8.52859 70.2116 8.7711 69.7791 9.2029C69.5576 9.43016 69.3844 9.6999 69.2699 9.99588C69.1555 10.2919 69.1021 10.6079 69.1131 10.9251C69.1021 11.2422 69.1555 11.5583 69.2699 11.8543C69.3844 12.1503 69.5576 12.42 69.7791 12.6473Z" fill="white"/>
<path d="M75.575 13.9251V7.9251H76.5135L79.4295 12.5926H79.4627L79.4295 11.4363V7.9251H80.201V13.9251H79.3963L76.3455 9.0315H76.3123L76.3455 10.1878V13.9251H75.575Z" fill="white"/>
<path d="M47.4183 11.1683C47.4365 11.5352 47.3798 11.902 47.2516 12.2464C47.1235 12.5907 46.9267 12.9054 46.6731 13.1712C46.3889 13.466 46.0456 13.6974 45.6658 13.8504C45.286 14.0033 44.8782 14.0744 44.469 14.0589C44.0572 14.0626 43.6488 13.9839 43.2679 13.8275C42.8869 13.6711 42.5411 13.4402 42.2507 13.1482C41.9603 12.8562 41.7312 12.5092 41.5768 12.1274C41.4225 11.7456 41.346 11.3369 41.3519 10.9251C41.346 10.5133 41.4225 10.1045 41.5769 9.72277C41.7313 9.34099 41.9604 8.9939 42.2508 8.70191C42.5412 8.40992 42.887 8.17891 43.2679 8.02244C43.6488 7.86598 44.0572 7.78722 44.469 7.7908C44.8924 7.78952 45.3115 7.87512 45.7005 8.0423C46.0617 8.18874 46.3833 8.41844 46.639 8.7127L46.1116 9.2405C45.9106 9.00395 45.658 8.81673 45.3732 8.6933C45.0884 8.56987 44.779 8.51352 44.469 8.5286C44.1569 8.52698 43.8477 8.58837 43.5599 8.70908C43.2721 8.82979 43.0116 9.00734 42.7941 9.2311C42.5765 9.45486 42.4064 9.72023 42.2938 10.0113C42.1812 10.3024 42.1286 10.6132 42.139 10.9251C42.1315 11.3923 42.263 11.8512 42.5167 12.2436C42.7704 12.6359 43.1349 12.9441 43.564 13.1291C43.9931 13.314 44.4674 13.3674 44.9269 13.2824C45.3864 13.1974 45.8102 12.9779 46.1448 12.6517C46.4527 12.3199 46.6311 11.8886 46.6477 11.4363H44.469V10.7156H47.3763C47.4038 10.8649 47.4178 11.0164 47.4183 11.1683Z" stroke="white" stroke-width="0.2" stroke-miterlimit="10"/>
<path d="M52.0276 8.6624H49.2952V10.5647H51.7591V11.2855H49.2952V13.1878H52.0276V13.9251H48.5247V7.9251H52.0276V8.6624Z" stroke="white" stroke-width="0.2" stroke-miterlimit="10"/>
<path d="M55.2786 13.9251H54.5071V8.6624H52.8313V7.9251H56.9544V8.6624H55.2786V13.9251Z" stroke="white" stroke-width="0.2" stroke-miterlimit="10"/>
<path d="M59.9378 13.9251V7.9251H60.7083V13.9251H59.9378Z" stroke="white" stroke-width="0.2" stroke-miterlimit="10"/>
<path d="M64.1282 13.9251H63.3567V8.6624H61.681V7.9251H65.804V8.6624H64.1282V13.9251Z" stroke="white" stroke-width="0.2" stroke-miterlimit="10"/>
<path d="M73.6092 13.1497C73.0252 13.7319 72.2341 14.0589 71.4095 14.0589C70.5848 14.0589 69.7938 13.7319 69.2098 13.1497C68.9209 12.8571 68.6937 12.5093 68.5419 12.1272C68.3901 11.745 68.3167 11.3362 68.326 10.9251C68.3167 10.514 68.3901 10.1052 68.5419 9.72302C68.6937 9.34086 68.9209 8.99312 69.2098 8.7005C69.4984 8.41176 69.8412 8.18279 70.2185 8.0267C70.5957 7.8706 71.0001 7.79044 71.4083 7.7908C71.8166 7.79116 72.2208 7.87204 72.5978 8.02881C72.9748 8.18557 73.3171 8.41515 73.6053 8.7044C73.8944 8.99625 74.122 9.34321 74.2744 9.72468C74.4269 10.1061 74.5013 10.5144 74.493 10.9251C74.5021 11.3362 74.4285 11.7449 74.2767 12.127C74.1249 12.5092 73.8979 12.8569 73.6092 13.1497ZM69.7791 12.6473C70.2116 13.0791 70.7978 13.3216 71.409 13.3216C72.0202 13.3216 72.6063 13.0791 73.0389 12.6473C73.2607 12.4202 73.4341 12.1505 73.5488 11.8545C73.6634 11.5585 73.7169 11.2423 73.7059 10.9251C73.7169 10.6079 73.6634 10.2917 73.5488 9.99567C73.4341 9.69967 73.2607 9.42998 73.0389 9.2029C72.6063 8.7711 72.0202 8.52859 71.409 8.52859C70.7978 8.52859 70.2116 8.7711 69.7791 9.2029C69.5576 9.43016 69.3844 9.6999 69.2699 9.99588C69.1555 10.2919 69.1021 10.6079 69.1131 10.9251C69.1021 11.2422 69.1555 11.5583 69.2699 11.8543C69.3844 12.1503 69.5576 12.42 69.7791 12.6473Z" stroke="white" stroke-width="0.2" stroke-miterlimit="10"/>
<path d="M75.575 13.9251V7.9251H76.5135L79.4295 12.5926H79.4627L79.4295 11.4363V7.9251H80.201V13.9251H79.3963L76.3455 9.0315H76.3123L76.3455 10.1878V13.9251H75.575Z" stroke="white" stroke-width="0.2" stroke-miterlimit="10"/>
<path d="M68.1354 22.6767C67.2949 22.6799 66.4741 22.932 65.7768 23.4013C65.0795 23.8706 64.5369 24.536 64.2175 25.3134C63.898 26.0909 63.8161 26.9455 63.982 27.7695C64.148 28.5935 64.5543 29.3498 65.1498 29.943C65.7452 30.5362 66.5031 30.9397 67.3277 31.1025C68.1523 31.2653 69.0066 31.1801 69.7829 30.8577C70.5591 30.5353 71.2224 29.9902 71.689 29.2911C72.1557 28.592 72.4047 27.7703 72.4047 26.9298C72.4129 26.3676 72.308 25.8095 72.0962 25.2887C71.8844 24.7679 71.5699 24.295 71.1716 23.8982C70.7733 23.5014 70.2992 23.1888 69.7776 22.9789C69.256 22.7691 68.6975 22.6663 68.1354 22.6767ZM68.1354 29.5075C67.6178 29.5444 67.101 29.4246 66.6524 29.1637C66.2038 28.9028 65.8442 28.5129 65.6203 28.0448C65.3964 27.5766 65.3186 27.0519 65.3971 26.5389C65.4756 26.026 65.7068 25.5485 66.0604 25.1687C66.4141 24.789 66.8739 24.5245 67.3799 24.4097C67.886 24.2949 68.4149 24.3351 68.8978 24.5251C69.3807 24.7152 69.7952 25.0462 70.0874 25.475C70.3795 25.9039 70.5358 26.4109 70.5358 26.9298C70.5515 27.2576 70.5015 27.5853 70.3886 27.8935C70.2758 28.2017 70.1024 28.4842 69.8787 28.7244C69.6551 28.9646 69.3856 29.1577 69.0862 29.2921C68.7868 29.4266 68.4635 29.4998 68.1354 29.5075ZM58.822 22.6767C57.9815 22.6799 57.1607 22.932 56.4634 23.4013C55.7661 23.8705 55.2234 24.5359 54.904 25.3133C54.5845 26.0908 54.5026 26.9455 54.6685 27.7694C54.8344 28.5934 55.2408 29.3498 55.8362 29.943C56.4317 30.5362 57.1896 30.9397 58.0142 31.1025C58.8388 31.2653 59.6931 31.1801 60.4694 30.8577C61.2456 30.5353 61.9089 29.9902 62.3755 29.2911C62.8422 28.592 63.0912 27.7703 63.0912 26.9298C63.0994 26.3676 62.9945 25.8095 62.7827 25.2887C62.5709 24.7679 62.2565 24.2951 61.8582 23.8983C61.4598 23.5015 60.9858 23.1888 60.4642 22.979C59.9426 22.7691 59.3841 22.6663 58.822 22.6767ZM58.822 29.5075C58.3044 29.5444 57.7876 29.4246 57.339 29.1637C56.8904 28.9028 56.5308 28.5129 56.3069 28.0448C56.083 27.5766 56.0052 27.0519 56.0837 26.5389C56.1622 26.026 56.3934 25.5485 56.747 25.1687C57.1007 24.789 57.5605 24.5245 58.0665 24.4097C58.5726 24.2949 59.1015 24.3351 59.5844 24.5251C60.0673 24.7152 60.4818 25.0462 60.774 25.475C61.0661 25.9039 61.2224 26.4109 61.2224 26.9298C61.2381 27.2576 61.1881 27.5853 61.0752 27.8935C60.9624 28.2017 60.789 28.4843 60.5654 28.7245C60.3417 28.9647 60.0722 29.1577 59.7728 29.2922C59.4734 29.4266 59.1501 29.4998 58.822 29.5075ZM47.7432 23.9817V25.786H52.0609C51.9986 26.6323 51.6523 27.4328 51.0781 28.0576C50.6454 28.4986 50.1251 28.844 49.5507 29.0716C48.9762 29.2991 48.3605 29.4037 47.7432 29.3786C46.4812 29.3615 45.2766 28.8482 44.3902 27.9497C43.5038 27.0512 43.0068 25.8398 43.0068 24.5777C43.0068 23.3156 43.5038 22.1042 44.3902 21.2057C45.2766 20.3072 46.4812 19.7939 47.7432 19.7768C48.9554 19.761 50.1249 20.2241 50.9976 21.0656L52.2703 19.7929C51.6748 19.2034 50.9677 18.7387 50.1903 18.4261C49.4129 18.1135 48.581 17.9593 47.7432 17.9724C46.8677 17.9596 45.9984 18.1211 45.1858 18.4473C44.3732 18.7735 43.6336 19.258 43.01 19.8727C42.3864 20.4873 41.8911 21.2198 41.5531 22.0275C41.2151 22.8352 41.041 23.7021 41.041 24.5777C41.041 25.4533 41.2151 26.3202 41.5531 27.1279C41.8911 27.9356 42.3864 28.6681 43.01 29.2827C43.6336 29.8973 44.3732 30.3819 45.1858 30.7081C45.9984 31.0343 46.8677 31.1957 47.7432 31.183C48.5986 31.2185 49.4519 31.0716 50.2462 30.7522C51.0406 30.4328 51.758 29.9481 52.3508 29.3303C53.4032 28.1816 53.9641 26.6665 53.9136 25.1094C53.9177 24.7313 53.8853 24.3536 53.8168 23.9817H47.7432ZM93.0515 25.3832C92.7959 24.6128 92.3093 23.9398 91.6579 23.4556C91.0065 22.9714 90.2218 22.6994 89.4105 22.6767C88.864 22.6801 88.3239 22.7943 87.8228 23.0123C87.3217 23.2303 86.8701 23.5477 86.4951 23.9453C86.1201 24.3428 85.8297 24.8123 85.6413 25.3252C85.4529 25.8382 85.3705 26.3841 85.3991 26.9298C85.3868 27.489 85.4873 28.0449 85.6946 28.5644C85.902 29.0838 86.2119 29.5562 86.6059 29.9532C86.9999 30.3502 87.4698 30.6637 87.9877 30.875C88.5056 31.0863 89.0607 31.191 89.62 31.183C90.3206 31.1869 91.0113 31.0167 91.6299 30.6877C92.2485 30.3587 92.7757 29.8812 93.1642 29.2981L91.7143 28.3315C91.4971 28.6922 91.1898 28.9903 90.8227 29.1965C90.4555 29.4026 90.0411 29.5098 89.62 29.5075C89.1867 29.5241 88.7584 29.4101 88.3907 29.1802C88.023 28.9504 87.7328 28.6154 87.5578 28.2187L93.2449 25.8666L93.0515 25.3832ZM87.2518 26.801C87.2317 26.4914 87.2737 26.181 87.3751 25.8878C87.4765 25.5947 87.6353 25.3247 87.8423 25.0936C88.0493 24.8626 88.3003 24.6752 88.5807 24.5424C88.861 24.4095 89.165 24.3339 89.4749 24.32C89.7976 24.2988 90.1194 24.373 90.4001 24.5334C90.6809 24.6939 90.9082 24.9334 91.0538 25.2222L87.2518 26.801ZM82.628 30.9252H84.4968V18.4236H82.628V30.9252ZM79.567 23.6272H79.5026C79.2185 23.3185 78.8717 23.074 78.4855 22.9101C78.0993 22.7462 77.6826 22.6666 77.2632 22.6767C76.1665 22.7234 75.1302 23.1919 74.3707 23.9844C73.6112 24.7769 73.1872 25.8322 73.1872 26.9298C73.1872 28.0275 73.6112 29.0828 74.3707 29.8753C75.1302 30.6678 76.1665 31.1363 77.2632 31.183C77.6843 31.1942 78.1027 31.1135 78.4895 30.9466C78.8762 30.7797 79.2219 30.5305 79.5026 30.2164H79.567V30.8286C79.567 32.4558 78.6971 33.3257 77.2954 33.3257C76.8282 33.3145 76.375 33.1645 75.9934 32.8948C75.6119 32.6251 75.3192 32.2479 75.1528 31.8113L73.5256 32.488C73.8323 33.2347 74.3549 33.8728 75.0265 34.3205C75.6982 34.7683 76.4882 35.0053 77.2954 35.0012C79.4865 35.0012 81.3392 33.7124 81.3392 30.5708V22.9344H79.567V23.6272ZM77.4244 29.5075C76.7784 29.4527 76.1766 29.1574 75.738 28.6801C75.2994 28.2027 75.056 27.5781 75.056 26.9298C75.056 26.2816 75.2994 25.657 75.738 25.1796C76.1766 24.7023 76.7784 24.407 77.4244 24.3522C77.7457 24.3679 78.0606 24.4481 78.3503 24.5881C78.64 24.7281 78.8986 24.925 79.1105 25.167C79.3225 25.4091 79.4836 25.6913 79.5841 25.9969C79.6847 26.3025 79.7227 26.6253 79.6959 26.9459C79.721 27.2645 79.6816 27.585 79.58 27.888C79.4785 28.1911 79.3168 28.4705 79.1048 28.7097C78.8927 28.9488 78.6346 29.1427 78.3459 29.2798C78.0571 29.4169 77.7437 29.4943 77.4244 29.5075ZM101.805 18.4238H97.3342V30.9252H99.1999V26.1888H101.805C102.333 26.2177 102.861 26.1388 103.357 25.9567C103.854 25.7747 104.308 25.4934 104.691 25.13C105.075 24.7666 105.381 24.3288 105.59 23.8433C105.799 23.3578 105.907 22.8348 105.907 22.3063C105.907 21.7777 105.799 21.2547 105.59 20.7692C105.381 20.2838 105.075 19.8459 104.691 19.4826C104.308 19.1192 103.854 18.8379 103.357 18.6559C102.861 18.4738 102.333 18.3949 101.805 18.4238ZM101.854 24.449H99.1999V20.1637H101.854C102.139 20.1578 102.422 20.2088 102.687 20.3139C102.952 20.4189 103.194 20.5758 103.398 20.7753C103.601 20.9749 103.763 21.2131 103.874 21.476C103.984 21.7389 104.041 22.0212 104.041 22.3063C104.041 22.5915 103.984 22.8738 103.874 23.1367C103.763 23.3996 103.601 23.6378 103.398 23.8374C103.194 24.0369 102.952 24.1938 102.687 24.2988C102.422 24.4038 102.139 24.4549 101.854 24.449ZM113.385 22.6537C112.704 22.6139 112.026 22.7739 111.435 23.1138C110.844 23.4538 110.364 23.9591 110.056 24.5676L111.713 25.2592C111.877 24.9572 112.126 24.7096 112.428 24.5468C112.731 24.3839 113.075 24.3129 113.417 24.3424C113.891 24.2962 114.363 24.4395 114.731 24.741C115.099 25.0425 115.332 25.4775 115.38 25.9507V26.0794C114.78 25.7611 114.112 25.5953 113.433 25.5969C111.648 25.5969 109.831 26.578 109.831 28.4115C109.848 28.7979 109.943 29.1769 110.11 29.526C110.276 29.875 110.511 30.1871 110.801 30.4436C111.09 30.7001 111.428 30.8958 111.795 31.0192C112.162 31.1426 112.549 31.191 112.935 31.1617C113.405 31.1893 113.873 31.0905 114.292 30.8756C114.711 30.6606 115.064 30.3373 115.315 29.9394H115.38V30.9044H117.181V26.1116C117.181 23.8921 115.524 22.6537 113.385 22.6537ZM113.16 29.5051C112.549 29.5051 111.696 29.1996 111.696 28.4436C111.696 27.4787 112.758 27.1087 113.675 27.1087C114.27 27.0928 114.859 27.2373 115.38 27.5269C115.311 28.0691 115.049 28.5682 114.64 28.9319C114.232 29.2955 113.707 29.4992 113.16 29.5051ZM123.743 22.9271L121.604 28.3471H121.539L119.32 22.9271H117.31L120.639 30.5023L118.741 34.7161H120.687L125.818 22.9271H123.743ZM106.936 30.9252H108.801V18.4238H106.936V30.9252Z" fill="white"/>
<path d="M10.4352 8.46307C10.1073 8.85514 9.9417 9.35777 9.97238 9.86797V31.9841C9.94161 32.4943 10.1072 32.9969 10.4352 33.389L10.5092 33.4611L22.8982 21.0722V20.7799L10.5092 8.39047L10.4352 8.46307Z" fill="url(#paint0_linear_324_2523)"/>
<path d="M27.0278 25.2036L22.8984 21.0722V20.7799L27.0288 16.6495L27.1219 16.7026L32.0147 19.4827C33.4123 20.2767 33.4123 21.5759 32.0147 22.3704L27.1219 25.1505L27.0278 25.2036Z" fill="url(#paint1_linear_324_2523)"/>
<path d="M27.122 25.15L22.8985 20.9261L10.4355 33.389C10.7203 33.6401 11.084 33.7838 11.4635 33.795C11.843 33.8062 12.2145 33.6843 12.5136 33.4504L27.122 25.15Z" fill="url(#paint2_linear_324_2523)"/>
<path d="M27.122 16.7021L12.5136 8.40168C12.2145 8.16777 11.843 8.04586 11.4635 8.05708C11.084 8.06829 10.7203 8.21192 10.4355 8.46308L22.8985 20.9261L27.122 16.7021Z" fill="url(#paint3_linear_324_2523)"/>
<path opacity="0.2" d="M27.0289 25.057L12.5136 33.3043C12.2261 33.5232 11.8751 33.6427 11.5136 33.6446C11.1522 33.6465 10.8 33.5308 10.51 33.315L10.4355 33.3895L10.5095 33.4616L10.51 33.4611C10.7999 33.677 11.1522 33.7928 11.5136 33.7909C11.8751 33.7889 12.2261 33.6694 12.5136 33.4504L27.122 25.15L27.0289 25.057Z" fill="black"/>
<path opacity="0.12" d="M10.4352 33.2434C10.1073 32.8513 9.94171 32.3487 9.97236 31.8385V31.9846C9.94169 32.4948 10.1073 32.9974 10.4352 33.3895L10.5097 33.315L10.4352 33.2434Z" fill="black"/>
<path opacity="0.12" d="M32.0142 22.2238L27.0283 25.057L27.1214 25.15L32.0142 22.3699C32.302 22.245 32.5511 22.0452 32.7355 21.7913C32.9198 21.5375 33.0328 21.2388 33.0625 20.9265C33.0007 21.2093 32.8737 21.4739 32.6917 21.6991C32.5098 21.9243 32.2778 22.1039 32.0142 22.2238Z" fill="black"/>
<path opacity="0.25" d="M12.5136 8.54827L32.0148 19.6283C32.2784 19.7481 32.5105 19.9278 32.6925 20.1531C32.8744 20.3784 33.0013 20.6431 33.0631 20.9261C33.0335 20.6136 32.9207 20.3148 32.7363 20.0608C32.5519 19.8069 32.3027 19.607 32.0148 19.4822L12.5136 8.40217C11.116 7.60807 9.97266 8.26767 9.97266 9.86847V10.0146C9.97266 8.41387 11.116 7.75427 12.5136 8.54827Z" fill="white"/>
</g>
<defs>
<linearGradient id="paint0_linear_324_2523" x1="21.7995" y1="9.63478" x2="5.01711" y2="26.4172" gradientUnits="userSpaceOnUse">
<stop stop-color="#00A0FF"/>
<stop offset="0.00657" stop-color="#00A1FF"/>
<stop offset="0.2601" stop-color="#00BEFF"/>
<stop offset="0.5122" stop-color="#00D2FF"/>
<stop offset="0.7604" stop-color="#00DFFF"/>
<stop offset="1" stop-color="#00E3FF"/>
</linearGradient>
<linearGradient id="paint1_linear_324_2523" x1="33.8344" y1="20.9265" x2="9.63752" y2="20.9265" gradientUnits="userSpaceOnUse">
<stop stop-color="#FFE000"/>
<stop offset="0.4087" stop-color="#FFBD00"/>
<stop offset="0.7754" stop-color="#FFA500"/>
<stop offset="1" stop-color="#FF9C00"/>
</linearGradient>
<linearGradient id="paint2_linear_324_2523" x1="24.8271" y1="23.2212" x2="2.06882" y2="45.9795" gradientUnits="userSpaceOnUse">
<stop stop-color="#FF3A44"/>
<stop offset="1" stop-color="#C31162"/>
</linearGradient>
<linearGradient id="paint3_linear_324_2523" x1="7.29748" y1="1.10126" x2="17.46" y2="11.2638" gradientUnits="userSpaceOnUse">
<stop stop-color="#32A071"/>
<stop offset="0.0685" stop-color="#2DA771"/>
<stop offset="0.4762" stop-color="#15CF74"/>
<stop offset="0.8009" stop-color="#06E775"/>
<stop offset="1" stop-color="#00F076"/>
</linearGradient>
<clipPath id="clip0_324_2523">
<rect width="135" height="40.0002" fill="white" transform="translate(0 0.924988)"/>
</clipPath>
</defs>
</svg>
