<svg width="89" height="28" viewBox="0 0 89 28" fill="none" xmlns="http://www.w3.org/2000/svg">
<path d="M1.95312 7.64783H5.99609C7.77995 7.64783 9.12109 7.91475 10.0195 8.44861C10.918 8.98246 11.3672 9.89067 11.3672 11.1732C11.3672 11.7266 11.2598 12.2247 11.0449 12.6674C10.8366 13.1036 10.5306 13.4649 10.127 13.7513C9.72331 14.0378 9.22526 14.2364 8.63281 14.347V14.4447C9.25781 14.5424 9.8112 14.7214 10.293 14.9818C10.7747 15.2422 11.1523 15.6068 11.4258 16.0756C11.6992 16.5443 11.8359 17.14 11.8359 17.8627C11.8359 18.7416 11.6309 19.4838 11.2207 20.0892C10.8171 20.6947 10.2441 21.1537 9.50195 21.4662C8.75977 21.7722 7.88086 21.9252 6.86523 21.9252H1.95312V7.64783ZM3.61328 13.7709H6.34766C7.59115 13.7709 8.45052 13.5658 8.92578 13.1556C9.40755 12.7455 9.64844 12.1465 9.64844 11.3588C9.64844 10.545 9.36198 9.95903 8.78906 9.60095C8.22266 9.24288 7.31771 9.06384 6.07422 9.06384H3.61328V13.7709ZM3.61328 15.1674V20.5092H6.58203C7.85156 20.5092 8.75 20.2618 9.27734 19.767C9.80469 19.2657 10.0684 18.5918 10.0684 17.7455C10.0684 17.2051 9.94792 16.7429 9.70703 16.3588C9.47266 15.9747 9.08854 15.6817 8.55469 15.4799C8.02734 15.2715 7.32096 15.1674 6.43555 15.1674H3.61328ZM23.8672 16.5541C23.8672 17.433 23.7533 18.2175 23.5254 18.9076C23.2975 19.5977 22.9688 20.1804 22.5391 20.6556C22.1094 21.1309 21.5885 21.4955 20.9766 21.7494C20.3711 21.9968 19.6842 22.1205 18.916 22.1205C18.1999 22.1205 17.5423 21.9968 16.9434 21.7494C16.3509 21.4955 15.8366 21.1309 15.4004 20.6556C14.9707 20.1804 14.6354 19.5977 14.3945 18.9076C14.1602 18.2175 14.043 17.433 14.043 16.5541C14.043 15.3822 14.2415 14.3861 14.6387 13.5658C15.0358 12.739 15.6022 12.1107 16.3379 11.681C17.0801 11.2448 17.9622 11.0267 18.9844 11.0267C19.9609 11.0267 20.8138 11.2448 21.543 11.681C22.2786 12.1172 22.8483 12.7487 23.252 13.5756C23.6621 14.3959 23.8672 15.3887 23.8672 16.5541ZM15.7227 16.5541C15.7227 17.4135 15.8366 18.1589 16.0645 18.7904C16.2923 19.4219 16.6439 19.9102 17.1191 20.2552C17.5944 20.6003 18.2064 20.7728 18.9551 20.7728C19.6973 20.7728 20.306 20.6003 20.7812 20.2552C21.263 19.9102 21.6178 19.4219 21.8457 18.7904C22.0736 18.1589 22.1875 17.4135 22.1875 16.5541C22.1875 15.7012 22.0736 14.9655 21.8457 14.347C21.6178 13.722 21.2663 13.2403 20.791 12.9017C20.3158 12.5632 19.7005 12.3939 18.9453 12.3939C17.832 12.3939 17.015 12.7618 16.4941 13.4974C15.9798 14.2331 15.7227 15.252 15.7227 16.5541ZM30.4785 22.1205C29.1243 22.1205 28.0501 21.6582 27.2559 20.7338C26.4681 19.8093 26.0742 18.4356 26.0742 16.6127C26.0742 14.7702 26.4779 13.3802 27.2852 12.4427C28.0924 11.4987 29.1667 11.0267 30.5078 11.0267C31.0742 11.0267 31.569 11.1016 31.9922 11.2513C32.4154 11.4011 32.7799 11.6029 33.0859 11.8568C33.3919 12.1042 33.6491 12.3874 33.8574 12.7064H33.9746C33.9486 12.5046 33.9225 12.2279 33.8965 11.8763C33.8704 11.5248 33.8574 11.2383 33.8574 11.017V6.72986H35.4785V21.9252H34.1699L33.9258 20.4017H33.8574C33.6556 20.7207 33.3984 21.0105 33.0859 21.2709C32.7799 21.5313 32.4121 21.7396 31.9824 21.8959C31.5592 22.0456 31.0579 22.1205 30.4785 22.1205ZM30.7324 20.7728C31.8783 20.7728 32.6888 20.4473 33.1641 19.7963C33.6393 19.1452 33.877 18.1784 33.877 16.8959V16.6029C33.877 15.2422 33.6491 14.1973 33.1934 13.4681C32.7441 12.739 31.9238 12.3744 30.7324 12.3744C29.7363 12.3744 28.9909 12.7585 28.4961 13.5267C28.0013 14.2885 27.7539 15.3301 27.7539 16.6517C27.7539 17.9668 27.998 18.9825 28.4863 19.6986C28.9811 20.4148 29.7298 20.7728 30.7324 20.7728ZM37.2266 11.222H38.9648L41.3281 17.433C41.4648 17.7976 41.5918 18.1491 41.709 18.4877C41.8262 18.8197 41.9303 19.1387 42.0215 19.4447C42.1126 19.7507 42.1842 20.0469 42.2363 20.3334H42.3047C42.3958 20.0079 42.526 19.5814 42.6953 19.0541C42.8646 18.5202 43.0469 17.9766 43.2422 17.4232L45.4785 11.222H47.2266L42.5684 23.4974C42.321 24.155 42.0312 24.7279 41.6992 25.2162C41.3737 25.7045 40.9766 26.0788 40.5078 26.3392C40.0391 26.6062 39.4727 26.7396 38.8086 26.7396C38.5026 26.7396 38.2324 26.7201 37.998 26.681C37.7637 26.6485 37.5618 26.6094 37.3926 26.5638V25.265C37.5358 25.2976 37.7083 25.3269 37.9102 25.3529C38.1185 25.3789 38.3333 25.392 38.5547 25.392C38.9583 25.392 39.3066 25.3138 39.5996 25.1576C39.8991 25.0079 40.1562 24.7865 40.3711 24.4935C40.5859 24.2006 40.7715 23.8523 40.9277 23.4486L41.5137 21.9447L37.2266 11.222ZM57.5879 20.7924C57.8548 20.7924 58.1283 20.7696 58.4082 20.724C58.6882 20.6784 58.916 20.6231 59.0918 20.558V21.8177C58.903 21.9024 58.6393 21.974 58.3008 22.0326C57.9688 22.0912 57.6432 22.1205 57.3242 22.1205C56.7578 22.1205 56.2435 22.0228 55.7812 21.8275C55.319 21.6257 54.9479 21.2872 54.668 20.8119C54.3945 20.3366 54.2578 19.6791 54.2578 18.8392V12.4916H52.7344V11.7006L54.2676 11.0658L54.9121 8.74158H55.8887V11.222H59.0234V12.4916H55.8887V18.7904C55.8887 19.461 56.0417 19.9623 56.3477 20.2943C56.6602 20.6263 57.0736 20.7924 57.5879 20.7924ZM65.3809 11.0267C66.2923 11.0267 67.0736 11.2286 67.7246 11.6322C68.3757 12.0358 68.8737 12.6023 69.2188 13.3314C69.5638 14.0541 69.7363 14.9004 69.7363 15.8705V16.8763H62.3438C62.3633 18.1329 62.6758 19.0899 63.2812 19.7474C63.8867 20.405 64.7396 20.7338 65.8398 20.7338C66.5169 20.7338 67.1159 20.6719 67.6367 20.5482C68.1576 20.4245 68.6979 20.2422 69.2578 20.0013V21.4271C68.7174 21.668 68.1803 21.8438 67.6465 21.9545C67.1191 22.0651 66.4941 22.1205 65.7715 22.1205C64.7428 22.1205 63.8444 21.9122 63.0762 21.4955C62.3145 21.0723 61.722 20.4538 61.2988 19.64C60.8757 18.8262 60.6641 17.8301 60.6641 16.6517C60.6641 15.4994 60.8561 14.5033 61.2402 13.6635C61.6309 12.8171 62.1777 12.1661 62.8809 11.7103C63.5905 11.2546 64.4238 11.0267 65.3809 11.0267ZM65.3613 12.3549C64.4954 12.3549 63.8053 12.6381 63.291 13.2045C62.7767 13.7709 62.4707 14.5619 62.373 15.5775H68.0371C68.0306 14.9395 67.9297 14.3796 67.7344 13.8978C67.5456 13.4095 67.2559 13.0319 66.8652 12.765C66.4746 12.4916 65.9733 12.3549 65.3613 12.3549ZM75.0391 16.4467L71.3379 11.222H73.1934L76.0156 15.3431L78.8281 11.222H80.6641L76.9629 16.4467L80.8691 21.9252H79.0137L76.0156 17.5599L72.998 21.9252H71.1621L75.0391 16.4467ZM86.416 20.7924C86.6829 20.7924 86.9564 20.7696 87.2363 20.724C87.5163 20.6784 87.7441 20.6231 87.9199 20.558V21.8177C87.7311 21.9024 87.4674 21.974 87.1289 22.0326C86.7969 22.0912 86.4714 22.1205 86.1523 22.1205C85.5859 22.1205 85.0716 22.0228 84.6094 21.8275C84.1471 21.6257 83.776 21.2872 83.4961 20.8119C83.2227 20.3366 83.0859 19.6791 83.0859 18.8392V12.4916H81.5625V11.7006L83.0957 11.0658L83.7402 8.74158H84.7168V11.222H87.8516V12.4916H84.7168V18.7904C84.7168 19.461 84.8698 19.9623 85.1758 20.2943C85.4883 20.6263 85.9017 20.7924 86.416 20.7924Z" fill="#183B56"/>
</svg>
