<svg width="112" height="33" viewBox="0 0 112 33" fill="none" xmlns="http://www.w3.org/2000/svg">
<g clip-path="url(#clip0_406_1511)">
<path d="M16.2118 2.96261C16.2118 4.26431 15.2233 5.34905 14.0371 5.34905C12.8508 5.34905 11.8623 4.26431 11.8623 2.96261C11.8623 1.66092 12.8508 0.576172 14.0371 0.576172C15.2233 0.576172 16.2118 1.66092 16.2118 2.96261ZM14.0371 7.3016C12.752 7.3016 11.7635 8.38634 11.7635 9.79651C11.7635 11.2067 12.752 12.2914 14.0371 12.2914C15.3222 12.2914 16.3107 11.2067 16.3107 9.79651C16.3107 8.38634 15.3222 7.3016 14.0371 7.3016ZM14.0371 14.027C12.752 14.027 11.6646 15.2202 11.6646 16.6304C11.6646 18.0406 12.752 19.2338 14.0371 19.2338C15.3222 19.2338 16.4095 18.0406 16.4095 16.6304C16.4095 15.2202 15.3222 14.027 14.0371 14.027ZM14.0371 20.8609C12.752 20.8609 11.7635 21.9457 11.7635 23.3558C11.7635 24.766 12.752 25.8507 14.0371 25.8507C15.3222 25.8507 16.3107 24.766 16.3107 23.3558C16.3107 22.0541 15.3222 20.8609 14.0371 20.8609ZM14.0371 27.8033C12.8508 27.8033 11.8623 28.888 11.8623 30.1897C11.8623 31.4914 12.8508 32.5762 14.0371 32.5762C15.2233 32.5762 16.2118 31.4914 16.2118 30.1897C16.2118 28.888 15.2233 27.8033 14.0371 27.8033ZM20.0671 6.97617C18.6831 6.97617 17.4969 8.27787 17.4969 9.79651C17.4969 11.3152 18.6831 12.6169 20.0671 12.6169C21.451 12.6169 22.6372 11.3152 22.6372 9.79651C22.6372 8.27787 21.451 6.97617 20.0671 6.97617ZM20.0671 13.7016C18.5843 13.7016 17.3981 15.0033 17.3981 16.6304C17.3981 18.2575 18.5843 19.5592 20.0671 19.5592C21.5499 19.5592 22.7361 18.2575 22.7361 16.6304C22.7361 15.0033 21.5499 13.7016 20.0671 13.7016ZM20.0671 20.5355C18.6831 20.5355 17.4969 21.8372 17.4969 23.3558C17.4969 24.8745 18.6831 26.1762 20.0671 26.1762C21.451 26.1762 22.6372 24.8745 22.6372 23.3558C22.6372 21.8372 21.451 20.5355 20.0671 20.5355ZM26.2948 13.3762C24.7131 13.3762 23.3292 14.7863 23.3292 16.6304C23.3292 18.366 24.6143 19.8846 26.2948 19.8846C27.9753 19.8846 29.2604 18.4745 29.2604 16.6304C29.1615 14.7863 27.8764 13.3762 26.2948 13.3762ZM7.90821 7.62702C6.82083 7.62702 5.93116 8.60329 5.93116 9.79651C5.93116 10.9897 6.82083 11.966 7.90821 11.966C8.99559 11.966 9.88526 10.9897 9.88526 9.79651C9.88526 8.60329 8.99559 7.62702 7.90821 7.62702ZM7.90821 14.3524C6.72198 14.3524 5.8323 15.3287 5.8323 16.6304C5.8323 17.9321 6.72198 18.9084 7.90821 18.9084C9.09444 18.9084 9.98411 17.9321 9.98411 16.6304C9.98411 15.3287 9.09444 14.3524 7.90821 14.3524ZM7.90821 21.1863C6.82083 21.1863 5.93116 22.1626 5.93116 23.3558C5.93116 24.5491 6.82083 25.5253 7.90821 25.5253C8.99559 25.5253 9.88526 24.5491 9.88526 23.3558C9.88526 22.1626 8.99559 21.1863 7.90821 21.1863ZM1.77935 14.6779C0.790821 14.6779 0 15.5457 0 16.6304C0 17.7152 0.790821 18.583 1.77935 18.583C2.76787 18.583 3.55869 17.7152 3.55869 16.6304C3.55869 15.5457 2.76787 14.6779 1.77935 14.6779Z" fill="#5A7184"/>
<path d="M51.6005 12.3999C51.4028 12.3999 51.2051 12.6169 51.2051 12.8338V29.8643C51.2051 30.0813 51.4028 30.2982 51.6005 30.2982H53.4787C53.6764 30.2982 53.8741 30.0813 53.8741 29.8643V12.8338C53.8741 12.6169 53.6764 12.3999 53.4787 12.3999H51.6005Z" fill="#5A7184"/>
<path d="M52.5889 5.24072C51.6004 5.24072 50.8096 6.10852 50.8096 7.19326C50.8096 8.27801 51.6004 9.14581 52.5889 9.14581C53.5774 9.14581 54.3683 8.27801 54.3683 7.19326C54.3683 6.10852 53.5774 5.24072 52.5889 5.24072Z" fill="#5A7184"/>
<path d="M91.4384 12.3999C91.2407 12.3999 91.043 12.6169 91.043 12.8338V29.8643C91.043 30.0813 91.2407 30.2982 91.4384 30.2982H93.3166C93.5143 30.2982 93.712 30.0813 93.712 29.8643V12.8338C93.712 12.6169 93.5143 12.3999 93.3166 12.3999H91.4384Z" fill="#5A7184"/>
<path d="M92.3282 5.24072C91.3397 5.24072 90.5488 6.10852 90.5488 7.19326C90.5488 8.27801 91.3397 9.14581 92.3282 9.14581C93.3167 9.14581 94.1075 8.27801 94.1075 7.19326C94.1075 6.10852 93.3167 5.24072 92.3282 5.24072Z" fill="#5A7184"/>
<path d="M111.11 28.6711C111.209 28.5626 111.209 28.4542 111.209 28.3457C111.209 28.2372 111.209 28.2372 111.209 28.2372C111.209 28.2372 111.209 28.1287 111.11 28.1287C111.11 28.1287 111.012 28.0203 110.913 28.0203C110.814 28.0203 110.814 28.0203 110.715 28.0203H110.221V29.5389H110.418V28.9965H110.715L111.11 29.5389H111.308L110.814 28.8881C111.012 28.8881 111.11 28.7796 111.11 28.6711ZM110.418 28.7796V28.2372H110.814C110.913 28.2372 111.012 28.2372 111.11 28.3457C111.209 28.3457 111.209 28.4542 111.209 28.5626C111.209 28.6711 111.209 28.7796 111.11 28.7796C111.012 28.7796 110.913 28.8881 110.814 28.8881H110.418V28.7796Z" fill="#5A7184"/>
<path d="M110.715 27.3694C110.023 27.3694 109.43 28.0202 109.43 28.7796C109.43 29.5389 110.023 30.1897 110.715 30.1897C111.407 30.1897 112 29.5389 112 28.7796C112 28.0202 111.407 27.3694 110.715 27.3694ZM110.715 30.0812C110.023 30.0812 109.529 29.5389 109.529 28.7796C109.529 28.0202 110.023 27.4779 110.715 27.4779C111.407 27.4779 111.901 28.0202 111.901 28.7796C111.901 29.5389 111.308 30.0812 110.715 30.0812Z" fill="#5A7184"/>
<path d="M67.022 15.2203C67.2197 15.2203 67.4174 15.0034 67.4174 14.7864V12.7254C67.4174 12.5084 67.2197 12.2915 67.022 12.2915H63.0679V5.78302C63.0679 5.56607 62.8701 5.34912 62.6724 5.34912H60.7942C60.5965 5.34912 60.3988 5.56607 60.3988 5.78302V12.2915H58.4218C58.2241 12.2915 58.0264 12.5084 58.0264 12.7254V14.7864C58.0264 15.0034 58.2241 15.2203 58.4218 15.2203H60.3988V25.0915C60.3988 28.1288 62.277 30.0813 64.946 30.0813H66.9231C67.1208 30.0813 67.3185 29.8644 67.3185 29.6474V27.5864C67.3185 27.3695 67.1208 27.1525 66.9231 27.1525H65.2426C63.9575 27.1525 63.0679 26.1762 63.0679 24.6576V15.1118H67.022V15.2203Z" fill="#5A7184"/>
<path d="M106.365 15.2203C106.562 15.2203 106.76 15.0034 106.76 14.7864V12.7254C106.76 12.5084 106.562 12.2915 106.365 12.2915H102.411V5.78302C102.411 5.56607 102.213 5.34912 102.015 5.34912H100.137C99.9393 5.34912 99.7416 5.56607 99.7416 5.78302V12.2915H97.7646C97.5668 12.2915 97.3691 12.5084 97.3691 12.7254V14.7864C97.3691 15.0034 97.5668 15.2203 97.7646 15.2203H99.7416V25.0915C99.7416 28.1288 101.62 30.0813 104.289 30.0813H106.266C106.464 30.0813 106.661 29.8644 106.661 29.6474V27.5864C106.661 27.3695 106.464 27.1525 106.266 27.1525H104.487C103.201 27.1525 102.312 26.1762 102.312 24.6576V15.1118H106.365V15.2203Z" fill="#5A7184"/>
<path d="M39.8373 15.2203V29.7559C39.8373 29.9728 40.035 30.1898 40.2327 30.1898H42.1109C42.3086 30.1898 42.5063 29.9728 42.5063 29.7559V15.2203H46.8558C47.0535 15.2203 47.2512 15.0033 47.2512 14.7864V12.7254C47.2512 12.5084 47.0535 12.2915 46.8558 12.2915H42.5063V8.49485C42.5063 6.97621 43.4949 5.89146 44.6811 5.89146H46.8558C47.0535 5.89146 47.2512 5.67451 47.2512 5.45756V3.39654C47.2512 3.1796 47.0535 2.96265 46.8558 2.96265H44.7799C42.0121 2.96265 39.8373 5.45756 39.8373 8.38638V12.2915H37.8603C37.6625 12.2915 37.4648 12.5084 37.4648 12.7254V14.7864C37.4648 15.0033 37.6625 15.2203 37.8603 15.2203H39.8373V15.2203Z" fill="#5A7184"/>
<path d="M85.1118 14.461C83.629 12.7254 81.5531 11.7492 79.3784 11.7492C77.3025 11.7492 75.2266 12.7254 73.9415 14.1356V3.28815C73.9415 3.0712 73.7438 2.85425 73.5461 2.85425H71.6679C71.4702 2.85425 71.2725 3.0712 71.2725 3.28815V21.1865C71.2725 27.8034 75.3254 30.7322 79.2795 30.7322C83.2336 30.7322 87.2866 27.8034 87.2866 21.1865C87.3854 18.5831 86.5946 16.1966 85.1118 14.461ZM79.3784 28.0203C75.4243 28.0203 73.9415 24.5492 73.9415 21.2949C73.9415 17.2814 76.1162 14.678 79.3784 14.678C82.6405 14.678 84.8153 17.3898 84.8153 21.2949C84.7164 24.5492 83.3325 28.0203 79.3784 28.0203Z" fill="#5A7184"/>
</g>
<defs>
<clipPath id="clip0_406_1511">
<rect width="112" height="32" fill="white" transform="translate(0 0.576172)"/>
</clipPath>
</defs>
</svg>
