<svg width="193" height="197" viewBox="0 0 193 197" fill="none" xmlns="http://www.w3.org/2000/svg">
<g clip-path="url(#clip0_326_2627)">
<path d="M4.8 10.1762C7.45097 10.1762 9.6 8.02714 9.6 5.37617C9.6 2.72521 7.45097 0.576172 4.8 0.576172C2.14903 0.576172 0 2.72521 0 5.37617C0 8.02714 2.14903 10.1762 4.8 10.1762Z" fill="#39A7E1" fill-opacity="0.5"/>
<path d="M41.3 10.1762C43.951 10.1762 46.1 8.02714 46.1 5.37617C46.1 2.72521 43.951 0.576172 41.3 0.576172C38.649 0.576172 36.5 2.72521 36.5 5.37617C36.5 8.02714 38.649 10.1762 41.3 10.1762Z" fill="#39A7E1" fill-opacity="0.5"/>
<path d="M77.8 10.1762C80.451 10.1762 82.6 8.02714 82.6 5.37617C82.6 2.72521 80.451 0.576172 77.8 0.576172C75.149 0.576172 73 2.72521 73 5.37617C73 8.02714 75.149 10.1762 77.8 10.1762Z" fill="#39A7E1" fill-opacity="0.5"/>
<path d="M114.3 10.1762C116.951 10.1762 119.1 8.02714 119.1 5.37617C119.1 2.72521 116.951 0.576172 114.3 0.576172C111.649 0.576172 109.5 2.72521 109.5 5.37617C109.5 8.02714 111.649 10.1762 114.3 10.1762Z" fill="#39A7E1" fill-opacity="0.5"/>
<path d="M150.8 10.1762C153.451 10.1762 155.6 8.02714 155.6 5.37617C155.6 2.72521 153.451 0.576172 150.8 0.576172C148.149 0.576172 146 2.72521 146 5.37617C146 8.02714 148.149 10.1762 150.8 10.1762Z" fill="#39A7E1" fill-opacity="0.5"/>
<path d="M187.3 10.1762C189.951 10.1762 192.1 8.02714 192.1 5.37617C192.1 2.72521 189.951 0.576172 187.3 0.576172C184.649 0.576172 182.5 2.72521 182.5 5.37617C182.5 8.02714 184.649 10.1762 187.3 10.1762Z" fill="#39A7E1" fill-opacity="0.5"/>
<path d="M4.8 41.1762C7.45097 41.1762 9.6 39.0271 9.6 36.3762C9.6 33.7252 7.45097 31.5762 4.8 31.5762C2.14903 31.5762 0 33.7252 0 36.3762C0 39.0271 2.14903 41.1762 4.8 41.1762Z" fill="#39A7E1" fill-opacity="0.5"/>
<path d="M41.3 41.1762C43.951 41.1762 46.1 39.0271 46.1 36.3762C46.1 33.7252 43.951 31.5762 41.3 31.5762C38.649 31.5762 36.5 33.7252 36.5 36.3762C36.5 39.0271 38.649 41.1762 41.3 41.1762Z" fill="#39A7E1" fill-opacity="0.5"/>
<path d="M77.8 41.1762C80.451 41.1762 82.6 39.0271 82.6 36.3762C82.6 33.7252 80.451 31.5762 77.8 31.5762C75.149 31.5762 73 33.7252 73 36.3762C73 39.0271 75.149 41.1762 77.8 41.1762Z" fill="#39A7E1" fill-opacity="0.5"/>
<path d="M114.3 41.1762C116.951 41.1762 119.1 39.0271 119.1 36.3762C119.1 33.7252 116.951 31.5762 114.3 31.5762C111.649 31.5762 109.5 33.7252 109.5 36.3762C109.5 39.0271 111.649 41.1762 114.3 41.1762Z" fill="#39A7E1" fill-opacity="0.5"/>
<path d="M150.8 41.1762C153.451 41.1762 155.6 39.0271 155.6 36.3762C155.6 33.7252 153.451 31.5762 150.8 31.5762C148.149 31.5762 146 33.7252 146 36.3762C146 39.0271 148.149 41.1762 150.8 41.1762Z" fill="#39A7E1" fill-opacity="0.5"/>
<path d="M187.3 41.1762C189.951 41.1762 192.1 39.0271 192.1 36.3762C192.1 33.7252 189.951 31.5762 187.3 31.5762C184.649 31.5762 182.5 33.7252 182.5 36.3762C182.5 39.0271 184.649 41.1762 187.3 41.1762Z" fill="#39A7E1" fill-opacity="0.5"/>
<path d="M4.8 72.1762C7.45097 72.1762 9.6 70.0271 9.6 67.3762C9.6 64.7252 7.45097 62.5762 4.8 62.5762C2.14903 62.5762 0 64.7252 0 67.3762C0 70.0271 2.14903 72.1762 4.8 72.1762Z" fill="#39A7E1" fill-opacity="0.5"/>
<path d="M41.3 72.1762C43.951 72.1762 46.1 70.0271 46.1 67.3762C46.1 64.7252 43.951 62.5762 41.3 62.5762C38.649 62.5762 36.5 64.7252 36.5 67.3762C36.5 70.0271 38.649 72.1762 41.3 72.1762Z" fill="#39A7E1" fill-opacity="0.5"/>
<path d="M77.8 72.1762C80.451 72.1762 82.6 70.0271 82.6 67.3762C82.6 64.7252 80.451 62.5762 77.8 62.5762C75.149 62.5762 73 64.7252 73 67.3762C73 70.0271 75.149 72.1762 77.8 72.1762Z" fill="#39A7E1" fill-opacity="0.5"/>
<path d="M114.3 72.1762C116.951 72.1762 119.1 70.0271 119.1 67.3762C119.1 64.7252 116.951 62.5762 114.3 62.5762C111.649 62.5762 109.5 64.7252 109.5 67.3762C109.5 70.0271 111.649 72.1762 114.3 72.1762Z" fill="#39A7E1" fill-opacity="0.5"/>
<path d="M150.8 72.1762C153.451 72.1762 155.6 70.0271 155.6 67.3762C155.6 64.7252 153.451 62.5762 150.8 62.5762C148.149 62.5762 146 64.7252 146 67.3762C146 70.0271 148.149 72.1762 150.8 72.1762Z" fill="#39A7E1" fill-opacity="0.5"/>
<path d="M187.3 72.1762C189.951 72.1762 192.1 70.0271 192.1 67.3762C192.1 64.7252 189.951 62.5762 187.3 62.5762C184.649 62.5762 182.5 64.7252 182.5 67.3762C182.5 70.0271 184.649 72.1762 187.3 72.1762Z" fill="#39A7E1" fill-opacity="0.5"/>
<path d="M4.8 103.176C7.45097 103.176 9.6 101.027 9.6 98.3762C9.6 95.7252 7.45097 93.5762 4.8 93.5762C2.14903 93.5762 0 95.7252 0 98.3762C0 101.027 2.14903 103.176 4.8 103.176Z" fill="#39A7E1" fill-opacity="0.5"/>
<path d="M41.3 103.176C43.951 103.176 46.1 101.027 46.1 98.3762C46.1 95.7252 43.951 93.5762 41.3 93.5762C38.649 93.5762 36.5 95.7252 36.5 98.3762C36.5 101.027 38.649 103.176 41.3 103.176Z" fill="#39A7E1" fill-opacity="0.5"/>
<path d="M77.8 103.176C80.451 103.176 82.6 101.027 82.6 98.3762C82.6 95.7252 80.451 93.5762 77.8 93.5762C75.149 93.5762 73 95.7252 73 98.3762C73 101.027 75.149 103.176 77.8 103.176Z" fill="#39A7E1" fill-opacity="0.5"/>
<path d="M114.3 103.176C116.951 103.176 119.1 101.027 119.1 98.3762C119.1 95.7252 116.951 93.5762 114.3 93.5762C111.649 93.5762 109.5 95.7252 109.5 98.3762C109.5 101.027 111.649 103.176 114.3 103.176Z" fill="#39A7E1" fill-opacity="0.5"/>
<path d="M150.8 103.176C153.451 103.176 155.6 101.027 155.6 98.3762C155.6 95.7252 153.451 93.5762 150.8 93.5762C148.149 93.5762 146 95.7252 146 98.3762C146 101.027 148.149 103.176 150.8 103.176Z" fill="#39A7E1" fill-opacity="0.5"/>
<path d="M187.3 103.176C189.951 103.176 192.1 101.027 192.1 98.3762C192.1 95.7252 189.951 93.5762 187.3 93.5762C184.649 93.5762 182.5 95.7252 182.5 98.3762C182.5 101.027 184.649 103.176 187.3 103.176Z" fill="#39A7E1" fill-opacity="0.5"/>
<path d="M4.8 134.176C7.45097 134.176 9.6 132.027 9.6 129.376C9.6 126.725 7.45097 124.576 4.8 124.576C2.14903 124.576 0 126.725 0 129.376C0 132.027 2.14903 134.176 4.8 134.176Z" fill="#39A7E1" fill-opacity="0.5"/>
<path d="M41.3 134.176C43.951 134.176 46.1 132.027 46.1 129.376C46.1 126.725 43.951 124.576 41.3 124.576C38.649 124.576 36.5 126.725 36.5 129.376C36.5 132.027 38.649 134.176 41.3 134.176Z" fill="#39A7E1" fill-opacity="0.5"/>
<path d="M77.8 134.176C80.451 134.176 82.6 132.027 82.6 129.376C82.6 126.725 80.451 124.576 77.8 124.576C75.149 124.576 73 126.725 73 129.376C73 132.027 75.149 134.176 77.8 134.176Z" fill="#39A7E1" fill-opacity="0.5"/>
<path d="M114.3 134.176C116.951 134.176 119.1 132.027 119.1 129.376C119.1 126.725 116.951 124.576 114.3 124.576C111.649 124.576 109.5 126.725 109.5 129.376C109.5 132.027 111.649 134.176 114.3 134.176Z" fill="#39A7E1" fill-opacity="0.5"/>
<path d="M150.8 134.176C153.451 134.176 155.6 132.027 155.6 129.376C155.6 126.725 153.451 124.576 150.8 124.576C148.149 124.576 146 126.725 146 129.376C146 132.027 148.149 134.176 150.8 134.176Z" fill="#39A7E1" fill-opacity="0.5"/>
<path d="M187.3 134.176C189.951 134.176 192.1 132.027 192.1 129.376C192.1 126.725 189.951 124.576 187.3 124.576C184.649 124.576 182.5 126.725 182.5 129.376C182.5 132.027 184.649 134.176 187.3 134.176Z" fill="#39A7E1" fill-opacity="0.5"/>
<path d="M4.8 165.176C7.45097 165.176 9.6 163.027 9.6 160.376C9.6 157.725 7.45097 155.576 4.8 155.576C2.14903 155.576 0 157.725 0 160.376C0 163.027 2.14903 165.176 4.8 165.176Z" fill="#39A7E1" fill-opacity="0.5"/>
<path d="M41.3 165.176C43.951 165.176 46.1 163.027 46.1 160.376C46.1 157.725 43.951 155.576 41.3 155.576C38.649 155.576 36.5 157.725 36.5 160.376C36.5 163.027 38.649 165.176 41.3 165.176Z" fill="#39A7E1" fill-opacity="0.5"/>
<path d="M77.8 165.176C80.451 165.176 82.6 163.027 82.6 160.376C82.6 157.725 80.451 155.576 77.8 155.576C75.149 155.576 73 157.725 73 160.376C73 163.027 75.149 165.176 77.8 165.176Z" fill="#39A7E1" fill-opacity="0.5"/>
<path d="M114.3 165.176C116.951 165.176 119.1 163.027 119.1 160.376C119.1 157.725 116.951 155.576 114.3 155.576C111.649 155.576 109.5 157.725 109.5 160.376C109.5 163.027 111.649 165.176 114.3 165.176Z" fill="#39A7E1" fill-opacity="0.5"/>
<path d="M150.8 165.176C153.451 165.176 155.6 163.027 155.6 160.376C155.6 157.725 153.451 155.576 150.8 155.576C148.149 155.576 146 157.725 146 160.376C146 163.027 148.149 165.176 150.8 165.176Z" fill="#39A7E1" fill-opacity="0.5"/>
<path d="M187.3 165.176C189.951 165.176 192.1 163.027 192.1 160.376C192.1 157.725 189.951 155.576 187.3 155.576C184.649 155.576 182.5 157.725 182.5 160.376C182.5 163.027 184.649 165.176 187.3 165.176Z" fill="#39A7E1" fill-opacity="0.5"/>
<path d="M4.8 196.176C7.45097 196.176 9.6 194.027 9.6 191.376C9.6 188.725 7.45097 186.576 4.8 186.576C2.14903 186.576 0 188.725 0 191.376C0 194.027 2.14903 196.176 4.8 196.176Z" fill="#39A7E1" fill-opacity="0.5"/>
<path d="M41.3 196.176C43.951 196.176 46.1 194.027 46.1 191.376C46.1 188.725 43.951 186.576 41.3 186.576C38.649 186.576 36.5 188.725 36.5 191.376C36.5 194.027 38.649 196.176 41.3 196.176Z" fill="#39A7E1" fill-opacity="0.5"/>
<path d="M77.8 196.176C80.451 196.176 82.6 194.027 82.6 191.376C82.6 188.725 80.451 186.576 77.8 186.576C75.149 186.576 73 188.725 73 191.376C73 194.027 75.149 196.176 77.8 196.176Z" fill="#39A7E1" fill-opacity="0.5"/>
<path d="M114.3 196.176C116.951 196.176 119.1 194.027 119.1 191.376C119.1 188.725 116.951 186.576 114.3 186.576C111.649 186.576 109.5 188.725 109.5 191.376C109.5 194.027 111.649 196.176 114.3 196.176Z" fill="#39A7E1" fill-opacity="0.5"/>
<path d="M150.8 196.176C153.451 196.176 155.6 194.027 155.6 191.376C155.6 188.725 153.451 186.576 150.8 186.576C148.149 186.576 146 188.725 146 191.376C146 194.027 148.149 196.176 150.8 196.176Z" fill="#39A7E1" fill-opacity="0.5"/>
<path d="M187.3 196.176C189.951 196.176 192.1 194.027 192.1 191.376C192.1 188.725 189.951 186.576 187.3 186.576C184.649 186.576 182.5 188.725 182.5 191.376C182.5 194.027 184.649 196.176 187.3 196.176Z" fill="#39A7E1" fill-opacity="0.5"/>
</g>
<defs>
<clipPath id="clip0_326_2627">
<rect width="192.1" height="195.7" fill="white" transform="translate(0 0.576172)"/>
</clipPath>
</defs>
</svg>
