<svg width="25" height="26" viewBox="0 0 25 26" fill="none" xmlns="http://www.w3.org/2000/svg">
<circle cx="12.5" cy="13.4252" r="12.5" fill="#C4C4C4" fill-opacity="0.39"/>
<path d="M16.8337 11.6539C16.89 11.956 16.9208 12.2717 16.9208 12.6013C16.9208 15.179 15.1956 17.0118 12.59 17.0118C11.9974 17.012 11.4106 16.8954 10.8631 16.6688C10.3157 16.4421 9.81821 16.1097 9.39921 15.6907C8.98021 15.2717 8.64788 14.7743 8.4212 14.2268C8.19452 13.6793 8.07794 13.0925 8.07813 12.5C8.07794 11.9074 8.19452 11.3207 8.4212 10.7732C8.64788 10.2257 8.98021 9.72824 9.39921 9.30924C9.81821 8.89024 10.3157 8.55791 10.8631 8.33123C11.4106 8.10456 11.9974 7.98798 12.59 7.98816C13.8082 7.98816 14.8262 8.43641 15.6072 9.16424L14.3353 10.4361V10.4329C13.8618 9.98191 13.261 9.75045 12.59 9.75045C11.1013 9.75045 9.89129 11.0081 9.89129 12.4972C9.89129 13.9859 11.1013 15.2463 12.59 15.2463C13.9407 15.2463 14.8601 14.474 15.0489 13.4135H12.59V11.6539H16.8341H16.8337Z" fill="#5A7184"/>
</svg>
