<svg width="112" height="33" viewBox="0 0 112 33" fill="none" xmlns="http://www.w3.org/2000/svg">
<g clip-path="url(#clip0_406_1509)">
<path d="M108.512 20.1327L111.619 21.9363C110.611 23.2297 108.199 25.4486 104.029 25.4486C98.8506 25.4486 94.9941 21.96 94.9941 17.5223C94.9941 12.7997 98.8915 9.59595 103.593 9.59595C108.321 9.59595 110.638 12.8709 111.388 14.6389L111.796 15.5407L99.6137 19.931C100.54 21.521 101.985 22.3279 104.029 22.3279C106.073 22.3279 107.49 21.4498 108.512 20.1327ZM98.9596 17.2731L107.095 14.3304C106.645 13.3455 105.31 12.6454 103.715 12.6454C101.685 12.6454 98.8642 14.2117 98.9596 17.2731Z" fill="#5A7184"/>
<path d="M89.1201 1.51538H93.0447V24.7248H89.1201V1.51538Z" fill="#5A7184"/>
<path d="M82.9336 10.2131H86.7219V24.3096C86.7219 30.1594 82.7565 32.5682 78.0687 32.5682C73.6536 32.5682 70.9963 29.9814 70.0015 27.8812L73.4764 26.6234C74.1033 27.9168 75.6159 29.4475 78.0687 29.4475C81.0803 29.4475 82.9336 27.8219 82.9336 24.7842V23.6451H82.7973C81.898 24.5944 80.1809 25.4487 78.0006 25.4487C73.4492 25.4487 69.2793 21.9958 69.2793 17.5461C69.2793 13.0728 73.4492 9.58423 78.0006 9.58423C80.1673 9.58423 81.898 10.4267 82.7973 11.3522H82.9336V10.2131ZM83.2061 17.5461C83.2061 14.7458 81.0667 12.7049 78.3413 12.7049C75.5886 12.7049 73.272 14.7458 73.272 17.5461C73.272 20.3109 75.5886 22.3162 78.3413 22.3162C81.0667 22.328 83.2061 20.3109 83.2061 17.5461Z" fill="#5A7184"/>
<path d="M47.735 17.4868C47.735 22.0551 43.6469 25.4131 38.6322 25.4131C33.6174 25.4131 29.5293 22.0432 29.5293 17.4868C29.5293 12.8947 33.6174 9.54858 38.6322 9.54858C43.6469 9.54858 47.735 12.8947 47.735 17.4868ZM43.7559 17.4868C43.7559 14.639 41.3848 12.6811 38.6322 12.6811C35.8795 12.6811 33.5084 14.639 33.5084 17.4868C33.5084 20.3108 35.8795 22.2924 38.6322 22.2924C41.3848 22.2924 43.7559 20.3108 43.7559 17.4868Z" fill="#5A7184"/>
<path d="M67.6169 17.5223C67.6169 22.0906 63.5288 25.4486 58.514 25.4486C53.4992 25.4486 49.4111 22.0906 49.4111 17.5223C49.4111 12.9302 53.4992 9.59595 58.514 9.59595C63.5288 9.59595 67.6169 12.9184 67.6169 17.5223ZM63.6241 17.5223C63.6241 14.6745 61.253 12.7166 58.5004 12.7166C55.7477 12.7166 53.3766 14.6745 53.3766 17.5223C53.3766 20.3463 55.7477 22.3279 58.5004 22.3279C61.2667 22.3279 63.6241 20.3344 63.6241 17.5223Z" fill="#5A7184"/>
<path d="M14.5669 21.9719C8.85714 21.9719 4.38747 17.9613 4.38747 12.9896C4.38747 8.01784 8.85714 4.00722 14.5669 4.00722C17.6466 4.00722 19.8951 5.06327 21.5576 6.41597L24.2966 4.03095C21.98 2.09684 18.8867 0.625488 14.5669 0.625488C6.74495 0.625488 0.163086 6.17865 0.163086 12.9896C0.163086 19.8005 6.74495 25.3537 14.5669 25.3537C18.7913 25.3537 21.98 24.1434 24.4737 21.8889C27.0356 19.6581 27.826 16.5256 27.826 13.9863C27.826 13.1913 27.717 12.3726 27.5943 11.7674H14.5669V15.0661H23.8469C23.5744 17.1307 22.8249 18.5427 21.7211 19.5039C20.3856 20.6786 18.2734 21.9719 14.5669 21.9719Z" fill="#5A7184"/>
</g>
<defs>
<clipPath id="clip0_406_1509">
<rect width="112" height="32" fill="white" transform="translate(0 0.576172)"/>
</clipPath>
</defs>
</svg>
