<svg width="60" height="61" viewBox="0 0 60 61" fill="none" xmlns="http://www.w3.org/2000/svg">
<path d="M30 0.576294C13.458 0.576294 0 14.0343 0 30.5763C0 47.1183 13.458 60.5763 30 60.5763C46.542 60.5763 60 47.1183 60 30.5763C60 14.0343 46.542 0.576294 30 0.576294ZM42.558 32.7963L30 45.3543L17.442 32.7963C16.666 32.0303 16.0499 31.1178 15.6294 30.1117C15.2088 29.1057 14.9923 28.0262 14.9923 26.9358C14.9923 25.8454 15.2088 24.7659 15.6294 23.7598C16.0499 22.7538 16.666 21.8413 17.442 21.0753C18.208 20.2998 19.1203 19.684 20.126 19.2638C21.1318 18.8435 22.211 18.6271 23.301 18.6271C24.391 18.6271 25.4702 18.8435 26.476 19.2638C27.4817 19.684 28.394 20.2998 29.16 21.0753L30 21.9123L30.837 21.0753C31.603 20.2998 32.5153 19.684 33.521 19.2638C34.5268 18.8435 35.606 18.6271 36.696 18.6271C37.786 18.6271 38.8652 18.8435 39.871 19.2638C40.8767 19.684 41.789 20.2998 42.555 21.0753C43.3312 21.8411 43.9475 22.7535 44.3683 23.7594C44.7891 24.7653 45.0059 25.8448 45.0062 26.9352C45.0065 28.0256 44.7902 29.1051 44.3699 30.1113C43.9497 31.1174 43.3338 32.0301 42.558 32.7963Z" fill="#3065F8"/>
</svg>
