<svg width="16" height="17" viewBox="0 0 16 17" fill="none" xmlns="http://www.w3.org/2000/svg">
<path d="M7.99967 2.25851C4.32367 2.25851 1.33301 5.24918 1.33301 8.92518C1.33301 12.6012 4.32367 15.5918 7.99967 15.5918C11.6757 15.5918 14.6663 12.6012 14.6663 8.92518C14.6663 5.24918 11.6757 2.25851 7.99967 2.25851ZM10.7903 9.41851L7.99967 12.2092L5.20901 9.41851C5.03657 9.24829 4.89965 9.04551 4.8062 8.82195C4.71275 8.59838 4.66463 8.35849 4.66463 8.11618C4.66463 7.87387 4.71275 7.63398 4.8062 7.41042C4.89965 7.18685 5.03657 6.98408 5.20901 6.81385C5.37922 6.64151 5.58196 6.50468 5.80546 6.41129C6.02896 6.3179 6.26878 6.26981 6.51101 6.26981C6.75324 6.26981 6.99305 6.3179 7.21655 6.41129C7.44005 6.50468 7.64279 6.64151 7.81301 6.81385L7.99967 6.99985L8.18567 6.81385C8.35589 6.64151 8.55863 6.50468 8.78213 6.41129C9.00563 6.3179 9.24545 6.26981 9.48767 6.26981C9.7299 6.26981 9.96972 6.3179 10.1932 6.41129C10.4167 6.50468 10.6195 6.64151 10.7897 6.81385C10.9622 6.98403 11.0991 7.18677 11.1926 7.41031C11.2861 7.63385 11.3343 7.87373 11.3344 8.11604C11.3344 8.35835 11.2864 8.59826 11.193 8.82184C11.0996 9.04543 10.9627 9.24824 10.7903 9.41851Z" fill="black"/>
</svg>
