<svg width="1440" height="599" viewBox="0 0 1440 599" fill="none" xmlns="http://www.w3.org/2000/svg">
<path d="M0 0H1440V423.532L1431.5 434.554L1430.04 436.436C1425.69 442.039 1420.91 447.3 1415.75 452.171V452.171L1408.5 458.766L1401.25 465.361L1392.5 472.679L1382.5 479.184L1371 486.412L1331 505.203L1273 525.079L1213.5 540.618C869 609.641 549.076 622.943 0 550.736V0Z" fill="#F8FBFF"/>
<mask id="mask0_379_5327" style="mask-type:alpha" maskUnits="userSpaceOnUse" x="0" y="0" width="1440" height="599">
<path d="M0 0H1440V429.504V532.94C1149.2 594.913 549.076 631.726 0 558.502V0Z" fill="#F1F6FC"/>
</mask>
<g mask="url(#mask0_379_5327)">
<ellipse cx="1182.68" cy="414.666" rx="380.236" ry="380.666" fill="#1A67D7"/>
</g>
</svg>
