<svg width="25" height="26" viewBox="0 0 25 26" fill="none" xmlns="http://www.w3.org/2000/svg">
<path d="M12.5 7C11.0074 7 10.8198 7.00688 10.2333 7.033C9.64688 7.0605 9.24744 7.15262 8.8975 7.28875C8.53044 7.42681 8.19796 7.64338 7.92331 7.92331C7.64355 8.1981 7.42701 8.53054 7.28875 8.8975C7.15262 9.24675 7.05981 9.64687 7.033 10.2312C7.00688 10.8191 7 11.0061 7 12.5007C7 13.9939 7.00688 14.1809 7.033 14.7674C7.0605 15.3531 7.15262 15.7526 7.28875 16.1025C7.42969 16.4641 7.61738 16.7707 7.92331 17.0767C8.22856 17.3826 8.53519 17.571 8.89681 17.7112C9.24744 17.8474 9.64619 17.9402 10.2319 17.967C10.8191 17.9931 11.0061 18 12.5 18C13.9939 18 14.1803 17.9931 14.7674 17.967C15.3524 17.9395 15.7533 17.8474 16.1032 17.7112C16.47 17.5731 16.8022 17.3566 17.0767 17.0767C17.3826 16.7707 17.5703 16.4641 17.7112 16.1025C17.8467 15.7526 17.9395 15.3531 17.967 14.7674C17.9931 14.1809 18 13.9939 18 12.5C18 11.0061 17.9931 10.8191 17.967 10.2319C17.9395 9.64688 17.8467 9.24675 17.7112 8.8975C17.573 8.53053 17.3565 8.19809 17.0767 7.92331C16.8021 7.64328 16.4696 7.42669 16.1025 7.28875C15.7519 7.15262 15.3517 7.05981 14.7667 7.033C14.1796 7.00688 13.9933 7 12.4986 7H12.5007H12.5ZM12.0071 7.99138H12.5007C13.9692 7.99138 14.1431 7.99619 14.7227 8.023C15.2589 8.04706 15.5504 8.13713 15.7443 8.21206C16.0007 8.31175 16.1843 8.43137 16.3768 8.62387C16.5693 8.81637 16.6883 8.99925 16.7879 9.25638C16.8636 9.44956 16.9529 9.74106 16.977 10.2773C17.0038 10.8569 17.0093 11.0308 17.0093 12.4986C17.0093 13.9664 17.0038 14.1411 16.977 14.7206C16.9529 15.2569 16.8629 15.5477 16.7879 15.7416C16.6998 15.9804 16.559 16.1963 16.3761 16.3734C16.1836 16.5659 16.0008 16.6848 15.7436 16.7845C15.5511 16.8601 15.2596 16.9495 14.7227 16.9743C14.1431 17.0004 13.9692 17.0066 12.5007 17.0066C11.0322 17.0066 10.8576 17.0004 10.278 16.9743C9.74175 16.9495 9.45094 16.8601 9.25706 16.7845C9.01816 16.6964 8.80202 16.556 8.62456 16.3734C8.44152 16.196 8.30056 15.9799 8.21206 15.7409C8.13713 15.5477 8.04706 15.2562 8.023 14.7199C7.99688 14.1404 7.99138 13.9664 7.99138 12.4972C7.99138 11.0287 7.99688 10.8555 8.023 10.2759C8.04775 9.73969 8.13713 9.44819 8.21275 9.25431C8.31244 8.99788 8.43206 8.81431 8.62456 8.62181C8.81706 8.42931 8.99994 8.31038 9.25706 8.21069C9.45094 8.13506 9.74175 8.04569 10.278 8.02094C10.7854 7.99756 10.982 7.99069 12.0071 7.99V7.99138V7.99138ZM15.4363 8.90437C15.3496 8.90437 15.2638 8.92145 15.1837 8.95461C15.1037 8.98778 15.0309 9.0364 14.9696 9.09768C14.9083 9.15897 14.8597 9.23173 14.8266 9.3118C14.7934 9.39188 14.7763 9.4777 14.7763 9.56438C14.7763 9.65105 14.7934 9.73687 14.8266 9.81695C14.8597 9.89702 14.9083 9.96978 14.9696 10.0311C15.0309 10.0924 15.1037 10.141 15.1837 10.1741C15.2638 10.2073 15.3496 10.2244 15.4363 10.2244C15.6114 10.2244 15.7792 10.1548 15.903 10.0311C16.0268 9.90729 16.0963 9.73942 16.0963 9.56438C16.0963 9.38933 16.0268 9.22146 15.903 9.09768C15.7792 8.97391 15.6114 8.90437 15.4363 8.90437V8.90437ZM12.5007 9.67575C12.126 9.6699 11.754 9.73865 11.4062 9.87797C11.0584 10.0173 10.7417 10.2244 10.4747 10.4873C10.2077 10.7502 9.99569 11.0635 9.85095 11.4091C9.70622 11.7547 9.63168 12.1257 9.63168 12.5003C9.63168 12.875 9.70622 13.246 9.85095 13.5916C9.99569 13.9372 10.2077 14.2505 10.4747 14.5134C10.7417 14.7763 11.0584 14.9834 11.4062 15.1227C11.754 15.262 12.126 15.3308 12.5007 15.3249C13.2422 15.3134 13.9494 15.0107 14.4697 14.4822C14.9899 13.9538 15.2816 13.2419 15.2816 12.5003C15.2816 11.7588 14.9899 11.0469 14.4697 10.5185C13.9494 9.99 13.2422 9.68732 12.5007 9.67575V9.67575ZM12.5007 10.6664C12.987 10.6664 13.4534 10.8596 13.7972 11.2035C14.1411 11.5473 14.3343 12.0137 14.3343 12.5C14.3343 12.9863 14.1411 13.4527 13.7972 13.7965C13.4534 14.1404 12.987 14.3336 12.5007 14.3336C12.0144 14.3336 11.548 14.1404 11.2042 13.7965C10.8603 13.4527 10.6671 12.9863 10.6671 12.5C10.6671 12.0137 10.8603 11.5473 11.2042 11.2035C11.548 10.8596 12.0144 10.6664 12.5007 10.6664V10.6664Z" fill="#5A7184"/>
<circle cx="12.5" cy="13.4252" r="12.5" fill="#C4C4C4" fill-opacity="0.39"/>
</svg>
