<svg width="25" height="26" viewBox="0 0 25 26" fill="none" xmlns="http://www.w3.org/2000/svg">
<path d="M9.1566 7.92792C7.97171 7.92792 7.00195 8.89766 7.00195 10.0826V16.7688C7.00195 17.9537 7.97169 18.9231 9.1566 18.9231H15.8429C17.0278 18.9231 17.9971 17.9537 17.9971 16.7688V10.0826C17.9971 8.89768 17.0278 7.92792 15.8429 7.92792H9.1566ZM9.69853 9.74235C10.2667 9.74235 10.6166 10.1153 10.6274 10.6056C10.6274 11.085 10.2666 11.4685 9.68754 11.4685H9.67688C9.11956 11.4685 8.75935 11.085 8.75935 10.6056C8.75935 10.1153 9.13046 9.74235 9.69852 9.74235H9.69853ZM14.5944 12.0338C15.687 12.0338 16.5061 12.7479 16.5061 14.2826V17.1475H14.8456V14.4746C14.8456 13.803 14.6053 13.3447 14.0044 13.3447C13.5456 13.3447 13.2722 13.6536 13.1521 13.952C13.1083 14.0587 13.0975 14.2078 13.0975 14.3571V17.1475H11.437C11.437 17.1475 11.4588 12.6197 11.437 12.1509H13.0978V12.8585C13.3185 12.518 13.7132 12.0337 14.5944 12.0337V12.0338ZM8.85729 12.1513H10.5178V17.1475H8.85729V12.1513V12.1513Z" fill="#5A7184"/>
<circle cx="12.5" cy="13.4252" r="12.5" fill="#C4C4C4" fill-opacity="0.39"/>
</svg>
