<svg width="220" height="41" viewBox="0 0 220 41" fill="none" xmlns="http://www.w3.org/2000/svg">
<path d="M25.4995 33.4273C25.9964 33.4273 26.4697 33.3081 26.9193 33.046L32.1019 30.0434C33.1432 29.4476 34.3501 29.1855 35.557 29.3285C41.8518 30.0672 46.2534 31.2587 47.555 31.64C47.8153 31.7115 48.1229 31.6162 48.2886 31.4017C48.5016 31.1396 48.7619 30.7106 48.9749 30.091C49.1642 29.4953 49.1879 28.9948 49.1642 28.6374C49.1405 28.3514 48.9512 28.0893 48.6672 28.0178C46.6321 27.422 37.6158 24.9675 25.4995 24.9675C13.3831 24.9675 4.36685 27.422 2.33168 28.0178C2.0477 28.0893 1.85839 28.3514 1.83472 28.6374C1.81106 28.971 1.83472 29.4714 2.02404 30.091C2.21336 30.7106 2.49733 31.1396 2.71032 31.4017C2.87597 31.6162 3.18361 31.7115 3.44392 31.64C4.74548 31.2587 9.17079 30.0672 15.4419 29.3285C16.6488 29.1855 17.8557 29.4476 18.897 30.0434L24.0796 33.046C24.5292 33.3081 25.0262 33.4273 25.4995 33.4273Z" fill="#0770E3"/>
<path d="M16.8622 16.5316C17.1462 17.0321 17.5958 17.3657 18.1165 17.5087C18.6371 17.6517 19.1814 17.5802 19.6783 17.2942C20.1753 17.0082 20.5066 16.5555 20.6486 16.0312C20.7906 15.5069 20.7196 14.9588 20.4356 14.4584L15.7737 6.3323C15.6317 6.07017 15.324 5.97485 15.0401 5.99868C14.6614 6.02251 14.1408 6.21315 13.5255 6.5706C12.9102 6.92805 12.4843 7.28551 12.2713 7.5953C12.1056 7.8336 12.0583 8.1434 12.2003 8.40553L16.8622 16.5316Z" fill="#0770E3"/>
<path d="M12.6022 22.3462C13.0992 22.6322 13.6671 22.6798 14.1641 22.5607C14.6847 22.4177 15.1343 22.0841 15.4183 21.5836C15.7023 21.0832 15.7496 20.5113 15.6313 20.0108C15.513 19.5104 15.158 19.0338 14.661 18.7478L6.59135 14.0533C6.33104 13.9103 6.0234 13.958 5.78675 14.1248C5.47911 14.3393 5.12414 14.7682 4.76917 15.3878C4.4142 16.0074 4.22488 16.5316 4.20121 16.9129C4.17755 17.2227 4.29587 17.5087 4.53252 17.6517L12.6022 22.3462Z" fill="#0770E3"/>
<path d="M27.5581 13.6482C27.5581 14.2201 27.3214 14.7444 26.9665 15.1256C26.5878 15.5069 26.0909 15.7214 25.4993 15.7214C24.9313 15.7214 24.4107 15.4831 24.032 15.1256C23.6534 14.7444 23.4404 14.2439 23.4404 13.6482V4.28289C23.4404 3.9731 23.6297 3.7348 23.9137 3.61565C24.245 3.44884 24.7893 3.35352 25.4993 3.35352C26.2092 3.35352 26.7535 3.44884 27.0848 3.61565C27.3451 3.75863 27.5581 3.9731 27.5581 4.28289V13.6482Z" fill="#0770E3"/>
<path d="M34.1366 16.5316C33.8527 17.0321 33.403 17.3657 32.8824 17.5087C32.3618 17.6517 31.8175 17.5802 31.3205 17.2942C30.8236 17.0082 30.4923 16.5555 30.3503 16.0312C30.2083 15.5069 30.2793 14.9588 30.5633 14.4584L35.2252 6.3323C35.3672 6.07017 35.6749 5.97485 35.9588 5.99868C36.3375 6.02251 36.8581 6.21315 37.4734 6.5706C38.0887 6.92805 38.5146 7.28551 38.7276 7.5953C38.8933 7.8336 38.9406 8.1434 38.7986 8.40553L34.1366 16.5316Z" fill="#0770E3"/>
<path d="M38.3972 22.3462C37.9002 22.6322 37.3323 22.6798 36.8353 22.5607C36.3147 22.4177 35.8651 22.0841 35.5811 21.5836C35.2971 21.0832 35.2498 20.5113 35.3681 20.0108C35.5101 19.4866 35.8414 19.0338 36.3383 18.7478L44.408 14.0533C44.6683 13.9103 44.976 13.958 45.2126 14.1248C45.5203 14.3393 45.8752 14.7682 46.2302 15.3878C46.5852 16.0074 46.7745 16.5316 46.7982 16.9129C46.8218 17.2227 46.7035 17.5087 46.4669 17.6517L38.3972 22.3462Z" fill="#0770E3"/>
<path d="M89.8674 15.8882H93.7484C93.8904 15.8882 94.0087 15.9835 94.0797 16.1027L97.937 26.0637L101.676 16.1027C101.723 15.9597 101.865 15.8882 102.007 15.8882H105.817C106.078 15.8882 106.243 16.1503 106.125 16.3648L96.6591 38.241C96.6118 38.3601 96.4698 38.4554 96.3515 38.4554H92.9911C92.7545 38.4554 92.5652 38.1933 92.6835 37.9788L95.9255 30.3293L89.5834 16.3648C89.4414 16.1503 89.6071 15.8882 89.8674 15.8882Z" fill="#0770E3"/>
<path d="M147.16 18.1044V16.2457C147.16 16.055 147.326 15.8882 147.515 15.8882H150.946C151.136 15.8882 151.301 16.055 151.301 16.2457V31.0919C151.301 31.2825 151.136 31.4494 150.946 31.4494H147.515C147.326 31.4494 147.16 31.2825 147.16 31.0919V29.1378C146.426 30.2817 144.817 31.783 142.19 31.783C137.173 31.783 134.57 27.9225 134.57 23.6092C134.57 17.9853 138.451 15.5784 142.072 15.5784C144.462 15.5546 146.119 16.6984 147.16 18.1044ZM138.712 23.633C138.712 26.302 140.345 28.3514 142.971 28.3514C145.598 28.3514 147.278 26.5642 147.278 23.8237C147.278 21.0832 145.645 18.9861 142.853 18.9861C140.226 18.9861 138.712 21.0355 138.712 23.633Z" fill="#0770E3"/>
<path d="M154.401 31.0919V16.2457C154.401 16.055 154.567 15.8882 154.756 15.8882H158.188C158.377 15.8882 158.543 16.055 158.543 16.2457V18.2712C159.347 16.8653 160.862 15.5784 163.441 15.5784C166.092 15.5784 169.05 16.8891 169.05 22.9181V31.0919C169.05 31.2825 168.884 31.4494 168.695 31.4494H165.263C165.074 31.4494 164.908 31.2825 164.908 31.0919V22.9896C164.908 21.536 164.554 19.0338 161.998 19.0338C159.442 19.0338 158.543 21.2977 158.543 23.3947V31.0919C158.543 31.2825 158.377 31.4494 158.188 31.4494H154.756C154.543 31.4255 154.401 31.2825 154.401 31.0919Z" fill="#0770E3"/>
<path d="M171.984 31.0919V16.2457C171.984 16.055 172.15 15.8882 172.339 15.8882H175.771C175.96 15.8882 176.126 16.055 176.126 16.2457V18.2712C176.93 16.8653 178.445 15.5784 181.024 15.5784C183.675 15.5784 186.633 16.8891 186.633 22.9181V31.0919C186.633 31.2825 186.467 31.4494 186.278 31.4494H182.846C182.657 31.4494 182.491 31.2825 182.491 31.0919V22.9896C182.491 21.536 182.137 19.0338 179.581 19.0338C177.025 19.0338 176.126 21.2977 176.126 23.3947V31.0919C176.126 31.2825 175.96 31.4494 175.771 31.4494H172.339C172.15 31.4255 171.984 31.2825 171.984 31.0919Z" fill="#0770E3"/>
<path d="M208.026 15.8882H211.363C211.552 15.8882 211.718 16.055 211.718 16.2457V19.3198C212.38 16.2695 214.984 15.221 216.877 15.6738C217.042 15.6976 217.137 15.8406 217.137 16.0074V19.3913C217.137 19.6057 216.948 19.7726 216.711 19.7249C213.209 19.0338 211.789 20.9402 211.789 23.6092C211.789 25.5156 211.789 29.8289 211.789 31.0919C211.789 31.2826 211.623 31.4494 211.434 31.4494H208.002C207.813 31.4494 207.647 31.2826 207.647 31.0919V16.2457C207.671 16.055 207.837 15.8882 208.026 15.8882Z" fill="#0770E3"/>
<path d="M67.1259 19.2721C66.061 18.9147 65.493 18.7002 64.6411 18.4142C63.7655 18.1044 62.2746 17.2465 62.2746 15.8644C62.2746 14.4822 63.2212 13.6005 65.1381 13.6005C66.8893 13.6005 67.8595 14.4584 68.4984 15.8406C68.5931 16.0312 68.8061 16.1027 68.9954 16.0074L71.8115 14.3631C71.9535 14.2678 72.0245 14.0771 71.9535 13.9103C71.1016 12.0277 69.1137 9.76385 65.1854 9.76385C60.8074 9.76385 58.0623 12.3852 58.0623 15.8406C58.0623 19.2721 60.3105 21.0594 63.3632 22.1079C64.4754 22.4892 64.9251 22.656 65.8717 22.9658C67.6702 23.5854 68.4984 24.3956 68.4984 25.5156C68.4984 26.6357 67.7885 27.9701 64.9961 27.9701C62.4403 27.9701 61.541 26.6118 61.0204 25.325C60.9494 25.1343 60.7128 25.039 60.5234 25.1582L57.5653 26.874C57.4234 26.9693 57.3524 27.1361 57.4234 27.3029C58.5593 30.1149 61.6593 31.783 65.1381 31.783C69.2321 31.783 72.6871 29.6859 72.6871 25.4441C72.6871 21.2024 68.1908 19.6296 67.1259 19.2721Z" fill="#0770E3"/>
<path d="M89.7253 27.3744C89.6306 27.2076 89.394 27.1361 89.2283 27.2552C87.9031 28.2323 86.3412 28.2561 85.158 26.4212C84.1641 24.8722 82.9572 22.9658 82.9572 22.9658L88.1634 16.4601C88.3527 16.2218 88.1871 15.8882 87.9031 15.8882H83.8328C83.7144 15.8882 83.6198 15.9359 83.5488 16.0312L79.0525 22.2509V9.74002C79.0525 9.54938 78.8868 9.38257 78.6975 9.38257H75.2661C75.0768 9.38257 74.9111 9.54938 74.9111 9.74002V31.0919C74.9111 31.2825 75.0768 31.4494 75.2661 31.4494H78.7212C78.9105 31.4494 79.0761 31.2825 79.0761 31.0919V24.1573C79.0761 24.1573 81.3716 27.8033 82.2472 29.1617C83.4304 31.0204 85.087 31.783 86.8855 31.783C88.5894 31.783 89.6779 31.3302 90.9795 30.0434C91.0978 29.9242 91.1215 29.7574 91.0505 29.6144L89.7253 27.3744Z" fill="#0770E3"/>
<path d="M114.361 22.4654C113.272 22.0602 112.893 21.9173 112.065 21.6075C111.237 21.2977 110.503 20.8449 110.503 20.1777C110.503 19.5104 111.119 18.7717 112.373 18.7717C113.461 18.7717 114.124 19.2006 114.503 19.9632C114.597 20.1538 114.81 20.2015 114.976 20.1062L117.39 18.7002C117.555 18.6049 117.603 18.3904 117.508 18.2236C116.846 17.0559 115.544 15.5784 112.397 15.5784C108.539 15.5784 106.551 17.8185 106.551 20.2968C106.551 22.7752 108.563 23.9428 110.409 24.6816C112.491 25.5395 112.633 25.5871 112.893 25.6824C113.532 25.9446 114.313 26.3497 114.313 27.0884C114.313 27.8272 113.461 28.4944 112.16 28.4944C110.953 28.4944 109.58 27.994 109.012 26.588C108.941 26.3973 108.705 26.302 108.516 26.4212L106.078 27.8272C105.936 27.9225 105.865 28.0893 105.936 28.2561C106.646 30.1149 108.752 31.7591 112.16 31.7591C115.852 31.7591 118.313 29.7812 118.313 26.9931C118.313 24.205 116.42 23.2279 114.361 22.4654Z" fill="#0770E3"/>
<path d="M128.229 19.2721C129.767 19.2721 130.903 19.7487 131.968 20.5113C132.133 20.6304 132.37 20.5828 132.465 20.416L133.884 17.9376C133.979 17.7708 133.932 17.5802 133.766 17.4848C132.299 16.484 130.477 15.5546 128.016 15.5546C125.578 15.5546 123.33 16.2218 121.721 17.8661C120.112 19.4866 119.378 21.4168 119.378 23.7045C119.378 26.4688 120.514 28.2323 121.744 29.4714C122.975 30.7106 125.199 31.7591 128.039 31.7591C130.595 31.7591 132.488 30.6868 133.79 29.8289C133.932 29.7336 133.979 29.5191 133.884 29.3761L132.488 26.9216C132.394 26.7548 132.157 26.6833 131.991 26.8025C131.068 27.4697 129.743 28.0416 128.252 28.0416C126.572 28.0416 123.519 27.0884 123.519 23.6569C123.519 20.2253 126.548 19.2721 128.229 19.2721Z" fill="#0770E3"/>
<path d="M197.849 28.3276C196.477 28.3276 195.175 27.994 194.229 27.2314C193.282 26.4688 192.833 25.6824 192.833 24.7531H205.091C205.28 24.7531 205.446 24.5863 205.446 24.3956C205.375 20.7258 204.192 19.01 203.056 17.8423C201.872 16.6508 199.861 15.5546 197.21 15.5546C194.56 15.5546 192.525 16.5316 191.129 17.9138C189.756 19.2959 188.715 21.0594 188.715 23.7284C188.715 26.3973 189.78 28.1608 191.081 29.4714C192.383 30.7821 194.513 31.7591 197.565 31.7591C200.453 31.7591 202.89 30.7344 204.641 28.7089C204.783 28.5421 204.736 28.2799 204.547 28.1846L202.109 26.7548C201.991 26.6833 201.825 26.6833 201.707 26.8025C200.5 27.9463 198.962 28.3276 197.849 28.3276ZM197.187 18.8908C199.151 18.8908 200.95 20.0823 201.233 22.2271H192.974C193.519 19.9155 195.223 18.8908 197.187 18.8908Z" fill="#0770E3"/>
</svg>
