<svg width="24" height="25" viewBox="0 0 24 25" fill="none" xmlns="http://www.w3.org/2000/svg">
<path fill-rule="evenodd" clip-rule="evenodd" d="M24 0.576172H0V24.5762H24V0.576172ZM12.446 6.10617C12.4056 6.02221 12.3423 5.95137 12.2634 5.90179C12.1845 5.8522 12.0932 5.8259 12 5.8259C11.9068 5.8259 11.8155 5.8522 11.7366 5.90179C11.6577 5.95137 11.5944 6.02221 11.554 6.10617L9.776 9.74517C9.74063 9.818 9.68804 9.8811 9.62279 9.92902C9.55753 9.97694 9.48157 10.0082 9.4015 10.0202L5.4265 10.6037C5.0185 10.6637 4.8555 11.1702 5.151 11.4607L8.027 14.2932C8.1445 14.4087 8.198 14.5752 8.17 14.7382L7.491 18.7377C7.4215 19.1477 7.848 19.4612 8.213 19.2677L11.768 17.3792C11.8394 17.3412 11.9189 17.3214 11.9998 17.3214C12.0806 17.3214 12.1601 17.3412 12.2315 17.3792L15.7865 19.2672C16.1515 19.4612 16.5785 19.1482 16.509 18.7372L15.83 14.7382C15.8163 14.658 15.8221 14.5756 15.847 14.4982C15.8719 14.4207 15.9151 14.3504 15.973 14.2932L18.849 11.4607C19.1445 11.1702 18.9815 10.6632 18.5735 10.6037L14.5985 10.0202C14.5183 10.0083 14.4423 9.97705 14.3769 9.92913C14.3116 9.88121 14.2589 9.81806 14.2235 9.74517L12.446 6.10617V6.10617Z" fill="#36B37E"/>
</svg>
