<svg width="60" height="61" viewBox="0 0 60 61" fill="none" xmlns="http://www.w3.org/2000/svg">
<path d="M0 15.5763C0 7.29202 6.71573 0.576294 15 0.576294H45C53.2843 0.576294 60 7.29202 60 15.5763V45.5763C60 53.8606 53.2843 60.5763 45 60.5763H15C6.71573 60.5763 0 53.8606 0 45.5763V15.5763Z" fill="#F8FBFF"/>
<path d="M30 44.8263C23.9283 44.8263 18.8577 41.0738 16.7891 35.7716L18.9788 34.881C20.709 39.3151 24.9056 42.4513 30 42.4513C33.8499 42.4513 37.2829 40.5632 39.4264 37.7013H34.75V35.3263H43.0625V43.6388H40.6875V39.9647C39.3567 41.4914 37.7143 42.7153 35.8707 43.5539C34.0272 44.3926 32.0253 44.8264 30 44.8263ZM41.0212 26.2716C39.291 21.8375 35.0944 18.7013 30 18.7013C26.1086 18.7013 22.6898 20.6167 20.5368 23.4513H25.25V25.8263H16.9375V17.5138H19.3125V21.1879C21.9107 18.2429 25.7191 16.3263 30 16.3263C36.0717 16.3263 41.1423 20.0788 43.2109 25.381L41.0212 26.2716Z" fill="#3065F8"/>
</svg>
