<svg width="91" height="27" viewBox="0 0 91 27" fill="none" xmlns="http://www.w3.org/2000/svg">
<g clip-path="url(#clip0_406_1508)">
<path d="M5.23553 19.145C5.62009 19.985 6.1525 20.7031 6.83286 21.2995C7.51322 21.896 8.31924 22.3524 9.25093 22.6689C10.1827 22.9854 11.1958 23.1437 12.2903 23.1437C13.3552 23.1437 14.3534 22.9793 15.2852 22.6506C16.217 22.3219 17.0304 21.8594 17.7255 21.263C18.4206 20.6665 18.9604 19.9545 19.345 19.1268C19.7296 18.299 19.9218 17.374 19.9218 16.3515V0.576172H24.5805V26.138H19.9662V23.7644C18.9309 24.6651 17.7107 25.3589 16.3057 25.8459C14.9006 26.3327 13.3847 26.5762 11.7579 26.5762C10.1013 26.5762 8.55585 26.3388 7.1212 25.8641C5.68665 25.3894 4.44423 24.7139 3.39424 23.8374C2.34425 22.961 1.51594 21.9082 0.909601 20.6787C0.303168 19.4493 0 18.08 0 16.5705V0.576172H4.65875V16.3515C4.65875 17.374 4.85098 18.3051 5.23553 19.145Z" fill="#5A7184"/>
<path d="M32.6111 0.576172V9.88796C33.6464 9.03591 34.8444 8.36041 36.2051 7.8613C37.5657 7.36219 39.0447 7.11267 40.6419 7.11267C42.2985 7.11267 43.8512 7.36825 45.3007 7.87948C46.7501 8.39071 48.0071 9.08455 49.072 9.961C50.1369 10.8375 50.98 11.872 51.6011 13.0649C52.2223 14.2579 52.5328 15.5238 52.5328 16.8627C52.5328 18.2016 52.2223 19.4615 51.6011 20.6421C50.98 21.8229 50.1369 22.8515 49.072 23.7278C48.0071 24.6042 46.7501 25.2981 45.3007 25.8093C43.8512 26.3205 42.2984 26.5761 40.6419 26.5761C39.0446 26.5761 37.5583 26.3266 36.1829 25.8275C34.8074 25.3284 33.602 24.6529 32.5668 23.8008V26.1379H28.1299V0.576172H32.6111ZM33.1213 19.3824C33.5206 20.1614 34.0753 20.8431 34.7852 21.4274C35.4951 22.0116 36.3234 22.4742 37.2699 22.815C38.2165 23.1559 39.2369 23.3263 40.3314 23.3263C41.3963 23.3263 42.4019 23.1559 43.3485 22.815C44.295 22.4742 45.1157 22.0117 45.811 21.4274C46.5061 20.8432 47.0607 20.1614 47.4748 19.3824C47.8889 18.6033 48.096 17.7635 48.096 16.8627C48.096 15.962 47.8889 15.116 47.4748 14.3248C47.0607 13.5335 46.5061 12.8458 45.811 12.2616C45.1158 11.6774 44.2951 11.2209 43.3485 10.8922C42.4018 10.5636 41.3962 10.3992 40.3314 10.3992C39.2666 10.3992 38.2609 10.5635 37.3144 10.8922C36.3678 11.2209 35.5396 11.6774 34.8296 12.2616C34.1198 12.8458 33.5577 13.5335 33.1436 14.3248C32.7295 15.116 32.5225 15.962 32.5225 16.8627C32.5224 17.7635 32.7221 18.6033 33.1213 19.3824Z" fill="#5A7184"/>
<path d="M55.061 13.1016C55.6526 11.933 56.4661 10.9045 57.5013 10.0159C58.5365 9.12735 59.7642 8.42745 61.184 7.91622C62.6038 7.40499 64.1419 7.14941 65.7984 7.14941C67.4252 7.14941 68.9338 7.39287 70.3241 7.8797C71.7143 8.3666 72.9122 9.04218 73.9179 9.90643C74.9236 10.7706 75.7076 11.7931 76.2694 12.9738C76.8315 14.1546 77.1125 15.4387 77.1125 16.8264V18.0315H58.6994C58.8473 18.7862 59.1431 19.4861 59.5868 20.1311C60.0305 20.7762 60.585 21.3362 61.2506 21.8109C61.9161 22.2857 62.6704 22.657 63.5134 22.9247C64.3565 23.1924 65.2511 23.3264 66.1977 23.3264C68.8895 23.3264 71.0636 22.4134 72.7201 20.5876L75.959 22.5594C74.835 23.801 73.4448 24.7748 71.7884 25.4808C70.1319 26.1868 68.2684 26.5398 66.1978 26.5398C64.5118 26.5398 62.9367 26.2962 61.4725 25.8094C60.0083 25.3226 58.7365 24.6409 57.6568 23.7644C56.5772 22.888 55.7268 21.8594 55.1056 20.6788C54.4845 19.4981 54.1738 18.2139 54.1738 16.8263C54.1736 15.5117 54.4695 14.2701 55.061 13.1016ZM61.2949 11.6591C60.0378 12.5233 59.2022 13.6736 58.7881 15.11H72.5869C72.2024 13.6736 71.3815 12.5233 70.1244 11.6591C68.8672 10.7949 67.3957 10.3628 65.7097 10.3628C64.0236 10.3628 62.5521 10.7949 61.2949 11.6591Z" fill="#5A7184"/>
<path d="M85.4978 12.0789C84.5513 12.9309 84.078 14.0873 84.078 15.548V26.138H79.5967V7.51433H84.0335V9.81491C84.5956 9.06022 85.3277 8.46375 86.2298 8.02556C87.132 7.5873 88.2043 7.36816 89.4467 7.36816H90.9995V10.8008H89.1361C87.6571 10.8008 86.4444 11.2268 85.4978 12.0789Z" fill="#5A7184"/>
</g>
<defs>
<clipPath id="clip0_406_1508">
<rect width="91" height="26" fill="white" transform="translate(0 0.576172)"/>
</clipPath>
</defs>
</svg>
