<svg width="14" height="13" viewBox="0 0 14 13" fill="none" xmlns="http://www.w3.org/2000/svg">
<path opacity="0.15" fill-rule="evenodd" clip-rule="evenodd" d="M6.80859 13C10.3984 13 13.3086 10.0899 13.3086 6.5C13.3086 2.91015 10.3984 0 6.80859 0C3.21874 0 0.308594 2.91015 0.308594 6.5C0.308594 10.0899 3.21874 13 6.80859 13Z" fill="#36B37E"/>
<path d="M5.94043 8.57144L4.17367 6.81526C4.12429 6.76589 4.09961 6.70242 4.09961 6.62483C4.09961 6.54725 4.12429 6.48377 4.17367 6.4344L4.5651 6.05355C4.61447 5.99712 4.67619 5.96891 4.75024 5.96891C4.8243 5.96891 4.88954 5.99712 4.94596 6.05355L6.13085 7.23844L8.66991 4.69938C8.72633 4.64296 8.79157 4.61475 8.86563 4.61475C8.93969 4.61475 9.0014 4.64296 9.05077 4.69938L9.44221 5.08024C9.49158 5.12961 9.51626 5.19309 9.51626 5.27067C9.51626 5.34825 9.49158 5.41173 9.44221 5.4611L6.32128 8.57144C6.27191 8.62787 6.20844 8.65608 6.13085 8.65608C6.05327 8.65608 5.9898 8.62787 5.94043 8.57144Z" fill="#36B37E"/>
</svg>
