<svg width="17" height="18" viewBox="0 0 17 18" fill="none" xmlns="http://www.w3.org/2000/svg">
<path opacity="0.15" fill-rule="evenodd" clip-rule="evenodd" d="M8.18914 17.5763C12.7119 17.5763 16.3783 13.8488 16.3783 9.25075C16.3783 4.65266 12.7119 0.925171 8.18914 0.925171C3.6664 0.925171 0 4.65266 0 9.25075C0 13.8488 3.6664 17.5763 8.18914 17.5763Z" fill="#36B37E"/>
<path d="M7.09653 11.904L4.87064 9.65455C4.80844 9.59131 4.77734 9.51001 4.77734 9.41064C4.77734 9.31126 4.80844 9.22996 4.87064 9.16672L5.3638 8.6789C5.426 8.60663 5.50376 8.57049 5.59706 8.57049C5.69036 8.57049 5.77255 8.60663 5.84364 8.6789L7.33644 10.1966L10.5353 6.9444C10.6064 6.87213 10.6886 6.836 10.7819 6.836C10.8752 6.836 10.953 6.87213 11.0152 6.9444L11.5083 7.43223C11.5705 7.49547 11.6016 7.57677 11.6016 7.67614C11.6016 7.77552 11.5705 7.85682 11.5083 7.92006L7.57636 11.904C7.51416 11.9762 7.43419 12.0124 7.33644 12.0124C7.2387 12.0124 7.15873 11.9762 7.09653 11.904Z" fill="#36B37E"/>
</svg>
