<svg width="1440" height="1024" viewBox="0 0 1440 1024" fill="none" xmlns="http://www.w3.org/2000/svg">
<g filter="url(#filter0_b_601_1621)">
<rect width="1440" height="1024" fill="white" fill-opacity="0.02"/>
<path d="M427.342 461H421.005V448.06H409.131V461H402.773V431.018H409.131V442.769H421.005V431.018H427.342V461ZM455.273 449.495C455.273 451.409 455.014 453.104 454.494 454.581C453.988 456.058 453.243 457.309 452.259 458.334C451.288 459.346 450.112 460.111 448.731 460.631C447.364 461.15 445.819 461.41 444.097 461.41C442.483 461.41 441 461.15 439.646 460.631C438.307 460.111 437.138 459.346 436.14 458.334C435.155 457.309 434.39 456.058 433.843 454.581C433.31 453.104 433.043 451.409 433.043 449.495C433.043 446.952 433.494 444.799 434.396 443.035C435.299 441.271 436.584 439.932 438.252 439.016C439.92 438.1 441.909 437.642 444.22 437.642C446.366 437.642 448.267 438.1 449.921 439.016C451.589 439.932 452.895 441.271 453.838 443.035C454.795 444.799 455.273 446.952 455.273 449.495ZM439.421 449.495C439.421 450.999 439.585 452.264 439.913 453.289C440.241 454.314 440.754 455.087 441.451 455.606C442.148 456.126 443.058 456.386 444.179 456.386C445.286 456.386 446.182 456.126 446.865 455.606C447.562 455.087 448.068 454.314 448.383 453.289C448.711 452.264 448.875 450.999 448.875 449.495C448.875 447.978 448.711 446.72 448.383 445.722C448.068 444.71 447.562 443.951 446.865 443.445C446.168 442.939 445.259 442.687 444.138 442.687C442.483 442.687 441.28 443.254 440.528 444.389C439.79 445.523 439.421 447.226 439.421 449.495ZM479.288 461L477.524 452.981C477.429 452.503 477.271 451.799 477.053 450.869C476.834 449.926 476.595 448.921 476.335 447.854C476.089 446.774 475.856 445.776 475.638 444.86C475.433 443.944 475.282 443.274 475.187 442.851H475.002C474.906 443.274 474.756 443.944 474.551 444.86C474.346 445.776 474.113 446.774 473.854 447.854C473.607 448.935 473.375 449.953 473.156 450.91C472.938 451.854 472.773 452.571 472.664 453.063L470.818 461H464.092L457.57 438.072H463.805L466.45 448.224C466.628 448.935 466.799 449.782 466.963 450.767C467.127 451.737 467.271 452.681 467.394 453.597C467.53 454.499 467.633 455.217 467.701 455.75H467.865C467.893 455.354 467.947 454.827 468.029 454.171C468.125 453.515 468.228 452.838 468.337 452.141C468.46 451.43 468.569 450.794 468.665 450.233C468.774 449.659 468.856 449.27 468.911 449.064L471.741 438.072H478.632L481.318 449.064C481.414 449.461 481.537 450.09 481.688 450.951C481.852 451.812 481.995 452.701 482.118 453.617C482.241 454.52 482.31 455.23 482.323 455.75H482.487C482.542 455.285 482.638 454.595 482.774 453.679C482.911 452.763 483.068 451.806 483.246 450.808C483.438 449.796 483.629 448.935 483.82 448.224L486.568 438.072H492.7L486.097 461H479.288ZM516.981 456.427C517.665 456.427 518.328 456.358 518.971 456.222C519.627 456.085 520.276 455.914 520.919 455.709V460.364C520.249 460.665 519.415 460.911 518.417 461.103C517.433 461.308 516.353 461.41 515.177 461.41C513.81 461.41 512.579 461.191 511.485 460.754C510.405 460.303 509.551 459.53 508.922 458.437C508.307 457.329 507.999 455.791 507.999 453.822V442.769H505.005V440.123L508.45 438.031L510.255 433.191H514.254V438.072H520.673V442.769H514.254V453.822C514.254 454.697 514.5 455.354 514.992 455.791C515.498 456.215 516.161 456.427 516.981 456.427ZM546.41 449.495C546.41 451.409 546.15 453.104 545.631 454.581C545.125 456.058 544.38 457.309 543.396 458.334C542.425 459.346 541.249 460.111 539.868 460.631C538.501 461.15 536.956 461.41 535.233 461.41C533.62 461.41 532.137 461.15 530.783 460.631C529.443 460.111 528.274 459.346 527.276 458.334C526.292 457.309 525.526 456.058 524.979 454.581C524.446 453.104 524.18 451.409 524.18 449.495C524.18 446.952 524.631 444.799 525.533 443.035C526.436 441.271 527.721 439.932 529.389 439.016C531.057 438.1 533.046 437.642 535.356 437.642C537.503 437.642 539.403 438.1 541.058 439.016C542.726 439.932 544.031 441.271 544.975 443.035C545.932 444.799 546.41 446.952 546.41 449.495ZM530.558 449.495C530.558 450.999 530.722 452.264 531.05 453.289C531.378 454.314 531.891 455.087 532.588 455.606C533.285 456.126 534.194 456.386 535.315 456.386C536.423 456.386 537.318 456.126 538.002 455.606C538.699 455.087 539.205 454.314 539.52 453.289C539.848 452.264 540.012 450.999 540.012 449.495C540.012 447.978 539.848 446.72 539.52 445.722C539.205 444.71 538.699 443.951 538.002 443.445C537.305 442.939 536.396 442.687 535.274 442.687C533.62 442.687 532.417 443.254 531.665 444.389C530.927 445.523 530.558 447.226 530.558 449.495ZM581.335 461L579.571 452.981C579.476 452.503 579.318 451.799 579.1 450.869C578.881 449.926 578.642 448.921 578.382 447.854C578.136 446.774 577.903 445.776 577.685 444.86C577.479 443.944 577.329 443.274 577.233 442.851H577.049C576.953 443.274 576.803 443.944 576.598 444.86C576.393 445.776 576.16 446.774 575.9 447.854C575.654 448.935 575.422 449.953 575.203 450.91C574.984 451.854 574.82 452.571 574.711 453.063L572.865 461H566.139L559.617 438.072H565.852L568.497 448.224C568.675 448.935 568.846 449.782 569.01 450.767C569.174 451.737 569.317 452.681 569.44 453.597C569.577 454.499 569.68 455.217 569.748 455.75H569.912C569.939 455.354 569.994 454.827 570.076 454.171C570.172 453.515 570.274 452.838 570.384 452.141C570.507 451.43 570.616 450.794 570.712 450.233C570.821 449.659 570.903 449.27 570.958 449.064L573.788 438.072H580.679L583.365 449.064C583.461 449.461 583.584 450.09 583.734 450.951C583.898 451.812 584.042 452.701 584.165 453.617C584.288 454.52 584.356 455.23 584.37 455.75H584.534C584.589 455.285 584.685 454.595 584.821 453.679C584.958 452.763 585.115 451.806 585.293 450.808C585.484 449.796 585.676 448.935 585.867 448.224L588.615 438.072H594.747L588.144 461H581.335ZM604.714 438.072V461H598.459V438.072H604.714ZM601.597 429.09C602.526 429.09 603.326 429.309 603.996 429.746C604.666 430.17 605.001 430.97 605.001 432.146C605.001 433.308 604.666 434.114 603.996 434.565C603.326 435.003 602.526 435.222 601.597 435.222C600.653 435.222 599.847 435.003 599.177 434.565C598.521 434.114 598.192 433.308 598.192 432.146C598.192 430.97 598.521 430.17 599.177 429.746C599.847 429.309 600.653 429.09 601.597 429.09ZM624.319 437.642C626.767 437.642 628.735 438.312 630.226 439.651C631.716 440.978 632.461 443.11 632.461 446.05V461H626.206V447.608C626.206 445.968 625.905 444.73 625.304 443.896C624.716 443.062 623.786 442.646 622.515 442.646C620.601 442.646 619.295 443.295 618.598 444.594C617.9 445.893 617.552 447.766 617.552 450.213V461H611.297V438.072H616.075L616.916 441.005H617.265C617.757 440.212 618.365 439.569 619.09 439.077C619.828 438.585 620.642 438.223 621.53 437.99C622.433 437.758 623.362 437.642 624.319 437.642ZM659.039 431.018C661.76 431.018 664.002 431.346 665.766 432.002C667.543 432.658 668.862 433.649 669.724 434.976C670.585 436.302 671.016 437.977 671.016 440C671.016 441.367 670.756 442.563 670.236 443.589C669.717 444.614 669.033 445.482 668.186 446.193C667.338 446.904 666.422 447.485 665.438 447.937L674.256 461H667.201L660.044 449.495H656.66V461H650.303V431.018H659.039ZM658.588 436.227H656.66V444.327H658.711C660.816 444.327 662.32 443.979 663.223 443.281C664.139 442.57 664.597 441.531 664.597 440.164C664.597 438.742 664.104 437.73 663.12 437.129C662.149 436.527 660.639 436.227 658.588 436.227ZM686.848 441.846C688.68 441.846 690.307 442.194 691.729 442.892C693.164 443.589 694.292 444.614 695.112 445.968C695.933 447.321 696.343 448.989 696.343 450.972C696.343 453.132 695.892 454.998 694.989 456.57C694.101 458.129 692.768 459.325 690.99 460.159C689.227 460.993 687.025 461.41 684.387 461.41C682.814 461.41 681.331 461.273 679.937 461C678.556 460.74 677.346 460.337 676.307 459.79V454.314C677.346 454.861 678.59 455.326 680.039 455.709C681.502 456.078 682.876 456.263 684.161 456.263C685.419 456.263 686.479 456.099 687.34 455.771C688.201 455.429 688.851 454.909 689.288 454.212C689.739 453.501 689.965 452.599 689.965 451.505C689.965 450.042 689.473 448.921 688.488 448.142C687.504 447.362 685.993 446.973 683.956 446.973C683.177 446.973 682.363 447.048 681.516 447.198C680.682 447.349 679.984 447.499 679.424 447.649L676.901 446.296L678.029 431.018H694.292V436.391H683.587L683.033 442.276C683.498 442.181 684.004 442.085 684.551 441.989C685.098 441.894 685.863 441.846 686.848 441.846ZM720.768 446.009C720.768 448.429 720.576 450.589 720.193 452.489C719.824 454.39 719.223 456.003 718.389 457.329C717.568 458.655 716.488 459.667 715.148 460.364C713.809 461.062 712.182 461.41 710.268 461.41C707.861 461.41 705.886 460.802 704.341 459.585C702.796 458.354 701.654 456.591 700.916 454.294C700.178 451.983 699.809 449.222 699.809 446.009C699.809 442.769 700.144 440 700.813 437.703C701.497 435.393 702.604 433.622 704.136 432.392C705.667 431.161 707.711 430.546 710.268 430.546C712.66 430.546 714.629 431.161 716.174 432.392C717.732 433.608 718.888 435.372 719.64 437.683C720.392 439.979 720.768 442.755 720.768 446.009ZM706.104 446.009C706.104 448.292 706.228 450.199 706.474 451.73C706.733 453.248 707.164 454.39 707.766 455.155C708.367 455.921 709.201 456.304 710.268 456.304C711.32 456.304 712.147 455.928 712.749 455.176C713.364 454.41 713.802 453.269 714.062 451.751C714.321 450.22 714.451 448.306 714.451 446.009C714.451 443.726 714.321 441.818 714.062 440.287C713.802 438.756 713.364 437.607 712.749 436.842C712.147 436.062 711.32 435.673 710.268 435.673C709.201 435.673 708.367 436.062 707.766 436.842C707.164 437.607 706.733 438.756 706.474 440.287C706.228 441.818 706.104 443.726 706.104 446.009ZM744.803 446.009C744.803 448.429 744.611 450.589 744.229 452.489C743.859 454.39 743.258 456.003 742.424 457.329C741.604 458.655 740.523 459.667 739.184 460.364C737.844 461.062 736.217 461.41 734.303 461.41C731.896 461.41 729.921 460.802 728.376 459.585C726.831 458.354 725.689 456.591 724.951 454.294C724.213 451.983 723.844 449.222 723.844 446.009C723.844 442.769 724.179 440 724.849 437.703C725.532 435.393 726.64 433.622 728.171 432.392C729.702 431.161 731.746 430.546 734.303 430.546C736.695 430.546 738.664 431.161 740.209 432.392C741.768 433.608 742.923 435.372 743.675 437.683C744.427 439.979 744.803 442.755 744.803 446.009ZM730.14 446.009C730.14 448.292 730.263 450.199 730.509 451.73C730.769 453.248 731.199 454.39 731.801 455.155C732.402 455.921 733.236 456.304 734.303 456.304C735.355 456.304 736.183 455.928 736.784 455.176C737.399 454.41 737.837 453.269 738.097 451.751C738.356 450.22 738.486 448.306 738.486 446.009C738.486 443.726 738.356 441.818 738.097 440.287C737.837 438.756 737.399 437.607 736.784 436.842C736.183 436.062 735.355 435.673 734.303 435.673C733.236 435.673 732.402 436.062 731.801 436.842C731.199 437.607 730.769 438.756 730.509 440.287C730.263 441.818 730.14 443.726 730.14 446.009ZM766.808 438.072V461H760.553V438.072H766.808ZM763.69 429.09C764.62 429.09 765.42 429.309 766.09 429.746C766.76 430.17 767.095 430.97 767.095 432.146C767.095 433.308 766.76 434.114 766.09 434.565C765.42 435.003 764.62 435.222 763.69 435.222C762.747 435.222 761.94 435.003 761.271 434.565C760.614 434.114 760.286 433.308 760.286 432.146C760.286 430.97 760.614 430.17 761.271 429.746C761.94 429.309 762.747 429.09 763.69 429.09ZM786.413 437.642C788.86 437.642 790.829 438.312 792.319 439.651C793.81 440.978 794.555 443.11 794.555 446.05V461H788.3V447.608C788.3 445.968 787.999 444.73 787.397 443.896C786.81 443.062 785.88 442.646 784.608 442.646C782.694 442.646 781.389 443.295 780.691 444.594C779.994 445.893 779.646 447.766 779.646 450.213V461H773.391V438.072H778.169L779.01 441.005H779.358C779.851 440.212 780.459 439.569 781.184 439.077C781.922 438.585 782.735 438.223 783.624 437.99C784.526 437.758 785.456 437.642 786.413 437.642ZM831.94 454.786H828.331V461H822.138V454.786H809.341V450.377L822.486 431.018H828.331V449.864H831.94V454.786ZM822.138 449.864V444.778C822.138 444.3 822.145 443.732 822.158 443.076C822.186 442.42 822.213 441.764 822.24 441.107C822.268 440.451 822.295 439.87 822.322 439.364C822.363 438.845 822.391 438.482 822.404 438.277H822.24C821.98 438.838 821.707 439.385 821.42 439.918C821.133 440.438 820.798 440.984 820.415 441.559L814.919 449.864H822.138ZM855.135 446.009C855.135 448.429 854.943 450.589 854.561 452.489C854.191 454.39 853.59 456.003 852.756 457.329C851.936 458.655 850.855 459.667 849.516 460.364C848.176 461.062 846.549 461.41 844.635 461.41C842.229 461.41 840.253 460.802 838.708 459.585C837.163 458.354 836.021 456.591 835.283 454.294C834.545 451.983 834.176 449.222 834.176 446.009C834.176 442.769 834.511 440 835.181 437.703C835.864 435.393 836.972 433.622 838.503 432.392C840.034 431.161 842.078 430.546 844.635 430.546C847.027 430.546 848.996 431.161 850.541 432.392C852.1 433.608 853.255 435.372 854.007 437.683C854.759 439.979 855.135 442.755 855.135 446.009ZM840.472 446.009C840.472 448.292 840.595 450.199 840.841 451.73C841.101 453.248 841.531 454.39 842.133 455.155C842.734 455.921 843.568 456.304 844.635 456.304C845.688 456.304 846.515 455.928 847.116 455.176C847.731 454.41 848.169 453.269 848.429 451.751C848.688 450.22 848.818 448.306 848.818 446.009C848.818 443.726 848.688 441.818 848.429 440.287C848.169 438.756 847.731 437.607 847.116 436.842C846.515 436.062 845.688 435.673 844.635 435.673C843.568 435.673 842.734 436.062 842.133 436.842C841.531 437.607 841.101 438.756 840.841 440.287C840.595 441.818 840.472 443.726 840.472 446.009ZM897.812 437.642C900.409 437.642 902.371 438.312 903.697 439.651C905.037 440.978 905.707 443.11 905.707 446.05V461H899.432V447.608C899.432 445.968 899.151 444.73 898.591 443.896C898.03 443.062 897.162 442.646 895.986 442.646C894.332 442.646 893.156 443.24 892.459 444.43C891.762 445.605 891.413 447.294 891.413 449.495V461H885.158V447.608C885.158 446.515 885.035 445.599 884.789 444.86C884.543 444.122 884.167 443.568 883.661 443.199C883.155 442.83 882.506 442.646 881.713 442.646C880.551 442.646 879.635 442.939 878.965 443.527C878.309 444.102 877.837 444.956 877.55 446.091C877.276 447.212 877.14 448.586 877.14 450.213V461H870.885V438.072H875.663L876.504 441.005H876.853C877.317 440.212 877.898 439.569 878.596 439.077C879.307 438.585 880.086 438.223 880.934 437.99C881.781 437.758 882.643 437.642 883.518 437.642C885.199 437.642 886.621 437.915 887.783 438.462C888.959 439.009 889.861 439.856 890.49 441.005H891.044C891.728 439.829 892.691 438.975 893.936 438.441C895.193 437.908 896.485 437.642 897.812 437.642ZM918.401 438.072V461H912.146V438.072H918.401ZM915.284 429.09C916.214 429.09 917.014 429.309 917.684 429.746C918.354 430.17 918.688 430.97 918.688 432.146C918.688 433.308 918.354 434.114 917.684 434.565C917.014 435.003 916.214 435.222 915.284 435.222C914.341 435.222 913.534 435.003 912.864 434.565C912.208 434.114 911.88 433.308 911.88 432.146C911.88 430.97 912.208 430.17 912.864 429.746C913.534 429.309 914.341 429.09 915.284 429.09ZM938.007 437.642C940.454 437.642 942.423 438.312 943.913 439.651C945.403 440.978 946.148 443.11 946.148 446.05V461H939.894V447.608C939.894 445.968 939.593 444.73 938.991 443.896C938.403 443.062 937.474 442.646 936.202 442.646C934.288 442.646 932.982 443.295 932.285 444.594C931.588 445.893 931.239 447.766 931.239 450.213V461H924.984V438.072H929.763L930.604 441.005H930.952C931.444 440.212 932.053 439.569 932.777 439.077C933.516 438.585 934.329 438.223 935.218 437.99C936.12 437.758 937.05 437.642 938.007 437.642ZM973.629 438.072V461H968.83L967.989 458.067H967.661C967.169 458.847 966.554 459.482 965.815 459.975C965.077 460.467 964.264 460.829 963.375 461.062C962.486 461.294 961.563 461.41 960.606 461.41C958.966 461.41 957.537 461.123 956.32 460.549C955.104 459.961 954.153 459.052 953.47 457.821C952.8 456.591 952.465 454.991 952.465 453.022V438.072H958.72V451.464C958.72 453.104 959.014 454.342 959.602 455.176C960.189 456.01 961.126 456.427 962.411 456.427C963.683 456.427 964.681 456.14 965.405 455.565C966.13 454.978 966.636 454.123 966.923 453.002C967.224 451.867 967.374 450.486 967.374 448.859V438.072H973.629ZM989.851 456.427C990.534 456.427 991.197 456.358 991.84 456.222C992.496 456.085 993.146 455.914 993.788 455.709V460.364C993.118 460.665 992.284 460.911 991.286 461.103C990.302 461.308 989.222 461.41 988.046 461.41C986.679 461.41 985.448 461.191 984.354 460.754C983.274 460.303 982.42 459.53 981.791 458.437C981.176 457.329 980.868 455.791 980.868 453.822V442.769H977.874V440.123L981.319 438.031L983.124 433.191H987.123V438.072H993.542V442.769H987.123V453.822C987.123 454.697 987.369 455.354 987.861 455.791C988.367 456.215 989.03 456.427 989.851 456.427ZM1007.9 437.642C1010.02 437.642 1011.84 438.052 1013.37 438.872C1014.9 439.679 1016.09 440.854 1016.92 442.399C1017.75 443.944 1018.17 445.831 1018.17 448.06V451.095H1003.39C1003.45 452.858 1003.98 454.246 1004.96 455.258C1005.96 456.256 1007.34 456.755 1009.11 456.755C1010.57 456.755 1011.91 456.604 1013.13 456.304C1014.34 456.003 1015.59 455.552 1016.88 454.95V459.79C1015.75 460.351 1014.56 460.761 1013.31 461.021C1012.08 461.28 1010.58 461.41 1008.82 461.41C1006.52 461.41 1004.49 460.986 1002.71 460.139C1000.95 459.291 999.558 457.999 998.546 456.263C997.548 454.526 997.049 452.339 997.049 449.7C997.049 447.021 997.5 444.792 998.402 443.015C999.318 441.224 1000.59 439.884 1002.22 438.995C1003.84 438.093 1005.74 437.642 1007.9 437.642ZM1007.94 442.092C1006.72 442.092 1005.71 442.481 1004.9 443.261C1004.11 444.04 1003.65 445.264 1003.53 446.932H1012.31C1012.29 446.002 1012.12 445.175 1011.79 444.45C1011.48 443.726 1011 443.151 1010.36 442.728C1009.73 442.304 1008.92 442.092 1007.94 442.092ZM1039.25 454.191C1039.25 455.75 1038.88 457.069 1038.15 458.149C1037.42 459.216 1036.33 460.029 1034.89 460.59C1033.44 461.137 1031.63 461.41 1029.47 461.41C1027.87 461.41 1026.5 461.308 1025.35 461.103C1024.21 460.897 1023.07 460.556 1021.9 460.077V454.909C1023.15 455.47 1024.48 455.935 1025.9 456.304C1027.34 456.659 1028.6 456.837 1029.68 456.837C1030.89 456.837 1031.76 456.659 1032.28 456.304C1032.81 455.935 1033.08 455.456 1033.08 454.868C1033.08 454.485 1032.97 454.144 1032.75 453.843C1032.55 453.528 1032.1 453.18 1031.4 452.797C1030.7 452.4 1029.61 451.888 1028.12 451.259C1026.68 450.657 1025.5 450.049 1024.57 449.434C1023.65 448.818 1022.97 448.094 1022.52 447.26C1022.08 446.412 1021.86 445.339 1021.86 444.04C1021.86 441.921 1022.68 440.328 1024.32 439.262C1025.98 438.182 1028.19 437.642 1030.95 437.642C1032.37 437.642 1033.72 437.785 1035.01 438.072C1036.31 438.359 1037.64 438.817 1039.01 439.446L1037.12 443.958C1035.99 443.466 1034.91 443.062 1033.9 442.748C1032.9 442.434 1031.88 442.276 1030.85 442.276C1029.93 442.276 1029.24 442.399 1028.77 442.646C1028.31 442.892 1028.08 443.268 1028.08 443.773C1028.08 444.143 1028.19 444.471 1028.43 444.758C1028.67 445.045 1029.14 445.366 1029.82 445.722C1030.52 446.063 1031.54 446.508 1032.88 447.055C1034.17 447.588 1035.3 448.148 1036.26 448.736C1037.22 449.311 1037.96 450.028 1038.47 450.89C1038.99 451.737 1039.25 452.838 1039.25 454.191Z" fill="white"/>
<path d="M563.078 554.859C562.151 554.859 561.328 555.042 560.609 555.406C559.901 555.76 559.302 556.276 558.812 556.953C558.333 557.63 557.969 558.448 557.719 559.406C557.469 560.365 557.344 561.443 557.344 562.641C557.344 564.255 557.542 565.635 557.938 566.781C558.344 567.917 558.969 568.786 559.812 569.391C560.656 569.984 561.745 570.281 563.078 570.281C564.005 570.281 564.932 570.177 565.859 569.969C566.797 569.76 567.812 569.464 568.906 569.078V573.141C567.896 573.557 566.901 573.854 565.922 574.031C564.943 574.219 563.844 574.312 562.625 574.312C560.271 574.312 558.333 573.828 556.812 572.859C555.302 571.88 554.182 570.516 553.453 568.766C552.724 567.005 552.359 564.953 552.359 562.609C552.359 560.88 552.594 559.297 553.062 557.859C553.531 556.422 554.219 555.177 555.125 554.125C556.031 553.073 557.151 552.26 558.484 551.688C559.818 551.115 561.349 550.828 563.078 550.828C564.214 550.828 565.349 550.974 566.484 551.266C567.63 551.547 568.724 551.938 569.766 552.438L568.203 556.375C567.349 555.969 566.49 555.615 565.625 555.312C564.76 555.01 563.911 554.859 563.078 554.859ZM578.172 574H573.406V549.688H578.172V574ZM587.953 556.531V574H583.188V556.531H587.953ZM585.578 549.688C586.286 549.688 586.896 549.854 587.406 550.188C587.917 550.51 588.172 551.12 588.172 552.016C588.172 552.901 587.917 553.516 587.406 553.859C586.896 554.193 586.286 554.359 585.578 554.359C584.859 554.359 584.245 554.193 583.734 553.859C583.234 553.516 582.984 552.901 582.984 552.016C582.984 551.12 583.234 550.51 583.734 550.188C584.245 549.854 584.859 549.688 585.578 549.688ZM600.062 574.312C598.333 574.312 596.859 574 595.641 573.375C594.422 572.74 593.495 571.76 592.859 570.438C592.224 569.115 591.906 567.422 591.906 565.359C591.906 563.224 592.266 561.484 592.984 560.141C593.714 558.786 594.719 557.792 596 557.156C597.292 556.521 598.786 556.203 600.484 556.203C601.693 556.203 602.734 556.323 603.609 556.562C604.495 556.792 605.266 557.068 605.922 557.391L604.516 561.078C603.766 560.776 603.068 560.531 602.422 560.344C601.776 560.146 601.13 560.047 600.484 560.047C599.651 560.047 598.958 560.245 598.406 560.641C597.854 561.026 597.443 561.609 597.172 562.391C596.901 563.172 596.766 564.151 596.766 565.328C596.766 566.484 596.911 567.443 597.203 568.203C597.495 568.964 597.917 569.531 598.469 569.906C599.021 570.271 599.693 570.453 600.484 570.453C601.474 570.453 602.354 570.323 603.125 570.062C603.896 569.792 604.646 569.417 605.375 568.938V573.016C604.646 573.474 603.88 573.802 603.078 574C602.286 574.208 601.281 574.312 600.062 574.312ZM614.203 549.688V560.562C614.203 561.219 614.177 561.875 614.125 562.531C614.073 563.188 614.016 563.844 613.953 564.5H614.016C614.339 564.042 614.667 563.589 615 563.141C615.344 562.693 615.708 562.26 616.094 561.844L620.984 556.531H626.359L619.422 564.109L626.781 574H621.281L616.25 566.922L614.203 568.562V574H609.438V549.688H614.203ZM642.359 549.688V554.641C642.359 555.505 642.328 556.328 642.266 557.109C642.214 557.891 642.172 558.443 642.141 558.766H642.391C642.766 558.161 643.208 557.672 643.719 557.297C644.24 556.922 644.812 556.646 645.438 556.469C646.062 556.292 646.734 556.203 647.453 556.203C648.714 556.203 649.812 556.427 650.75 556.875C651.688 557.312 652.417 558.005 652.938 558.953C653.458 559.891 653.719 561.109 653.719 562.609V574H648.953V563.797C648.953 562.547 648.724 561.604 648.266 560.969C647.807 560.333 647.099 560.016 646.141 560.016C645.182 560.016 644.427 560.24 643.875 560.688C643.323 561.125 642.932 561.776 642.703 562.641C642.474 563.495 642.359 564.542 642.359 565.781V574H637.594V549.688H642.359ZM665.828 556.203C667.443 556.203 668.833 556.516 670 557.141C671.167 557.755 672.068 558.651 672.703 559.828C673.339 561.005 673.656 562.443 673.656 564.141V566.453H662.391C662.443 567.797 662.844 568.854 663.594 569.625C664.354 570.385 665.406 570.766 666.75 570.766C667.865 570.766 668.885 570.651 669.812 570.422C670.74 570.193 671.693 569.849 672.672 569.391V573.078C671.807 573.505 670.901 573.818 669.953 574.016C669.016 574.214 667.875 574.312 666.531 574.312C664.781 574.312 663.229 573.99 661.875 573.344C660.531 572.698 659.474 571.714 658.703 570.391C657.943 569.068 657.562 567.401 657.562 565.391C657.562 563.349 657.906 561.651 658.594 560.297C659.292 558.932 660.26 557.911 661.5 557.234C662.74 556.547 664.182 556.203 665.828 556.203ZM665.859 559.594C664.932 559.594 664.161 559.891 663.547 560.484C662.943 561.078 662.594 562.01 662.5 563.281H669.188C669.177 562.573 669.047 561.943 668.797 561.391C668.557 560.839 668.193 560.401 667.703 560.078C667.224 559.755 666.609 559.594 665.859 559.594ZM687.281 556.203C687.521 556.203 687.797 556.219 688.109 556.25C688.432 556.271 688.693 556.302 688.891 556.344L688.531 560.812C688.375 560.76 688.151 560.724 687.859 560.703C687.578 560.672 687.333 560.656 687.125 560.656C686.51 560.656 685.911 560.734 685.328 560.891C684.755 561.047 684.24 561.302 683.781 561.656C683.323 562 682.958 562.458 682.688 563.031C682.427 563.594 682.297 564.286 682.297 565.109V574H677.531V556.531H681.141L681.844 559.469H682.078C682.422 558.875 682.849 558.333 683.359 557.844C683.88 557.344 684.469 556.948 685.125 556.656C685.792 556.354 686.51 556.203 687.281 556.203ZM699.266 556.203C700.88 556.203 702.271 556.516 703.438 557.141C704.604 557.755 705.505 558.651 706.141 559.828C706.776 561.005 707.094 562.443 707.094 564.141V566.453H695.828C695.88 567.797 696.281 568.854 697.031 569.625C697.792 570.385 698.844 570.766 700.188 570.766C701.302 570.766 702.323 570.651 703.25 570.422C704.177 570.193 705.13 569.849 706.109 569.391V573.078C705.245 573.505 704.339 573.818 703.391 574.016C702.453 574.214 701.312 574.312 699.969 574.312C698.219 574.312 696.667 573.99 695.312 573.344C693.969 572.698 692.911 571.714 692.141 570.391C691.38 569.068 691 567.401 691 565.391C691 563.349 691.344 561.651 692.031 560.297C692.729 558.932 693.698 557.911 694.938 557.234C696.177 556.547 697.62 556.203 699.266 556.203ZM699.297 559.594C698.37 559.594 697.599 559.891 696.984 560.484C696.38 561.078 696.031 562.01 695.938 563.281H702.625C702.615 562.573 702.484 561.943 702.234 561.391C701.995 560.839 701.63 560.401 701.141 560.078C700.661 559.755 700.047 559.594 699.297 559.594ZM726.641 570.516C727.161 570.516 727.667 570.464 728.156 570.359C728.656 570.255 729.151 570.125 729.641 569.969V573.516C729.13 573.745 728.495 573.932 727.734 574.078C726.984 574.234 726.161 574.312 725.266 574.312C724.224 574.312 723.286 574.146 722.453 573.812C721.63 573.469 720.979 572.88 720.5 572.047C720.031 571.203 719.797 570.031 719.797 568.531V560.109H717.516V558.094L720.141 556.5L721.516 552.812H724.562V556.531H729.453V560.109H724.562V568.531C724.562 569.198 724.75 569.698 725.125 570.031C725.51 570.354 726.016 570.516 726.641 570.516ZM749.062 565.234C749.062 566.693 748.865 567.984 748.469 569.109C748.083 570.234 747.516 571.188 746.766 571.969C746.026 572.74 745.13 573.323 744.078 573.719C743.036 574.115 741.859 574.312 740.547 574.312C739.318 574.312 738.188 574.115 737.156 573.719C736.135 573.323 735.245 572.74 734.484 571.969C733.734 571.188 733.151 570.234 732.734 569.109C732.328 567.984 732.125 566.693 732.125 565.234C732.125 563.297 732.469 561.656 733.156 560.312C733.844 558.969 734.823 557.948 736.094 557.25C737.365 556.552 738.88 556.203 740.641 556.203C742.276 556.203 743.724 556.552 744.984 557.25C746.255 557.948 747.25 558.969 747.969 560.312C748.698 561.656 749.062 563.297 749.062 565.234ZM736.984 565.234C736.984 566.38 737.109 567.344 737.359 568.125C737.609 568.906 738 569.495 738.531 569.891C739.062 570.286 739.755 570.484 740.609 570.484C741.453 570.484 742.135 570.286 742.656 569.891C743.188 569.495 743.573 568.906 743.812 568.125C744.062 567.344 744.188 566.38 744.188 565.234C744.188 564.078 744.062 563.12 743.812 562.359C743.573 561.589 743.188 561.01 742.656 560.625C742.125 560.24 741.432 560.047 740.578 560.047C739.318 560.047 738.401 560.479 737.828 561.344C737.266 562.208 736.984 563.505 736.984 565.234ZM773.5 568.812C773.5 570 773.219 571.005 772.656 571.828C772.104 572.641 771.276 573.26 770.172 573.688C769.068 574.104 767.693 574.312 766.047 574.312C764.828 574.312 763.781 574.234 762.906 574.078C762.042 573.922 761.167 573.661 760.281 573.297V569.359C761.229 569.786 762.245 570.141 763.328 570.422C764.422 570.693 765.38 570.828 766.203 570.828C767.13 570.828 767.792 570.693 768.188 570.422C768.594 570.141 768.797 569.776 768.797 569.328C768.797 569.036 768.714 568.776 768.547 568.547C768.391 568.307 768.047 568.042 767.516 567.75C766.984 567.448 766.151 567.057 765.016 566.578C763.922 566.12 763.021 565.656 762.312 565.188C761.615 564.719 761.094 564.167 760.75 563.531C760.417 562.885 760.25 562.068 760.25 561.078C760.25 559.464 760.875 558.25 762.125 557.438C763.385 556.615 765.068 556.203 767.172 556.203C768.255 556.203 769.286 556.312 770.266 556.531C771.255 556.75 772.271 557.099 773.312 557.578L771.875 561.016C771.01 560.641 770.193 560.333 769.422 560.094C768.661 559.854 767.885 559.734 767.094 559.734C766.396 559.734 765.87 559.828 765.516 560.016C765.161 560.203 764.984 560.49 764.984 560.875C764.984 561.156 765.073 561.406 765.25 561.625C765.438 561.844 765.792 562.089 766.312 562.359C766.844 562.62 767.62 562.958 768.641 563.375C769.63 563.781 770.49 564.208 771.219 564.656C771.948 565.094 772.51 565.641 772.906 566.297C773.302 566.943 773.5 567.781 773.5 568.812ZM784.422 556.203C786.036 556.203 787.427 556.516 788.594 557.141C789.76 557.755 790.661 558.651 791.297 559.828C791.932 561.005 792.25 562.443 792.25 564.141V566.453H780.984C781.036 567.797 781.438 568.854 782.188 569.625C782.948 570.385 784 570.766 785.344 570.766C786.458 570.766 787.479 570.651 788.406 570.422C789.333 570.193 790.286 569.849 791.266 569.391V573.078C790.401 573.505 789.495 573.818 788.547 574.016C787.609 574.214 786.469 574.312 785.125 574.312C783.375 574.312 781.823 573.99 780.469 573.344C779.125 572.698 778.068 571.714 777.297 570.391C776.536 569.068 776.156 567.401 776.156 565.391C776.156 563.349 776.5 561.651 777.188 560.297C777.885 558.932 778.854 557.911 780.094 557.234C781.333 556.547 782.776 556.203 784.422 556.203ZM784.453 559.594C783.526 559.594 782.755 559.891 782.141 560.484C781.536 561.078 781.188 562.01 781.094 563.281H787.781C787.771 562.573 787.641 561.943 787.391 561.391C787.151 560.839 786.786 560.401 786.297 560.078C785.818 559.755 785.203 559.594 784.453 559.594ZM803.328 556.203C804.943 556.203 806.333 556.516 807.5 557.141C808.667 557.755 809.568 558.651 810.203 559.828C810.839 561.005 811.156 562.443 811.156 564.141V566.453H799.891C799.943 567.797 800.344 568.854 801.094 569.625C801.854 570.385 802.906 570.766 804.25 570.766C805.365 570.766 806.385 570.651 807.312 570.422C808.24 570.193 809.193 569.849 810.172 569.391V573.078C809.307 573.505 808.401 573.818 807.453 574.016C806.516 574.214 805.375 574.312 804.031 574.312C802.281 574.312 800.729 573.99 799.375 573.344C798.031 572.698 796.974 571.714 796.203 570.391C795.443 569.068 795.062 567.401 795.062 565.391C795.062 563.349 795.406 561.651 796.094 560.297C796.792 558.932 797.76 557.911 799 557.234C800.24 556.547 801.682 556.203 803.328 556.203ZM803.359 559.594C802.432 559.594 801.661 559.891 801.047 560.484C800.443 561.078 800.094 562.01 800 563.281H806.688C806.677 562.573 806.547 561.943 806.297 561.391C806.057 560.839 805.693 560.401 805.203 560.078C804.724 559.755 804.109 559.594 803.359 559.594ZM828.109 549.688V554.641C828.109 555.505 828.078 556.328 828.016 557.109C827.964 557.891 827.922 558.443 827.891 558.766H828.141C828.516 558.161 828.958 557.672 829.469 557.297C829.99 556.922 830.562 556.646 831.188 556.469C831.812 556.292 832.484 556.203 833.203 556.203C834.464 556.203 835.562 556.427 836.5 556.875C837.438 557.312 838.167 558.005 838.688 558.953C839.208 559.891 839.469 561.109 839.469 562.609V574H834.703V563.797C834.703 562.547 834.474 561.604 834.016 560.969C833.557 560.333 832.849 560.016 831.891 560.016C830.932 560.016 830.177 560.24 829.625 560.688C829.073 561.125 828.682 561.776 828.453 562.641C828.224 563.495 828.109 564.542 828.109 565.781V574H823.344V549.688H828.109ZM860.25 565.234C860.25 566.693 860.052 567.984 859.656 569.109C859.271 570.234 858.703 571.188 857.953 571.969C857.214 572.74 856.318 573.323 855.266 573.719C854.224 574.115 853.047 574.312 851.734 574.312C850.505 574.312 849.375 574.115 848.344 573.719C847.323 573.323 846.432 572.74 845.672 571.969C844.922 571.188 844.339 570.234 843.922 569.109C843.516 567.984 843.312 566.693 843.312 565.234C843.312 563.297 843.656 561.656 844.344 560.312C845.031 558.969 846.01 557.948 847.281 557.25C848.552 556.552 850.068 556.203 851.828 556.203C853.464 556.203 854.911 556.552 856.172 557.25C857.443 557.948 858.438 558.969 859.156 560.312C859.885 561.656 860.25 563.297 860.25 565.234ZM848.172 565.234C848.172 566.38 848.297 567.344 848.547 568.125C848.797 568.906 849.188 569.495 849.719 569.891C850.25 570.286 850.943 570.484 851.797 570.484C852.641 570.484 853.323 570.286 853.844 569.891C854.375 569.495 854.76 568.906 855 568.125C855.25 567.344 855.375 566.38 855.375 565.234C855.375 564.078 855.25 563.12 855 562.359C854.76 561.589 854.375 561.01 853.844 560.625C853.312 560.24 852.62 560.047 851.766 560.047C850.505 560.047 849.589 560.479 849.016 561.344C848.453 562.208 848.172 563.505 848.172 565.234ZM878.547 574L877.203 567.891C877.13 567.526 877.01 566.99 876.844 566.281C876.677 565.562 876.495 564.797 876.297 563.984C876.109 563.161 875.932 562.401 875.766 561.703C875.609 561.005 875.495 560.495 875.422 560.172H875.281C875.208 560.495 875.094 561.005 874.938 561.703C874.781 562.401 874.604 563.161 874.406 563.984C874.219 564.807 874.042 565.583 873.875 566.312C873.708 567.031 873.583 567.578 873.5 567.953L872.094 574H866.969L862 556.531H866.75L868.766 564.266C868.901 564.807 869.031 565.453 869.156 566.203C869.281 566.943 869.391 567.661 869.484 568.359C869.589 569.047 869.667 569.594 869.719 570H869.844C869.865 569.698 869.906 569.297 869.969 568.797C870.042 568.297 870.12 567.781 870.203 567.25C870.297 566.708 870.38 566.224 870.453 565.797C870.536 565.359 870.599 565.062 870.641 564.906L872.797 556.531H878.047L880.094 564.906C880.167 565.208 880.26 565.688 880.375 566.344C880.5 567 880.609 567.677 880.703 568.375C880.797 569.062 880.849 569.604 880.859 570H880.984C881.026 569.646 881.099 569.12 881.203 568.422C881.307 567.724 881.427 566.995 881.562 566.234C881.708 565.464 881.854 564.807 882 564.266L884.094 556.531H888.766L883.734 574H878.547Z" fill="white"/>
<rect x="513" y="521" width="414" height="82" rx="41" stroke="white" stroke-opacity="0.29" stroke-width="10"/>
</g>
<defs>
<filter id="filter0_b_601_1621" x="-160" y="-160" width="1760" height="1344" filterUnits="userSpaceOnUse" color-interpolation-filters="sRGB">
<feFlood flood-opacity="0" result="BackgroundImageFix"/>
<feGaussianBlur in="BackgroundImage" stdDeviation="80"/>
<feComposite in2="SourceAlpha" operator="in" result="effect1_backgroundBlur_601_1621"/>
<feBlend mode="normal" in="SourceGraphic" in2="effect1_backgroundBlur_601_1621" result="shape"/>
</filter>
</defs>
</svg>
